{
.appVersion = "1141";
copyright = "Copyright 2011, 2017 Google Inc. All Rights Reserved.";
customParameters = (
{
name = glyphOrder;
value = (
space,
nbspace,
A,
Agrave,
Aacute,
Acircumflex,
Atilde,
Adieresis,
Aring,
Amacron,
Abreve,
Aogonek,
Aringacute,
Adblgrave,
Ainvertedbreve,
Adotbelow,
Ahookabove,
Acircumflexacute,
Acircumflexgrave,
Acircumflexhookabove,
Acircumflextilde,
Acircumflexdotbelow,
Abreveacute,
Abrevegrave,
Abrevehookabove,
Abrevetilde,
Abrevedotbelow,
B,
C,
Ccedilla,
Cacute,
Ccircumflex,
Cdotaccent,
Ccaron,
D,
Dcaron,
E,
Egrave,
Eacute,
Ecircumflex,
Edieresis,
Emacron,
Ebreve,
Edotaccent,
Eogonek,
Ecaron,
Edblgrave,
Einvertedbreve,
Edotbelow,
Ehookabove,
Etilde,
Ecircumflexacute,
Ecircumflexgrave,
Ecircumflexhookabove,
Ecircumflextilde,
Ecircumflexdotbelow,
F,
G,
Gcircumflex,
Gbreve,
Gdotaccent,
Gcommaaccent,
Gcaron,
H,
Hcircumflex,
I,
Igrave,
Iacute,
Icircumflex,
Idieresis,
Itilde,
Imacron,
Ibreve,
Iogonek,
Idotaccent,
Idblgrave,
Iinvertedbreve,
Ihookabove,
Idotbelow,
J,
Jcircumflex,
K,
Kcommaaccent,
L,
Lacute,
Lcommaaccent,
Lcaron,
M,
N,
Ntilde,
Nacute,
Ncommaaccent,
Ncaron,
O,
Ograve,
Oacute,
Ocircumflex,
Otilde,
Odieresis,
Omacron,
Obreve,
Ohungarumlaut,
Ohorn,
Oogonek,
Odblgrave,
Oinvertedbreve,
Odieresismacron,
Otildemacron,
Odotaccentmacron,
Odotbelow,
Ohookabove,
Ocircumflexacute,
Ocircumflexgrave,
Ocircumflexhookabove,
Ocircumflextilde,
Ocircumflexdotbelow,
Ohornacute,
Ohorngrave,
Ohornhookabove,
Ohorntilde,
Ohorndotbelow,
P,
Q,
R,
Racute,
Rcommaaccent,
Rcaron,
Rdblgrave,
Rinvertedbreve,
S,
Sacute,
Scircumflex,
Scedilla,
Scaron,
Scommaaccent,
T,
Tcedilla,
Tcaron,
Tcommaaccent,
U,
Ugrave,
Uacute,
Ucircumflex,
Udieresis,
Utilde,
Umacron,
Ubreve,
Uring,
Uhungarumlaut,
Uogonek,
Uhorn,
Udblgrave,
Uinvertedbreve,
Udotbelow,
Uhookabove,
Uhornacute,
Uhorngrave,
Uhornhookabove,
Uhorntilde,
Uhorndotbelow,
V,
W,
Wcircumflex,
Wgrave,
Wacute,
Wdieresis,
X,
Y,
Yacute,
Ycircumflex,
Ydieresis,
Ymacron,
Ygrave,
Ydotbelow,
Yhookabove,
Ytilde,
Z,
Zacute,

glyphs = (
{
glyphname = A;
layers = (
{
layerId = "35AD4BD0-1826-4A50-BA60-0A633C86B791";
paths = (
{
closed = 1;
nodes = (
"874 1473 LINE",
"884 1473 LINE",
"1403 0 LINE",
"1392 0 LINE",
"932 1304 LINE SMOOTH",
"921 1335 OFFCURVE",
"884 1441 OFFCURVE",
"877 1460 QCURVE",
"875 1460 LINE",
"863 1440 OFFCURVE",
"790 1336 OFFCURVE",
"767 1304 QCURVE SMOOTH",
"-139 0 LINE",
"-149 0 LINE"
);
},
{
closed = 1;
nodes = (
"204 500 LINE",
"1220 500 LINE",
"1225 490 LINE",
"196 490 LINE"
);
}
);
width = 1512;
}
);
leftKerningGroup = A_UC;
rightKerningGroup = A_UC;
unicode = 0041;
},
{
glyphname = B;
layers = (
{
layerId = "35AD4BD0-1826-4A50-BA60-0A633C86B791";
paths = (
{
closed = 1;
nodes = (
"378 1456 LINE",
"1004 1456 LINE SMOOTH",
"1194 1456 OFFCURVE",
"1400 1299 OFFCURVE",
"1367 1111 QCURVE SMOOTH",
"1339 954 OFFCURVE",
"1140 773 OFFCURVE",
"990 764 QCURVE",
"990 763 LINE",
"1136 755 OFFCURVE",
"1332 581 OFFCURVE",
"1300 397 QCURVE SMOOTH",
"1266 206 OFFCURVE",
"990 0 OFFCURVE",
"779 0 QCURVE SMOOTH",
"121 0 LINE"
);
},
{
closed = 1;
nodes = (
"786 10 LINE SMOOTH",
"985 10 OFFCURVE",
"1256 203 OFFCURVE",
"1290 396 QCURVE SMOOTH",
"1321 573 OFFCURVE",
"1118 758 OFFCURVE",
"918 758 QCURVE SMOOTH",
"265 758 LINE",
"133 10 LINE"
);
},
{
closed = 1;
nodes = (
"918 768 LINE SMOOTH",
"1122 768 OFFCURVE",
"1330 961 OFFCURVE",
"1357 1111 QCURVE SMOOTH",
"1389 1294 OFFCURVE",
"1186 1446 OFFCURVE",
"1002 1446 QCURVE SMOOTH",
"386 1446 LINE",
"266 768 LINE"
);
}
);
width = 1423;
}
);
leftKerningGroup = StraightRight_UC;
unicode = 0042;
},
{
glyphname = C;
layers = (
{
layerId = "35AD4BD0-1826-4A50-BA60-0A633C86B791";
paths = (
{
closed = 1;
nodes = (
"95 750 LINE SMOOTH",
"162 1126 OFFCURVE",
"681 1480 OFFCURVE",
"1086 1480 QCURVE SMOOTH",
"1450 1480 OFFCURVE",
"1768 1243 OFFCURVE",
"1775 999 QCURVE SMOOTH",
"1776 985 LINE",
"1760 985 LINE",
"1760 997 LINE SMOOTH",
"1762 1219 OFFCURVE",
"1447 1470 OFFCURVE",
"1084 1470 QCURVE",
"682 1470 OFFCURVE",
"170 1116 OFFCURVE",
"105 746 QCURVE SMOOTH",
"103 739 LINE SMOOTH",
"43 396 OFFCURVE",
"428 -14 OFFCURVE",
"821 -14 QCURVE",
"1196 -14 OFFCURVE",
"1573 229 OFFCURVE",
"1667 458 QCURVE SMOOTH",
"1672 471 LINE",
"1685 471 LINE",
"1680 458 LINE SMOOTH",
"1584 222 OFFCURVE",
"1197 -24 OFFCURVE",
"818 -24 QCURVE SMOOTH",
"439 -24 OFFCURVE",
"30 379 OFFCURVE",
"93 736 QCURVE SMOOTH"
);
}
);
width = 1768;
}
);
leftKerningGroup = CG_UC;
rightKerningGroup = C_UC;
unicode = 0043;
},
{
glyphname = D;
layers = (
{
layerId = "35AD4BD0-1826-4A50-BA60-0A633C86B791";
paths = (
{
closed = 1;
nodes = (
"378 1456 LINE",
"968 1456 LINE SMOOTH",
"1285 1456 OFFCURVE",
"1591 1096 OFFCURVE",
"1530 751 QCURVE SMOOTH",
"1527 734 LINE SMOOTH",
"1463 367 OFFCURVE",
"1004 0 OFFCURVE",
"711 0 QCURVE SMOOTH",
"121 0 LINE"
);
},
{
closed = 1;
nodes = (
"713 10 LINE SMOOTH",
"1007 10 OFFCURVE",
"1456 386 OFFCURVE",
"1516 727 QCURVE SMOOTH",
"1521 755 LINE SMOOTH",
"1579 1084 OFFCURVE",
"1289 1446 OFFCURVE",
"966 1446 QCURVE SMOOTH",
"386 1446 LINE",
"133 10 LINE"
);
}
);
width = 1620;
}
);
leftKerningGroup = StraightRight_UC;
rightKerningGroup = D_UC;
unicode = 0044;
},
{
glyphname = E;
layers = (
{
layerId = "35AD4BD0-1826-4A50-BA60-0A633C86B791";
paths = (
{
closed = 1;
nodes = (
"378 1456 LINE",
"1464 1456 LINE",
"1462 1446 LINE",
"386 1446 LINE",
"265 759 LINE",
"1243 759 LINE",
"1241 749 LINE",
"263 749 LINE",
"133 10 LINE",
"1219 10 LINE",
"1217 0 LINE",
"121 0 LINE"
);
}
);
width = 1412;
}
);
leftKerningGroup = StraightRight_UC;
rightKerningGroup = E_UC;
unicode = 0045;
},
{
glyphname = F;
layers = (
{
layerId = "35AD4BD0-1826-4A50-BA60-0A633C86B791";
paths = (
{
closed = 1;
nodes = (
"378 1456 LINE",
"1361 1456 LINE",
"1359 1446 LINE",
"386 1446 LINE",
"264 754 LINE",
"1172 754 LINE",
"1170 744 LINE",
"262 744 LINE",
"131 0 LINE",
"121 0 LINE"
);
}
);
width = 1248;
}
);
leftKerningGroup = StraightRight_UC;
unicode = 0046;
},
{
glyphname = G;
layers = (
{
layerId = "35AD4BD0-1826-4A50-BA60-0A633C86B791";
paths = (
{
closed = 1;
nodes = (
"95 751 LINE SMOOTH",
"162 1128 OFFCURVE",
"713 1480 OFFCURVE",
"1085 1480 QCURVE SMOOTH",
"1444 1480 OFFCURVE",
"1766 1267 OFFCURVE",
"1764 1056 QCURVE SMOOTH",
"1764 1026 LINE",
"1753 1026 LINE",
"1752 1040 LINE SMOOTH",
"1755 1262 OFFCURVE",
"1438 1470 OFFCURVE",
"1083 1470 QCURVE SMOOTH",
"716 1470 OFFCURVE",
"169 1113 OFFCURVE",
"105 746 QCURVE SMOOTH",
"103 739 LINE SMOOTH",
"43 398 OFFCURVE",
"437 -14 OFFCURVE",
"806 -14 QCURVE SMOOTH",
"1122 -14 OFFCURVE",
"1546 116 OFFCURVE",
"1634 173 QCURVE",
"1718 651 LINE",
"928 651 LINE",
"930 661 LINE",
"1730 661 LINE",
"1642 166 LINE",
"1541 102 OFFCURVE",
"1130 -24 OFFCURVE",
"804 -24 QCURVE SMOOTH",
"425 -24 OFFCURVE",
"30 382 OFFCURVE",
"93 736 QCURVE SMOOTH"
);
}
);
width = 1818;
}
);
leftKerningGroup = CG_UC;
rightKerningGroup = G_UC;
unicode = 0047;
},
{
glyphname = H;
layers = (
{
layerId = "35AD4BD0-1826-4A50-BA60-0A633C86B791";
paths = (
{
closed = 1;
nodes = (
"378 1456 LINE",
"388 1456 LINE",
"266 763 LINE",
"1526 763 LINE",
"1648 1456 LINE",
"1658 1456 LINE",
"1401 0 LINE",
"1391 0 LINE",
"1524 753 LINE",
"264 753 LINE",
"131 0 LINE",
"121 0 LINE"
);
}
);
width = 1780;
}
);
leftKerningGroup = StraightRight_UC;
rightKerningGroup = LeftStraight_UC;
unicode = 0048;
},
{
glyphname = I;
layers = (
{
layerId = "35AD4BD0-1826-4A50-BA60-0A633C86B791";
paths = (
{
closed = 1;
nodes = (
"372 1456 LINE",
"382 1456 LINE",
"125 0 LINE",
"115 0 LINE"
);
}
);
width = 498;
}
);
leftKerningGroup = StraightRight_UC;
rightKerningGroup = LeftStraight_UC;
unicode = 0049;
},
{
glyphname = J;
layers = (
{
layerId = "35AD4BD0-1826-4A50-BA60-0A633C86B791";
paths = (
{
closed = 1;
nodes = (
"-10 467 LINE",
"0 467 LINE",
"-11 404 LINE SMOOTH",
"-49 187 OFFCURVE",
"147 -12 OFFCURVE",
"402 -12 QCURVE SMOOTH",
"672 -12 OFFCURVE",
"954 256 OFFCURVE",
"999 509 QCURVE SMOOTH",
"1166 1456 LINE",
"1176 1456 LINE",
"1007 500 LINE SMOOTH",
"964 253 OFFCURVE",
"675 -24 OFFCURVE",
"405 -24 QCURVE SMOOTH",
"142 -24 OFFCURVE",
"-60 184 OFFCURVE",
"-22 395 QCURVE SMOOTH"
);
}
);
width = 1242;
}
);
leftKerningGroup = J_UC;
rightKerningGroup = JU_UC;
unicode = 004A;
},
{
glyphname = K;
layers = (
{
guideLines = (
{
angle = 90;
position = "{1386, 1451}";
}
);
layerId = "35AD4BD0-1826-4A50-BA60-0A633C86B791";
paths = (
{
closed = 1;
nodes = (
"378 1456 LINE",
"388 1456 LINE",
"220 506 LINE",
"1499 1456 LINE",
"1514 1456 LINE",
"218 493 LINE",
"131 0 LINE",
"121 0 LINE"
);
},
{
closed = 1;
nodes = (
"647 816 LINE",
"656 822 LINE",
"1327 0 LINE",
"1313 -1 LINE"
);
}
);
width = 1401;
}
);
leftKerningGroup = StraightRight_UC;
rightKerningGroup = K_UC;
unicode = 004B;
},
{
glyphname = L;
layers = (
{
layerId = "35AD4BD0-1826-4A50-BA60-0A633C86B791";
paths = (
{
closed = 1;
nodes = (
"378 1456 LINE",
"388 1456 LINE",
"133 10 LINE",
"1097 10 LINE",
"1095 0 LINE",
"121 0 LINE"
);
}
);
width = 1228;
}
);
leftKerningGroup = StraightRight_UC;
rightKerningGroup = L_UC;
unicode = 004C;
},
{
glyphname = M;
layers = (
{
layerId = "35AD4BD0-1826-4A50-BA60-0A633C86B791";
paths = (
{
closed = 1;
nodes = (
"378 1456 LINE",
"389 1456 LINE",
"964 41 LINE SMOOTH",
"967 34 OFFCURVE",
"971 22 OFFCURVE",
"972 18 QCURVE",
"972 18 LINE",
"975 22 OFFCURVE",
"984 34 OFFCURVE",
"989 41 QCURVE SMOOTH",
"2057 1456 LINE",
"2065 1456 LINE",
"1808 0 LINE",
"1798 0 LINE",
"2049 1421 LINE SMOOTH",
"2049 1425 OFFCURVE",
"2051 1433 OFFCURVE",
"2051 1436 QCURVE",
"2051 1436 LINE",
"2048 1431 OFFCURVE",
"2044 1425 OFFCURVE",
"2042 1421 QCURVE SMOOTH",
"971 0 LINE",
"968 0 LINE",
"392 1421 LINE",
"389 1426 OFFCURVE",
"385 1437 OFFCURVE",
"385 1440 QCURVE",
"385 1440 LINE",
"384 1434 OFFCURVE",
"383 1427 OFFCURVE",
"382 1421 QCURVE",
"131 0 LINE",
"121 0 LINE"
);
}
);
width = 2187;
}
);
leftKerningGroup = StraightRight_UC;
rightKerningGroup = LeftStraight_UC;
unicode = 004D;
},
{
glyphname = N;
layers = (
{
layerId = "35AD4BD0-1826-4A50-BA60-0A633C86B791";
paths = (
{
closed = 1;
nodes = (
"378 1456 LINE",
"387 1456 LINE",
"1327 28 LINE SMOOTH",
"1328 27 OFFCURVE",
"1332 19 OFFCURVE",
"1334 16 QCURVE",
"1334 16 LINE",
"1334 19 OFFCURVE",
"1335 25 OFFCURVE",
"1336 28 QCURVE SMOOTH",
"1588 1456 LINE",
"1598 1456 LINE",
"1341 0 LINE",
"1333 0 LINE",
"394 1427 LINE SMOOTH",
"390 1433 OFFCURVE",
"386 1437 OFFCURVE",
"385 1440 QCURVE",
"385 1440 LINE",
"384 1436 OFFCURVE",
"383 1430 OFFCURVE",
"382 1426 QCURVE SMOOTH",
"133 0 LINE",
"121 0 LINE"
);
}
);
width = 1720;
}
);
leftKerningGroup = StraightRight_UC;
rightKerningGroup = LeftStraight_UC;
unicode = 004E;
},
{
glyphname = O;
layers = (
{
layerId = "35AD4BD0-1826-4A50-BA60-0A633C86B791";
paths = (
{
closed = 1;
nodes = (
"95 750 LINE SMOOTH",
"162 1126 OFFCURVE",
"714 1480 OFFCURVE",
"1083 1480 QCURVE SMOOTH",
"1457 1480 OFFCURVE",
"1885 1146 OFFCURVE",
"1816 755 QCURVE SMOOTH",
"1812 732 LINE SMOOTH",
"1750 381 OFFCURVE",
"1213 -24 OFFCURVE",
"818 -24 QCURVE SMOOTH",
"429 -24 OFFCURVE",
"30 382 OFFCURVE",
"93 736 QCURVE SMOOTH"
);
},
{
closed = 1;
nodes = (
"43 396 OFFCURVE",
"438 -14 OFFCURVE",
"820 -14 QCURVE SMOOTH",
"1208 -14 OFFCURVE",
"1742 394 OFFCURVE",
"1803 739 QCURVE SMOOTH",
"1804 745 LINE SMOOTH",
"1873 1134 OFFCURVE",
"1449 1470 OFFCURVE",
"1081 1470 QCURVE",
"716 1470 OFFCURVE",
"170 1115 OFFCURVE",
"105 746 QCURVE SMOOTH",
"103 739 LINE SMOOTH"
);
}
);
width = 1904;
}
);
leftKerningGroup = CG_UC;
rightKerningGroup = D_UC;
unicode = 004F;
},
{
glyphname = P;
layers = (
{
layerId = "35AD4BD0-1826-4A50-BA60-0A633C86B791";
paths = (
{
closed = 1;
nodes = (
"378 1456 LINE",
"1035 1456 LINE SMOOTH",
"1287 1456 OFFCURVE",
"1480 1238 OFFCURVE",
"1445 1038 QCURVE SMOOTH",
"1411 846 OFFCURVE",
"1135 620 OFFCURVE",
"887 620 QCURVE SMOOTH",
"240 620 LINE",
"131 0 LINE",
"121 0 LINE"
);
},
{
closed = 1;
nodes = (
"877 630 LINE SMOOTH",
"1131 630 OFFCURVE",
"1402 852 OFFCURVE",
"1435 1038 QCURVE SMOOTH",
"1469 1231 OFFCURVE",
"1276 1446 OFFCURVE",
"1023 1446 QCURVE SMOOTH",
"386 1446 LINE",
"242 630 LINE"
);
}
);
width = 1460;
}
);
leftKerningGroup = StraightRight_UC;
unicode = 0050;
},
{
glyphname = Q;
layers = (
{
layerId = "35AD4BD0-1826-4A50-BA60-0A633C86B791";
paths = (
{
closed = 1;
nodes = (
"95 750 LINE SMOOTH",
"162 1126 OFFCURVE",
"714 1480 OFFCURVE",
"1083 1480 QCURVE SMOOTH",
"1457 1480 OFFCURVE",
"1885 1146 OFFCURVE",
"1816 755 QCURVE SMOOTH",
"1812 732 LINE SMOOTH",
"1750 381 OFFCURVE",
"1213 -24 OFFCURVE",
"818 -24 QCURVE SMOOTH",
"429 -24 OFFCURVE",
"30 382 OFFCURVE",
"93 736 QCURVE SMOOTH"
);
},
{
closed = 1;
nodes = (
"43 396 OFFCURVE",
"438 -14 OFFCURVE",
"820 -14 QCURVE SMOOTH",
"1208 -14 OFFCURVE",
"1742 394 OFFCURVE",
"1803 739 QCURVE SMOOTH",
"1804 745 LINE SMOOTH",
"1873 1134 OFFCURVE",
"1449 1470 OFFCURVE",
"1081 1470 QCURVE",
"716 1470 OFFCURVE",
"170 1115 OFFCURVE",
"105 746 QCURVE SMOOTH",
"103 739 LINE SMOOTH"
);
},
{
closed = 1;
nodes = (
"986 364 LINE",
"997 375 LINE",
"1555 -187 LINE",
"1545 -197 LINE"
);
}
);
width = 1905;
}
);
leftKerningGroup = CG_UC;
unicode = 0051;
},
{
glyphname = R;
layers = (
{
layerId = "35AD4BD0-1826-4A50-BA60-0A633C86B791";
paths = (
{
closed = 1;
nodes = (
"378 1456 LINE",
"1104 1456 LINE SMOOTH",
"1303 1456 OFFCURVE",
"1484 1244 OFFCURVE",
"1453 1065 QCURVE SMOOTH",
"1422 889 OFFCURVE",
"1163 669 OFFCURVE",
"965 669 QCURVE SMOOTH",
"249 669 LINE",
"131 0 LINE",
"121 0 LINE"
);
},
{
closed = 1;
nodes = (
"967 679 LINE SMOOTH",
"1161 679 OFFCURVE",
"1413 897 OFFCURVE",
"1443 1065 QCURVE SMOOTH",
"1473 1236 OFFCURVE",
"1286 1446 OFFCURVE",
"1102 1446 QCURVE SMOOTH",
"386 1446 LINE",
"251 679 LINE"
);
},
{
closed = 1;
nodes = (
"1050 681 LINE",
"1061 681 LINE",
"1394 0 LINE",
"1381 0 LINE"
);
}
);
width = 1485;
}
);
leftKerningGroup = StraightRight_UC;
rightKerningGroup = R_UC;
unicode = 0052;
},
{
glyphname = S;
layers = (
{
layerId = "35AD4BD0-1826-4A50-BA60-0A633C86B791";
paths = (
{
closed = 1;
nodes = (
"-17 406 LINE",
"-7 406 LINE",
"-8 390 LINE SMOOTH",
"-19 175 OFFCURVE",
"270 -14 OFFCURVE",
"605 -14 QCURVE SMOOTH",
"943 -14 OFFCURVE",
"1288 177 OFFCURVE",
"1318 348 QCURVE SMOOTH",
"1351 531 OFFCURVE",
"1064 687 OFFCURVE",
"722 756 QCURVE SMOOTH",
"368 827 OFFCURVE",
"115 977 OFFCURVE",
"145 1147 QCURVE SMOOTH",
"175 1313 OFFCURVE",
"489 1480 OFFCURVE",
"820 1480 QCURVE SMOOTH",
"1191 1480 OFFCURVE",
"1421 1266 OFFCURVE",
"1406 1112 QCURVE SMOOTH",
"1403 1086 LINE",
"1391 1086 LINE",
"1393 1107 LINE SMOOTH",
"1408 1260 OFFCURVE",
"1183 1470 OFFCURVE",
"817 1470 QCURVE SMOOTH",
"492 1470 OFFCURVE",
"183 1302 OFFCURVE",
"155 1147 QCURVE SMOOTH",
"127 985 OFFCURVE",
"382 836 OFFCURVE",
"727 766 QCURVE SMOOTH",
"1080 695 OFFCURVE",
"1362 538 OFFCURVE",
"1328 348 QCURVE SMOOTH",
"1297 170 OFFCURVE",
"950 -24 OFFCURVE",
"603 -24 QCURVE SMOOTH",
"256 -24 OFFCURVE",
"-31 166 OFFCURVE",
"-19 381 QCURVE SMOOTH"
);
}
);
width = 1436;
}
);
leftKerningGroup = S_UC;
rightKerningGroup = S_UC;
unicode = 0053;
},
{
glyphname = T;
layers = (
{
layerId = "35AD4BD0-1826-4A50-BA60-0A633C86B791";
paths = (
{
closed = 1;
nodes = (
"150 1456 LINE",
"1510 1456 LINE",
"1508 1446 LINE",
"833 1446 LINE",
"578 0 LINE",
"568 0 LINE",
"823 1446 LINE",
"148 1446 LINE"
);
}
);
width = 1404;
}
);
leftKerningGroup = T_UC;
rightKerningGroup = T_UC;
unicode = 0054;
},
{
glyphname = U;
layers = (
{
layerId = "35AD4BD0-1826-4A50-BA60-0A633C86B791";
paths = (
{
closed = 1;
nodes = (
"348 1456 LINE",
"358 1456 LINE",
"190 502 LINE SMOOTH",
"143 238 OFFCURVE",
"471 -14 OFFCURVE",
"782 -14 QCURVE SMOOTH",
"1109 -14 OFFCURVE",
"1470 245 OFFCURVE",
"1516 502 QCURVE SMOOTH",
"1684 1456 LINE",
"1694 1456 LINE",
"1527 510 LINE SMOOTH",
"1479 240 OFFCURVE",
"1112 -24 OFFCURVE",
"780 -24 QCURVE SMOOTH",
"463 -24 OFFCURVE",
"131 229 OFFCURVE",
"181 511 QCURVE SMOOTH"
);
}
);
width = 1786;
}
);
leftKerningGroup = U_UC;
rightKerningGroup = JU_UC;
unicode = 0055;
},
{
glyphname = V;
layers = (
{
layerId = "35AD4BD0-1826-4A50-BA60-0A633C86B791";
paths = (
{
closed = 1;
nodes = (
"139 1456 LINE",
"584 99 LINE SMOOTH",
"591 79 OFFCURVE",
"608 29 OFFCURVE",
"614 10 QCURVE",
"614 10 LINE",
"625 29 OFFCURVE",
"659 77 OFFCURVE",
"672 97 QCURVE SMOOTH",
"1603 1456 LINE",
"1614 1456 LINE",
"613 -9 LINE",
"608 -9 LINE",
"128 1456 LINE"
);
}
);
width = 1486;
}
);
unicode = 0056;
},
{
glyphname = W;
layers = (
{
layerId = "35AD4BD0-1826-4A50-BA60-0A633C86B791";
paths = (
{
closed = 1;
nodes = (
"168 1456 LINE",
"178 1456 LINE",
"476 32 LINE SMOOTH",
"477 24 OFFCURVE",
"480 10 OFFCURVE",
"480 6 QCURVE",
"480 6 LINE",
"482 10 OFFCURVE",
"488 24 OFFCURVE",
"493 32 QCURVE SMOOTH",
"1235 1456 LINE",
"1242 1456 LINE",
"1523 37 LINE SMOOTH",
"1524 28 OFFCURVE",
"1526 8 OFFCURVE",
"1527 4 QCURVE",
"1527 4 LINE",
"1528 8 OFFCURVE",
"1538 28 OFFCURVE",
"1543 37 QCURVE SMOOTH",
"2299 1456 LINE",
"2310 1456 LINE",
"1529 -8 LINE",
"1522 -8 LINE",
"1238 1422 LINE SMOOTH",
"1236 1430 OFFCURVE",
"1235 1442 OFFCURVE",
"1236 1444 QCURVE",
"1236 1444 LINE",
"1235 1442 OFFCURVE",
"1230 1430 OFFCURVE",
"1226 1422 QCURVE SMOOTH",
"480 -8 LINE",
"475 -8 LINE"
);
}
);
width = 2222;
}
);
leftKerningGroup = W_UC;
rightKerningGroup = W_UC;
unicode = 0057;
},
{
glyphname = X;
layers = (
{
layerId = "35AD4BD0-1826-4A50-BA60-0A633C86B791";
paths = (
{
closed = 1;
nodes = (
"628 743 LINE",
"630 745 LINE",
"1375 1456 LINE",
"1387 1456 LINE",
"635 738 LINE",
"633 736 LINE",
"-137 0 LINE",
"-149 0 LINE"
);
},
{
closed = 1;
nodes = (
"145 1456 LINE",
"635 745 LINE",
"637 743 LINE",
"1150 0 LINE",
"1137 0 LINE",
"629 736 LINE",
"627 738 LINE",
"132 1456 LINE"
);
}
);
width = 1259;
}
);
unicode = 0058;
},
{
glyphname = Y;
layers = (
{
layerId = "35AD4BD0-1826-4A50-BA60-0A633C86B791";
paths = (
{
closed = 1;
nodes = (
"652 567 LINE",
"128 1456 LINE",
"140 1456 LINE",
"617 647 LINE SMOOTH",
"630 625 OFFCURVE",
"659 578 OFFCURVE",
"659 576 QCURVE",
"660 576 LINE",
"660 578 OFFCURVE",
"704 625 OFFCURVE",
"725 647 QCURVE SMOOTH",
"1487 1456 LINE",
"1499 1456 LINE",
"662 567 LINE",
"562 0 LINE",
"552 0 LINE"
);
}
);
width = 1371;
}
);
leftKerningGroup = Y_UC;
rightKerningGroup = Y_UC;
unicode = 0059;
},
{
glyphname = Z;
layers = (
{
layerId = "35AD4BD0-1826-4A50-BA60-0A633C86B791";
paths = (
{
closed = 1;
nodes = (
"-111 10 LINE",
"1507 1446 LINE",
"165 1446 LINE",
"167 1456 LINE",
"1518 1456 LINE",
"1515 1441 LINE",
"-97 10 LINE",
"1287 10 LINE",
"1285 0 LINE",
"-113 0 LINE"
);
}
);
width = 1430;
}
);
leftKerningGroup = Z_UC;
rightKerningGroup = Z_UC;
unicode = 005A;
},
{
glyphname = AE;
layers = (
{
layerId = "35AD4BD0-1826-4A50-BA60-0A633C86B791";
paths = (
{
closed = 1;
nodes = (
"402 528 LINE",
"1035 528 LINE",
"1035 353 LINE",
"302 353 LINE"
);
},
{
closed = 1;
nodes = (
"866 1456 LINE",
"1836 1456 LINE",
"1836 1298 LINE",
"1122 1298 LINE",
"1122 830 LINE",
"1744 830 LINE",
"1744 672 LINE",
"1122 672 LINE",
"1122 158 LINE",
"1846 158 LINE",
"1846 0 LINE",
"930 0 LINE",
"930 1238 LINE",
"212 0 LINE",
"-15 0 LINE"
);
}
);
width = 1914;
}
);
leftKerningGroup = AE_UC;
rightKerningGroup = E_UC;
unicode = 00C6;
},
{
glyphname = Thorn;
layers = (
{
guideLines = (
{
position = "{0, 901}";
},
{
position = "{0, 555}";
}
);
layerId = "35AD4BD0-1826-4A50-BA60-0A633C86B791";
paths = (
{
closed = 1;
nodes = (
"355 1456 LINE",
"355 1163 LINE",
"633 1163 LINE SMOOTH",
"868 1163 OFFCURVE",
"1120 935 OFFCURVE",
"1120 738 QCURVE SMOOTH",
"1120 541 OFFCURVE",
"868 314 OFFCURVE",
"633 314 QCURVE SMOOTH",
"355 314 LINE",
"355 0 LINE",
"170 0 LINE",
"170 1456 LINE"
);
},
{
closed = 1;
nodes = (
"355 1012 LINE",
"355 465 LINE",
"633 465 LINE SMOOTH",
"793 465 OFFCURVE",
"935 604 OFFCURVE",
"935 736 QCURVE SMOOTH",
"935 868 OFFCURVE",
"793 1012 OFFCURVE",
"633 1012 QCURVE SMOOTH"
);
}
);
width = 1170;
}
);
leftKerningGroup = StraightRight_UC;
unicode = 00DE;
userData = {
com.typemytype.robofont.guideline.magnetic.T8KKW8oxop = 5;
com.typemytype.robofont.guideline.magnetic.i9jYwjBDP4 = 5;
};
},
{
glyphname = OE;
layers = (
{
layerId = "35AD4BD0-1826-4A50-BA60-0A633C86B791";
paths = (
{
closed = 1;
nodes = (
"746 1477 OFFCURVE",
"897 1464 OFFCURVE",
"964 1456 QCURVE",
"1801 1456 LINE",
"1801 1298 LINE",
"1079 1298 LINE",
"1079 830 LINE",
"1709 830 LINE",
"1709 673 LINE",
"1079 673 LINE",
"1079 157 LINE",
"1811 157 LINE",
"1811 0 LINE",
"964 0 LINE",
"897 -7 OFFCURVE",
"748 -21 OFFCURVE",
"672 -21 QCURVE SMOOTH",
"458 -21 OFFCURVE",
"115 340 OFFCURVE",
"115 682 QCURVE SMOOTH",
"115 772 LINE SMOOTH",
"115 1105 OFFCURVE",
"455 1477 OFFCURVE",
"713 1477 QCURVE SMOOTH"
);
},
{
closed = 1;
nodes = (
"310 418 OFFCURVE",
"543 128 OFFCURVE",
"715 128 QCURVE SMOOTH",
"768 128 OFFCURVE",
"848 137 OFFCURVE",
"886 143 QCURVE",
"886 1310 LINE",
"834 1317 OFFCURVE",
"739 1325 OFFCURVE",
"717 1325 QCURVE SMOOTH",
"540 1325 OFFCURVE",
"310 1030 OFFCURVE",
"310 774 QCURVE SMOOTH",
"310 682 LINE SMOOTH"
);
}
);
width = 1879;
}
);
leftKerningGroup = CG_UC;
rightKerningGroup = E_UC;
unicode = 0152;
},
{
glyphname = Schwa;
layers = (
{
layerId = "35AD4BD0-1826-4A50-BA60-0A633C86B791";
paths = (
{
closed = 1;
nodes = (
"162 1356 OFFCURVE",
"452 1519 OFFCURVE",
"669 1519 QCURVE SMOOTH",
"1002 1519 OFFCURVE",
"1366 1094 OFFCURVE",
"1366 789 QCURVE SMOOTH",
"1366 445 OFFCURVE",
"982 -30 OFFCURVE",
"692 -30 QCURVE SMOOTH",
"416 -30 OFFCURVE",
"102 281 OFFCURVE",
"102 578 QCURVE SMOOTH",
"102 686 LINE",
"1228 686 LINE",
"1228 554 LINE",
"665 562 LINE",
"298 556 LINE",
"298 481 LINE SMOOTH",
"298 315 OFFCURVE",
"503 97 OFFCURVE",
"702 97 QCURVE SMOOTH",
"912 97 OFFCURVE",
"1177 462 OFFCURVE",
"1175 749 QCURVE SMOOTH",
"1173 1047 OFFCURVE",
"860 1375 OFFCURVE",
"651 1375 QCURVE SMOOTH",
"469 1375 OFFCURVE",
"218 1234 OFFCURVE",
"157 1126 QCURVE",
"64 1199 LINE"
);
}
);
width = 1446;
}
);
rightKerningGroup = D_UC;
unicode = 018F;
},
{
glyphname = Germandbls;
layers = (
{
layerId = "35AD4BD0-1826-4A50-BA60-0A633C86B791";
paths = (
{
closed = 1;
nodes = (
"178 1267 OFFCURVE",
"399 1510 OFFCURVE",
"611 1510 QCURVE SMOOTH",
"837 1510 OFFCURVE",
"1019 1347 OFFCURVE",
"1019 1244 QCURVE SMOOTH",
"1019 1142 OFFCURVE",
"916 1010 OFFCURVE",
"856 966 QCURVE SMOOTH",
"805 929 OFFCURVE",
"750 881 OFFCURVE",
"750 861 QCURVE SMOOTH",
"750 841 OFFCURVE",
"816 805 OFFCURVE",
"1006 736 QCURVE SMOOTH",
"1199 666 OFFCURVE",
"1369 486 OFFCURVE",
"1369 336 QCURVE SMOOTH",
"1369 190 OFFCURVE",
"1126 -30 OFFCURVE",
"940 -30 QCURVE SMOOTH",
"700 -30 OFFCURVE",
"465 152 OFFCURVE",
"465 338 QCURVE SMOOTH",
"465 350 LINE",
"668 350 LINE",
"668 338 LINE SMOOTH",
"668 238 OFFCURVE",
"793 135 OFFCURVE",
"929 135 QCURVE SMOOTH",
"1034 135 OFFCURVE",
"1172 241 OFFCURVE",
"1172 330 QCURVE SMOOTH",
"1172 427 OFFCURVE",
"1040 521 OFFCURVE",
"869 584 QCURVE SMOOTH",
"641 668 OFFCURVE",
"524 760 OFFCURVE",
"524 831 QCURVE SMOOTH",
"524 904 OFFCURVE",
"598 989 OFFCURVE",
"692 1056 QCURVE SMOOTH",
"762 1106 OFFCURVE",
"824 1172 OFFCURVE",
"824 1229 QCURVE SMOOTH",
"824 1284 OFFCURVE",
"722 1348 OFFCURVE",
"617 1348 QCURVE SMOOTH",
"496 1348 OFFCURVE",
"370 1198 OFFCURVE",
"370 1036 QCURVE SMOOTH",
"370 355 LINE SMOOTH",
"370 184 OFFCURVE",
"203 -16 OFFCURVE",
"68 -16 QCURVE SMOOTH",
"55 -16 OFFCURVE",
"28 -14 OFFCURVE",
"15 -12 QCURVE",
"13 172 LINE",
"22 169 OFFCURVE",
"41 167 OFFCURVE",
"50 167 QCURVE SMOOTH",
"110 167 OFFCURVE",
"178 264 OFFCURVE",
"178 355 QCURVE SMOOTH",
"178 1066 LINE SMOOTH"
);
}
);
width = 1449;
}
);
unicode = 1E9E;
},
{
glyphname = micro;
layers = (
{
layerId = "35AD4BD0-1826-4A50-BA60-0A633C86B791";
paths = (
{
closed = 1;
nodes = (
"428 1052 LINE",
"296 371 LINE SMOOTH",
"271 245 OFFCURVE",
"363 136 OFFCURVE",
"467 136 QCURVE SMOOTH",
"556 136 OFFCURVE",
"711 232 OFFCURVE",
"764 308 QCURVE",
"908 1052 LINE",
"1094 1052 LINE",
"890 0 LINE",
"722 0 LINE",
"740 135 LINE",
"734 135 LINE",
"663 63 OFFCURVE",
"482 -20 OFFCURVE",
"382 -20 QCURVE SMOOTH",
"336 -20 OFFCURVE",
"261 15 OFFCURVE",
"232 42 QCURVE",
"144 -416 LINE",
"-42 -416 LINE",
"242 1052 LINE"
);
}
);
width = 1198;
}
);
unicode = 00B5;
},
{
glyphname = a;
layers = (
{
layerId = "35AD4BD0-1826-4A50-BA60-0A633C86B791";
paths = (
{
closed = 1;
nodes = (
"-30 387 OFFCURVE",
"206 522 OFFCURVE",
"389 522 QCURVE SMOOTH",
"902 522 LINE",
"922 635 LINE SMOOTH",
"951 800 OFFCURVE",
"786 935 OFFCURVE",
"564 935 QCURVE SMOOTH",
"362 935 OFFCURVE",
"124 789 OFFCURVE",
"103 667 QCURVE SMOOTH",
"97 633 LINE",
"88 633 LINE",
"96 678 LINE SMOOTH",
"116 793 OFFCURVE",
"358 944 OFFCURVE",
"566 944 QCURVE SMOOTH",
"792 944 OFFCURVE",
"961 803 OFFCURVE",
"932 643 QCURVE SMOOTH",
"861 240 LINE SMOOTH",
"848 166 OFFCURVE",
"843 36 OFFCURVE",
"854 3 QCURVE",
"853 0 LINE",
"844 0 LINE",
"834 36 OFFCURVE",
"838 154 OFFCURVE",
"857 268 QCURVE",
"820 154 OFFCURVE",
"501 -30 OFFCURVE",
"304 -30 QCURVE SMOOTH",
"107 -30 OFFCURVE",
"-75 132 OFFCURVE",
"-53 258 QCURVE SMOOTH"
);
},
{
closed = 1;
nodes = (
"-63 138 OFFCURVE",
"112 -21 OFFCURVE",
"304 -21 QCURVE SMOOTH",
"503 -21 OFFCURVE",
"842 181 OFFCURVE",
"868 330 QCURVE SMOOTH",
"900 513 LINE",
"394 513 LINE SMOOTH",
"210 513 OFFCURVE",
"-20 381 OFFCURVE",
"-42 258 QCURVE SMOOTH"
);
}
);
width = 1121;
}
);
leftKerningGroup = a_LC;
rightKerningGroup = a_LC;
unicode = 0061;
},
{
glyphname = b;
layers = (
{
layerId = "35AD4BD0-1826-4A50-BA60-0A633C86B791";
paths = (
{
closed = 1;
nodes = (
"321 1456 LINE",
"330 1456 LINE",
"207 760 LINE",
"271 823 OFFCURVE",
"540 944 OFFCURVE",
"745 944 QCURVE SMOOTH",
"982 944 OFFCURVE",
"1218 691 OFFCURVE",
"1177 461 QCURVE SMOOTH",
"1176 454 LINE SMOOTH",
"1134 216 OFFCURVE",
"787 -30 OFFCURVE",
"534 -30 QCURVE SMOOTH",
"362 -30 OFFCURVE",
"127 111 OFFCURVE",
"101 161 QCURVE",
"101 161 LINE",
"73 0 LINE",
"64 0 LINE"
);
},
{
closed = 1;
nodes = (
"135 117 OFFCURVE",
"368 -21 OFFCURVE",
"535 -21 QCURVE SMOOTH",
"779 -21 OFFCURVE",
"1124 221 OFFCURVE",
"1165 456 QCURVE SMOOTH",
"1166 459 LINE SMOOTH",
"1205 683 OFFCURVE",
"974 935 OFFCURVE",
"744 935 QCURVE SMOOTH",
"545 935 OFFCURVE",
"273 814 OFFCURVE",
"205 747 QCURVE",
"104 175 LINE"
);
}
);
width = 1305;
}
);
leftKerningGroup = bhk_LC;
rightKerningGroup = b_LC;
unicode = 0062;
},
{
glyphname = c;
layers = (
{
layerId = "35AD4BD0-1826-4A50-BA60-0A633C86B791";
paths = (
{
closed = 1;
nodes = (
"33 464 LINE SMOOTH",
"73 690 OFFCURVE",
"420 944 OFFCURVE",
"682 944 QCURVE SMOOTH",
"942 944 OFFCURVE",
"1142 750 OFFCURVE",
"1117 605 QCURVE SMOOTH",
"1114 588 LINE",
"1104 588 LINE",
"1106 603 LINE SMOOTH",
"1132 746 OFFCURVE",
"934 935 OFFCURVE",
"681 935 QCURVE SMOOTH",
"426 935 OFFCURVE",
"82 683 OFFCURVE",
"43 461 QCURVE SMOOTH",
"42 454 LINE SMOOTH",
"2 225 OFFCURVE",
"265 -21 OFFCURVE",
"512 -21 QCURVE SMOOTH",
"767 -21 OFFCURVE",
"1018 167 OFFCURVE",
"1055 302 QCURVE SMOOTH",
"1061 322 LINE",
"1071 322 LINE",
"1065 300 LINE SMOOTH",
"1027 159 OFFCURVE",
"766 -30 OFFCURVE",
"512 -30 QCURVE SMOOTH",
"258 -30 OFFCURVE",
"-11 218 OFFCURVE",
"31 453 QCURVE SMOOTH"
);
}
);
width = 1185;
}
);
leftKerningGroup = alpha;
rightKerningGroup = c_LC;
unicode = 0063;
},
{
glyphname = d;
layers = (
{
layerId = "35AD4BD0-1826-4A50-BA60-0A633C86B791";
paths = (
{
closed = 1;
nodes = (
"32 461 LINE SMOOTH",
"73 691 OFFCURVE",
"397 944 OFFCURVE",
"634 944 QCURVE SMOOTH",
"839 944 OFFCURVE",
"1066 823 OFFCURVE",
"1108 760 QCURVE",
"1231 1456 LINE",
"1240 1456 LINE",
"983 0 LINE",
"974 0 LINE",
"1002 161 LINE",
"1002 161 LINE",
"960 111 OFFCURVE",
"675 -30 OFFCURVE",
"503 -30 QCURVE SMOOTH",
"250 -30 OFFCURVE",
"-11 216 OFFCURVE",
"31 454 QCURVE SMOOTH"
);
},
{
closed = 1;
nodes = (
"1 221 OFFCURVE",
"260 -21 OFFCURVE",
"504 -21 QCURVE SMOOTH",
"671 -21 OFFCURVE",
"954 117 OFFCURVE",
"1005 175 QCURVE",
"1106 747 LINE",
"1062 814 OFFCURVE",
"832 935 OFFCURVE",
"633 935 QCURVE SMOOTH",
"403 935 OFFCURVE",
"82 682 OFFCURVE",
"43 459 QCURVE SMOOTH",
"42 456 LINE SMOOTH"
);
}
);
width = 1306;
}
);
leftKerningGroup = alpha;
unicode = 0064;
},
{
glyphname = e;
layers = (
{
layerId = "35AD4BD0-1826-4A50-BA60-0A633C86B791";
paths = (
{
closed = 1;
nodes = (
"33 463 LINE SMOOTH",
"74 695 OFFCURVE",
"418 944 OFFCURVE",
"681 944 QCURVE SMOOTH",
"934 944 OFFCURVE",
"1149 719 OFFCURVE",
"1122 569 QCURVE SMOOTH",
"1114 523 LINE",
"54 523 LINE",
"56 532 LINE",
"1106 532 LINE",
"1114 578 LINE SMOOTH",
"1137 711 OFFCURVE",
"939 935 OFFCURVE",
"680 935 QCURVE SMOOTH",
"415 935 OFFCURVE",
"83 685 OFFCURVE",
"43 460 QCURVE SMOOTH",
"42 454 LINE SMOOTH",
"1 221 OFFCURVE",
"262 -21 OFFCURVE",
"490 -21 QCURVE SMOOTH",
"714 -21 OFFCURVE",
"971 92 OFFCURVE",
"1029 150 QCURVE",
"1035 144 LINE",
"971 82 OFFCURVE",
"717 -30 OFFCURVE",
"489 -30 QCURVE SMOOTH",
"254 -30 OFFCURVE",
"-11 213 OFFCURVE",
"31 455 QCURVE SMOOTH"
);
}
);
width = 1187;
}
);
leftKerningGroup = alpha;
rightKerningGroup = e_LC;
unicode = 0065;
},
{
glyphname = f;
layers = (
{
layerId = "35AD4BD0-1826-4A50-BA60-0A633C86B791";
paths = (
{
closed = 1;
nodes = (
"295 1149 LINE SMOOTH",
"325 1324 OFFCURVE",
"497 1478 OFFCURVE",
"631 1478 QCURVE SMOOTH",
"659 1478 OFFCURVE",
"712 1469 OFFCURVE",
"724 1465 QCURVE",
"720 1455 LINE",
"709 1459 OFFCURVE",
"654 1469 OFFCURVE",
"628 1469 QCURVE SMOOTH",
"499 1469 OFFCURVE",
"333 1317 OFFCURVE",
"302 1139 QCURVE SMOOTH",
"262 911 LINE",
"261 908 LINE",
"101 0 LINE",
"92 0 LINE"
);
},
{
closed = 1;
nodes = (
"16 914 LINE",
"257 914 LINE",
"260 914 LINE",
"544 914 LINE",
"543 905 LINE",
"15 905 LINE"
);
}
);
width = 469;
}
);
leftKerningGroup = f_LC;
rightKerningGroup = f_LC;
unicode = 0066;
},
{
glyphname = g;
layers = (
{
layerId = "35AD4BD0-1826-4A50-BA60-0A633C86B791";
paths = (
{
closed = 1;
nodes = (
"6 -289 LINE",
"51 -335 OFFCURVE",
"275 -411 OFFCURVE",
"420 -411 QCURVE SMOOTH",
"631 -411 OFFCURVE",
"940 -193 OFFCURVE",
"985 60 QCURVE SMOOTH",
"1002 161 LINE",
"960 111 OFFCURVE",
"675 -30 OFFCURVE",
"503 -30 QCURVE SMOOTH",
"250 -30 OFFCURVE",
"-11 216 OFFCURVE",
"31 454 QCURVE SMOOTH",
"32 461 LINE SMOOTH",
"73 691 OFFCURVE",
"397 944 OFFCURVE",
"634 944 QCURVE SMOOTH",
"839 944 OFFCURVE",
"1066 823 OFFCURVE",
"1108 760 QCURVE",
"1108 760 LINE",
"1135 914 LINE",
"1144 914 LINE",
"991 48 LINE SMOOTH",
"948 -199 OFFCURVE",
"632 -421 OFFCURVE",
"417 -421 QCURVE SMOOTH",
"272 -421 OFFCURVE",
"44 -347 OFFCURVE",
"-4 -300 QCURVE"
);
},
{
closed = 1;
nodes = (
"1 220 OFFCURVE",
"260 -21 OFFCURVE",
"504 -21 QCURVE SMOOTH",
"671 -21 OFFCURVE",
"954 117 OFFCURVE",
"1005 175 QCURVE",
"1106 747 LINE",
"1062 814 OFFCURVE",
"832 935 OFFCURVE",
"633 935 QCURVE SMOOTH",
"403 935 OFFCURVE",
"82 681 OFFCURVE",
"43 459 QCURVE SMOOTH",
"42 456 LINE SMOOTH"
);
}
);
width = 1306;
}
);
leftKerningGroup = alpha;
unicode = 0067;
},
{
glyphname = h;
layers = (
{
layerId = "35AD4BD0-1826-4A50-BA60-0A633C86B791";
paths = (
{
closed = 1;
nodes = (
"321 1456 LINE",
"330 1456 LINE",
"196 699 LINE",
"257 770 OFFCURVE",
"548 947 OFFCURVE",
"745 947 QCURVE SMOOTH",
"956 947 OFFCURVE",
"1115 760 OFFCURVE",
"1089 610 QCURVE SMOOTH",
"981 0 LINE",
"972 0 LINE",
"1078 602 LINE SMOOTH",
"1104 749 OFFCURVE",
"951 937 OFFCURVE",
"743 937 QCURVE SMOOTH",
"551 937 OFFCURVE",
"262 764 OFFCURVE",
"193 682 QCURVE",
"73 0 LINE",
"64 0 LINE"
);
}
);
width = 1283;
}
);
leftKerningGroup = bhk_LC;
rightKerningGroup = hmn_LC;
unicode = 0068;
},
{
glyphname = i;
layers = (
{
layerId = "35AD4BD0-1826-4A50-BA60-0A633C86B791";
paths = (
{
closed = 1;
nodes = (
"225 914 LINE",
"234 914 LINE",
"73 0 LINE",
"64 0 LINE"
);
},
{
closed = 1;
nodes = (
"262 1275 OFFCURVE",
"276 1287 OFFCURVE",
"289 1287 QCURVE SMOOTH",
"301 1286 OFFCURVE",
"314 1272 OFFCURVE",
"314 1261 QCURVE SMOOTH",
"314 1250 OFFCURVE",
"299 1236 OFFCURVE",
"286 1236 QCURVE SMOOTH",
"273 1236 OFFCURVE",
"261 1252 OFFCURVE",
"262 1263 QCURVE SMOOTH"
);
}
);
width = 395;
}
);
leftKerningGroup = i_LC;
rightKerningGroup = i_LC;
unicode = 0069;
},
{
glyphname = j;
layers = (
{
layerId = "35AD4BD0-1826-4A50-BA60-0A633C86B791";
paths = (
{
closed = 1;
nodes = (
"-347 -390 LINE",
"-319 -407 OFFCURVE",
"-246 -426 OFFCURVE",
"-191 -426 QCURVE SMOOTH",
"-104 -426 OFFCURVE",
"31 -302 OFFCURVE",
"58 -146 QCURVE SMOOTH",
"245 914 LINE",
"254 914 LINE",
"65 -156 LINE SMOOTH",
"39 -309 OFFCURVE",
"-101 -436 OFFCURVE",
"-192 -436 QCURVE SMOOTH",
"-250 -436 OFFCURVE",
"-325 -416 OFFCURVE",
"-349 -403 QCURVE"
);
},
{
closed = 1;
nodes = (
"287 1275 OFFCURVE",
"302 1287 OFFCURVE",
"315 1287 QCURVE SMOOTH",
"328 1287 OFFCURVE",
"340 1272 OFFCURVE",
"340 1261 QCURVE SMOOTH",
"339 1250 OFFCURVE",
"326 1236 OFFCURVE",
"312 1236 QCURVE SMOOTH",
"299 1236 OFFCURVE",
"286 1252 OFFCURVE",
"287 1263 QCURVE SMOOTH"
);
}
);
width = 411;
}
);
rightKerningGroup = j_LC;
unicode = 006A;
},
{
glyphname = k;
layers = (
{
layerId = "35AD4BD0-1826-4A50-BA60-0A633C86B791";
paths = (
{
closed = 1;
nodes = (
"321 1458 LINE",
"330 1458 LINE",
"126 300 LINE",
"994 914 LINE",
"1008 914 LINE",
"124 288 LINE",
"73 0 LINE",
"64 0 LINE"
);
},
{
closed = 1;
nodes = (
"496 556 LINE",
"504 562 LINE",
"969 0 LINE",
"956 0 LINE"
);
}
);
width = 1059;
}
);
leftKerningGroup = bhk_LC;
rightKerningGroup = k_LC;
unicode = 006B;
},
{
glyphname = l;
layers = (
{
layerId = "35AD4BD0-1826-4A50-BA60-0A633C86B791";
paths = (
{
closed = 1;
nodes = (
"324 1458 LINE",
"333 1458 LINE",
"76 0 LINE",
"67 0 LINE"
);
}
);
width = 401;
}
);
leftKerningGroup = bhk_LC;
rightKerningGroup = l_LC;
unicode = 006C;
},
{
glyphname = m;
layers = (
{
layerId = "35AD4BD0-1826-4A50-BA60-0A633C86B791";
paths = (
{
closed = 1;
nodes = (
"225 914 LINE",
"234 914 LINE",
"196 699 LINE",
"196 699 LINE",
"253 779 OFFCURVE",
"514 947 OFFCURVE",
"671 947 QCURVE SMOOTH",
"829 947 OFFCURVE",
"984 788 OFFCURVE",
"976 703 QCURVE",
"976 703 LINE",
"1010 767 OFFCURVE",
"1258 947 OFFCURVE",
"1424 947 QCURVE SMOOTH",
"1605 947 OFFCURVE",
"1777 749 OFFCURVE",
"1753 611 QCURVE SMOOTH",
"1645 0 LINE",
"1636 0 LINE",
"1741 594 LINE SMOOTH",
"1766 738 OFFCURVE",
"1595 939 OFFCURVE",
"1423 939 QCURVE SMOOTH",
"1266 939 OFFCURVE",
"1023 770 OFFCURVE",
"982 697 QCURVE",
"859 0 LINE",
"850 0 LINE",
"962 638 LINE SMOOTH",
"986 774 OFFCURVE",
"822 939 OFFCURVE",
"670 939 QCURVE SMOOTH",
"520 939 OFFCURVE",
"256 774 OFFCURVE",
"193 683 QCURVE",
"73 0 LINE",
"64 0 LINE"
);
}
);
width = 1947;
}
);
leftKerningGroup = mnpr_LC;
rightKerningGroup = hmn_LC;
unicode = 006D;
},
{
glyphname = n;
layers = (
{
layerId = "35AD4BD0-1826-4A50-BA60-0A633C86B791";
paths = (
{
closed = 1;
nodes = (
"225 914 LINE",
"234 914 LINE",
"196 699 LINE",
"196 699 LINE",
"257 770 OFFCURVE",
"548 947 OFFCURVE",
"745 947 QCURVE SMOOTH",
"956 947 OFFCURVE",
"1115 760 OFFCURVE",
"1089 610 QCURVE SMOOTH",
"981 0 LINE",
"972 0 LINE",
"1078 602 LINE SMOOTH",
"1104 749 OFFCURVE",
"951 937 OFFCURVE",
"743 937 QCURVE SMOOTH",
"551 937 OFFCURVE",
"262 764 OFFCURVE",
"193 682 QCURVE",
"73 0 LINE",
"64 0 LINE"
);
}
);
width = 1283;
}
);
leftKerningGroup = mnpr_LC;
rightKerningGroup = hmn_LC;
unicode = 006E;
},
{
glyphname = o;
layers = (
{
layerId = "35AD4BD0-1826-4A50-BA60-0A633C86B791";
paths = (
{
closed = 1;
nodes = (
"33 463 LINE SMOOTH",
"73 691 OFFCURVE",
"420 944 OFFCURVE",
"682 944 QCURVE SMOOTH",
"947 944 OFFCURVE",
"1204 691 OFFCURVE",
"1163 461 QCURVE SMOOTH",
"1161 446 LINE SMOOTH",
"1120 216 OFFCURVE",
"764 -30 OFFCURVE",
"511 -30 QCURVE SMOOTH",
"258 -30 OFFCURVE",
"-11 218 OFFCURVE",
"31 452 QCURVE SMOOTH"
);
},
{
closed = 1;
nodes = (
"42 454 LINE SMOOTH",
"2 225 OFFCURVE",
"265 -21 OFFCURVE",
"513 -21 QCURVE SMOOTH",
"756 -21 OFFCURVE",
"1110 222 OFFCURVE",
"1150 450 QCURVE SMOOTH",
"1152 457 LINE SMOOTH",
"1191 681 OFFCURVE",
"937 935 OFFCURVE",
"681 935 QCURVE SMOOTH",
"426 935 OFFCURVE",
"82 681 OFFCURVE",
"43 460 QCURVE SMOOTH"
);
}
);
width = 1291;
}
);
leftKerningGroup = o_LC;
rightKerningGroup = o_LC;
unicode = 006F;
},
{
glyphname = p;
layers = (
{
layerId = "35AD4BD0-1826-4A50-BA60-0A633C86B791";
paths = (
{
closed = 1;
nodes = (
"225 914 LINE",
"234 914 LINE",
"207 760 LINE",
"207 760 LINE",
"271 823 OFFCURVE",
"527 944 OFFCURVE",
"732 944 QCURVE SMOOTH",
"969 944 OFFCURVE",
"1218 691 OFFCURVE",
"1177 461 QCURVE SMOOTH",
"1176 454 LINE SMOOTH",
"1134 216 OFFCURVE",
"787 -30 OFFCURVE",
"534 -30 QCURVE SMOOTH",
"362 -30 OFFCURVE",
"127 111 OFFCURVE",
"101 161 QCURVE",
"0 -416 LINE",
"-9 -416 LINE"
);
},
{
closed = 1;
nodes = (
"135 117 OFFCURVE",
"368 -21 OFFCURVE",
"535 -21 QCURVE SMOOTH",
"779 -21 OFFCURVE",
"1124 221 OFFCURVE",
"1165 456 QCURVE SMOOTH",
"1166 459 LINE SMOOTH",
"1205 682 OFFCURVE",
"961 935 OFFCURVE",
"731 935 QCURVE SMOOTH",
"532 935 OFFCURVE",
"273 814 OFFCURVE",
"205 747 QCURVE",
"104 175 LINE"
);
}
);
width = 1305;
}
);
leftKerningGroup = mnpr_LC;
rightKerningGroup = b_LC;
unicode = 0070;
},
{
glyphname = q;
layers = (
{
layerId = "35AD4BD0-1826-4A50-BA60-0A633C86B791";
paths = (
{
closed = 1;
nodes = (
"32 461 LINE SMOOTH",
"73 691 OFFCURVE",
"387 944 OFFCURVE",
"624 944 QCURVE SMOOTH",
"829 944 OFFCURVE",
"1066 823 OFFCURVE",
"1108 760 QCURVE",
"1108 760 LINE",
"1135 914 LINE",
"1144 914 LINE",
"910 -414 LINE",
"901 -414 LINE",
"1002 161 LINE",
"1002 161 LINE",
"960 111 OFFCURVE",
"675 -30 OFFCURVE",
"503 -30 QCURVE SMOOTH",
"250 -30 OFFCURVE",
"-11 216 OFFCURVE",
"31 454 QCURVE SMOOTH"
);
},
{
closed = 1;
nodes = (
"1 221 OFFCURVE",
"260 -21 OFFCURVE",
"504 -21 QCURVE SMOOTH",
"671 -21 OFFCURVE",
"954 117 OFFCURVE",
"1005 175 QCURVE",
"1106 747 LINE",
"1062 814 OFFCURVE",
"832 935 OFFCURVE",
"633 935 QCURVE SMOOTH",
"403 935 OFFCURVE",
"82 682 OFFCURVE",
"43 459 QCURVE SMOOTH",
"42 456 LINE SMOOTH"
);
}
);
width = 1305;
}
);
leftKerningGroup = alpha;
unicode = 0071;
},
{
glyphname = r;
layers = (
{
layerId = "35AD4BD0-1826-4A50-BA60-0A633C86B791";
paths = (
{
closed = 1;
nodes = (
"225 914 LINE",
"234 914 LINE",
"196 700 LINE",
"196 700 LINE",
"257 773 OFFCURVE",
"548 947 OFFCURVE",
"707 947 QCURVE SMOOTH",
"802 947 OFFCURVE",
"888 920 OFFCURVE",
"907 908 QCURVE",
"905 896 LINE",
"884 910 OFFCURVE",
"797 937 OFFCURVE",
"706 937 QCURVE SMOOTH",
"551 937 OFFCURVE",
"262 767 OFFCURVE",
"194 685 QCURVE",
"73 0 LINE",
"64 0 LINE"
);
}
);
width = 904;
}
);
leftKerningGroup = mnpr_LC;
rightKerningGroup = r_LC;
unicode = 0072;
},
{
glyphname = s;
layers = (
{
layerId = "35AD4BD0-1826-4A50-BA60-0A633C86B791";
paths = (
{
closed = 1;
nodes = (
"33 306 LINE",
"32 298 LINE SMOOTH",
"1 122 OFFCURVE",
"232 -20 OFFCURVE",
"478 -21 QCURVE SMOOTH",
"725 -22 OFFCURVE",
"993 129 OFFCURVE",
"1013 245 QCURVE SMOOTH",
"1034 363 OFFCURVE",
"875 467 OFFCURVE",
"565 497 QCURVE SMOOTH",
"253 527 OFFCURVE",
"96 616 OFFCURVE",
"113 714 QCURVE SMOOTH",
"132 823 OFFCURVE",
"392 944 OFFCURVE",
"619 944 QCURVE SMOOTH",
"846 944 OFFCURVE",
"1076 814 OFFCURVE",
"1049 662 QCURVE SMOOTH",
"1044 637 LINE",
"1035 637 LINE",
"1038 654 LINE SMOOTH",
"1065 808 OFFCURVE",
"842 935 OFFCURVE",
"618 935 QCURVE SMOOTH",
"395 935 OFFCURVE",
"141 816 OFFCURVE",
"123 714 QCURVE SMOOTH",
"107 624 OFFCURVE",
"248 537 OFFCURVE",
"567 507 QCURVE SMOOTH",
"886 477 OFFCURVE",
"1045 368 OFFCURVE",
"1023 246 QCURVE SMOOTH",
"1001 121 OFFCURVE",
"729 -30 OFFCURVE",
"477 -30 QCURVE SMOOTH",
"223 -30 OFFCURVE",
"-11 114 OFFCURVE",
"20 289 QCURVE SMOOTH",
"23 306 LINE"
);
}
);
width = 1205;
}
);
leftKerningGroup = s_LC;
rightKerningGroup = s_LC;
unicode = 0073;
},
{
glyphname = t;
layers = (
{
layerId = "35AD4BD0-1826-4A50-BA60-0A633C86B791";
paths = (
{
closed = 1;
nodes = (
"36 914 LINE",
"762 914 LINE",
"761 905 LINE",
"35 905 LINE"
);
},
{
closed = 1;
nodes = (
"298 907 LINE",
"299 912 LINE",
"371 1322 LINE",
"380 1322 LINE",
"196 279 LINE SMOOTH",
"170 128 OFFCURVE",
"292 -13 OFFCURVE",
"409 -13 QCURVE SMOOTH",
"490 -13 OFFCURVE",
"592 15 OFFCURVE",
"605 21 QCURVE",
"609 13 LINE",
"589 4 OFFCURVE",
"493 -23 OFFCURVE",
"407 -23 QCURVE SMOOTH",
"287 -23 OFFCURVE",
"159 120 OFFCURVE",
"187 279 QCURVE SMOOTH"
);
}
);
width = 755;
}
);
leftKerningGroup = t_LC;
rightKerningGroup = t_LC;
unicode = 0074;
},
{
glyphname = u;
layers = (
{
layerId = "35AD4BD0-1826-4A50-BA60-0A633C86B791";
paths = (
{
closed = 1;
nodes = (
"205 914 LINE",
"214 914 LINE",
"108 312 LINE SMOOTH",
"82 165 OFFCURVE",
"235 -23 OFFCURVE",
"443 -23 QCURVE SMOOTH",
"635 -23 OFFCURVE",
"924 150 OFFCURVE",
"993 232 QCURVE",
"1113 914 LINE",
"1122 914 LINE",
"961 0 LINE",
"952 0 LINE",
"990 215 LINE",
"990 215 LINE",
"929 144 OFFCURVE",
"638 -32 OFFCURVE",
"441 -32 QCURVE SMOOTH",
"230 -32 OFFCURVE",
"71 154 OFFCURVE",
"98 304 QCURVE SMOOTH"
);
}
);
width = 1283;
}
);
leftKerningGroup = u_LC;
rightKerningGroup = u_LC;
unicode = 0075;
},
{
glyphname = v;
layers = (
{
layerId = "35AD4BD0-1826-4A50-BA60-0A633C86B791";
paths = (
{
closed = 1;
nodes = (
"41 914 LINE",
"390 33 LINE SMOOTH",
"393 26 OFFCURVE",
"397 12 OFFCURVE",
"398 9 QCURVE",
"398 9 LINE",
"399 12 OFFCURVE",
"410 26 OFFCURVE",
"415 33 QCURVE SMOOTH",
"1073 914 LINE",
"1084 914 LINE",
"400 0 LINE",
"392 0 LINE",
"30 914 LINE"
);
}
);
width = 1050;
}
);
leftKerningGroup = gamma;
rightKerningGroup = gamma;
unicode = 0076;
},
{
glyphname = w;
layers = (
{
layerId = "35AD4BD0-1826-4A50-BA60-0A633C86B791";
paths = (
{
closed = 1;
nodes = (
"67 914 LINE",
"300 64 LINE SMOOTH",
"305 46 OFFCURVE",
"313 15 OFFCURVE",
"314 9 QCURVE",
"314 9 LINE",
"317 15 OFFCURVE",
"337 47 OFFCURVE",
"348 64 QCURVE SMOOTH",
"902 914 LINE",
"914 914 LINE",
"1163 62 LINE SMOOTH",
"1169 43 OFFCURVE",
"1176 17 OFFCURVE",
"1179 9 QCURVE",
"1179 9 LINE",
"1184 17 OFFCURVE",
"1199 43 OFFCURVE",
"1211 62 QCURVE SMOOTH",
"1743 914 LINE",
"1754 914 LINE",
"1180 0 LINE",
"1174 0 LINE",
"918 863 LINE SMOOTH",
"914 877 OFFCURVE",
"909 898 OFFCURVE",
"907 907 QCURVE",
"907 907 LINE",
"901 898 OFFCURVE",
"887 876 OFFCURVE",
"879 863 QCURVE SMOOTH",
"317 0 LINE",
"308 0 LINE",
"56 914 LINE"
);
}
);
width = 1746;
}
);
leftKerningGroup = w_LC;
rightKerningGroup = w_LC;
unicode = 0077;
},
{
glyphname = x;
layers = (
{
layerId = "35AD4BD0-1826-4A50-BA60-0A633C86B791";
paths = (
{
closed = 1;
nodes = (
"467 466 LINE",
"470 468 LINE",
"1025 914 LINE",
"1037 914 LINE",
"475 463 LINE",
"472 461 LINE",
"-101 0 LINE",
"-115 0 LINE"
);
},
{
closed = 1;
nodes = (
"79 914 LINE",
"473 468 LINE",
"474 466 LINE",
"886 0 LINE",
"873 0 LINE",
"468 460 LINE",
"466 462 LINE",
"65 914 LINE"
);
}
);
width = 1031;
}
);
unicode = 0078;
},
{
glyphname = y;
layers = (
{
layerId = "35AD4BD0-1826-4A50-BA60-0A633C86B791";
paths = (
{
closed = 1;
nodes = (
"-236 -383 LINE",
"-219 -397 OFFCURVE",
"-132 -426 OFFCURVE",
"-79 -426 QCURVE SMOOTH",
"25 -426 OFFCURVE",
"255 -180 OFFCURVE",
"390 4 QCURVE",
"390 4 LINE",
"30 914 LINE",
"41 914 LINE",
"362 103 LINE SMOOTH",
"369 85 OFFCURVE",
"389 34 OFFCURVE",
"397 13 QCURVE",
"397 13 LINE",
"413 34 OFFCURVE",
"450 85 OFFCURVE",
"464 103 QCURVE SMOOTH",
"1073 914 LINE",
"1084 914 LINE",
"394 -5 LINE SMOOTH",
"242 -208 OFFCURVE",
"26 -436 OFFCURVE",
"-81 -436 QCURVE SMOOTH",
"-138 -436 OFFCURVE",
"-220 -409 OFFCURVE",
"-238 -395 QCURVE"
);
}
);
width = 1050;
}
);
leftKerningGroup = gamma;
rightKerningGroup = gamma;
unicode = 0079;
},
{
glyphname = z;
layers = (
{
layerId = "35AD4BD0-1826-4A50-BA60-0A633C86B791";
paths = (
{
closed = 1;
nodes = (
"-88 8 LINE",
"968 905 LINE",
"80 905 LINE",
"81 914 LINE",
"985 914 LINE",
"984 906 LINE",
"-70 9 LINE",
"844 9 LINE",
"842 0 LINE",
"-89 0 LINE"
);
}
);
width = 1011;
}
);
leftKerningGroup = z_LC;
rightKerningGroup = z_LC;
unicode = 007A;
},
{
glyphname = germandbls;
layers = (
{
layerId = "35AD4BD0-1826-4A50-BA60-0A633C86B791";
paths = (
{
closed = 1;
nodes = (
"332 0 LINE",
"148 0 LINE",
"148 1092 LINE SMOOTH",
"148 1295 OFFCURVE",
"356 1534 OFFCURVE",
"555 1534 QCURVE SMOOTH",
"719 1534 OFFCURVE",
"917 1361 OFFCURVE",
"917 1215 QCURVE SMOOTH",
"917 1127 OFFCURVE",
"867 1016 OFFCURVE",
"830 973 QCURVE SMOOTH",
"798 935 OFFCURVE",
"739 859 OFFCURVE",
"739 830 QCURVE SMOOTH",
"739 782 OFFCURVE",
"872 681 OFFCURVE",
"953 619 QCURVE SMOOTH",
"1031 560 OFFCURVE",
"1138 411 OFFCURVE",
"1138 282 QCURVE SMOOTH",
"1138 157 OFFCURVE",
"920 -20 OFFCURVE",
"753 -20 QCURVE SMOOTH",
"589 -20 OFFCURVE",
"392 129 OFFCURVE",
"392 278 QCURVE SMOOTH",
"392 304 LINE",
"555 304 LINE",
"555 295 LINE SMOOTH",
"555 211 OFFCURVE",
"660 131 OFFCURVE",
"755 131 QCURVE SMOOTH",
"856 131 OFFCURVE",
"963 218 OFFCURVE",
"963 302 QCURVE SMOOTH",
"963 371 OFFCURVE",
"864 466 OFFCURVE",
"807 512 QCURVE SMOOTH",
"735 569 OFFCURVE",
"563 706 OFFCURVE",
"563 797 QCURVE SMOOTH",
"563 871 OFFCURVE",
"646 982 OFFCURVE",
"678 1026 QCURVE SMOOTH",
"707 1066 OFFCURVE",
"742 1149 OFFCURVE",
"742 1204 QCURVE SMOOTH",
"742 1293 OFFCURVE",
"633 1383 OFFCURVE",
"551 1383 QCURVE SMOOTH",
"448 1383 OFFCURVE",
"332 1241 OFFCURVE",
"332 1092 QCURVE {name = hr00;}"
);
}
);
width = 1186;
}
);
unicode = 00DF;
},
{
glyphname = ae;
layers = (
{
layerId = "35AD4BD0-1826-4A50-BA60-0A633C86B791";
paths = (
{
closed = 1;
nodes = (
"276 230 OFFCURVE",
"380 128 OFFCURVE",
"490 128 QCURVE SMOOTH",
"600 128 OFFCURVE",
"778 280 OFFCURVE",
"778 365 QCURVE",
"778 516 LINE",
"560 516 LINE SMOOTH",
"420 516 OFFCURVE",
"276 410 OFFCURVE",
"276 320 QCURVE SMOOTH"
);
},
{
closed = 1;
nodes = (
"90 470 OFFCURVE",
"344 648 OFFCURVE",
"540 648 QCURVE SMOOTH",
"778 648 LINE",
"778 720 LINE SMOOTH",
"778 815 OFFCURVE",
"680 934 OFFCURVE",
"560 934 QCURVE SMOOTH",
"440 934 OFFCURVE",
"337 835 OFFCURVE",
"337 770 QCURVE SMOOTH",
"337 765 LINE",
"152 765 LINE",
"152 770 LINE SMOOTH",
"152 895 OFFCURVE",
"375 1082 OFFCURVE",
"565 1082 QCURVE SMOOTH",
"729 1082 OFFCURVE",
"901 949 OFFCURVE",
"911 872 QCURVE",
"931 950 OFFCURVE",
"1099 1082 OFFCURVE",
"1245 1082 QCURVE SMOOTH",
"1460 1082 OFFCURVE",
"1692 800 OFFCURVE",
"1692 560 QCURVE SMOOTH",
"1692 484 LINE",
"883 484 LINE",
"883 632 LINE",
"1504 632 LINE",
"1505 656 LINE",
"1504 770 OFFCURVE",
"1375 930 OFFCURVE",
"1242 930 QCURVE SMOOTH",
"1105 930 OFFCURVE",
"959 705 OFFCURVE",
"959 542 QCURVE SMOOTH",
"959 510 LINE SMOOTH",
"959 347 OFFCURVE",
"1113 122 OFFCURVE",
"1275 122 QCURVE SMOOTH",
"1375 122 OFFCURVE",
"1519 210 OFFCURVE",
"1564 270 QCURVE",
"1684 175 LINE",
"1634 100 OFFCURVE",
"1425 -30 OFFCURVE",
"1275 -30 QCURVE SMOOTH",
"1129 -30 OFFCURVE",
"897 90 OFFCURVE",
"843 213 QCURVE",
"802 99 OFFCURVE",
"602 -20 OFFCURVE",
"450 -20 QCURVE SMOOTH",
"300 -20 OFFCURVE",
"90 150 OFFCURVE",
"90 300 QCURVE SMOOTH"
);
}
);
width = 1748;
}
);
leftKerningGroup = a_LC;
rightKerningGroup = e_LC;
unicode = 00E6;
},
{
glyphname = eth;
layers = (
{
layerId = "35AD4BD0-1826-4A50-BA60-0A633C86B791";
paths = (
{
closed = 1;
nodes = (
"271 1581 LINE",
"608 1506 OFFCURVE",
"1029 1008 OFFCURVE",
"1029 633 QCURVE",
"1029 535 LINE",
"1029 289 OFFCURVE",
"763 -20 OFFCURVE",
"561 -20 QCURVE SMOOTH",
"351 -20 OFFCURVE",
"85 265 OFFCURVE",
"85 468 QCURVE SMOOTH",
"85 698 OFFCURVE",
"340 978 OFFCURVE",
"533 978 QCURVE SMOOTH",
"702 978 OFFCURVE",
"933 748 OFFCURVE",
"933 613 QCURVE",
"864 614 LINE",
"864 680 OFFCURVE",
"720 826 OFFCURVE",
"577 826 QCURVE SMOOTH",
"431 826 OFFCURVE",
"271 632 OFFCURVE",
"271 468 QCURVE SMOOTH",
"271 345 OFFCURVE",
"424 132 OFFCURVE",
"565 132 QCURVE SMOOTH",
"693 132 OFFCURVE",
"843 363 OFFCURVE",
"843 535 QCURVE SMOOTH",
"843 635 LINE SMOOTH",
"843 984 OFFCURVE",
"468 1355 OFFCURVE",
"214 1421 QCURVE"
);
},
{
closed = 1;
nodes = (
"400 1061 LINE",
"317 1181 LINE",
"854 1546 LINE",
"937 1427 LINE"
);
}
);
width = 1114;
}
);
unicode = 00F0;
},
{
glyphname = thorn;
layers = (
{
layerId = "35AD4BD0-1826-4A50-BA60-0A633C86B791";
paths = (
{
closed = 1;
nodes = (
"148 1536 LINE",
"334 1536 LINE",
"334 928 LINE",
"380 993 OFFCURVE",
"535 1072 OFFCURVE",
"645 1072 QCURVE SMOOTH",
"845 1072 OFFCURVE",
"1085 772 OFFCURVE",
"1085 542 QCURVE SMOOTH",
"1085 510 LINE SMOOTH",
"1085 280 OFFCURVE",
"845 -20 OFFCURVE",
"645 -20 QCURVE SMOOTH",
"535 -20 OFFCURVE",
"385 57 OFFCURVE",
"345 117 QCURVE",
"341 117 LINE",
"333 -416 LINE",
"148 -416 LINE"
);
},
{
closed = 1;
nodes = (
"365 242 OFFCURVE",
"505 132 OFFCURVE",
"605 132 QCURVE SMOOTH",
"755 132 OFFCURVE",
"895 350 OFFCURVE",
"895 510 QCURVE SMOOTH",
"895 542 LINE SMOOTH",
"895 702 OFFCURVE",
"755 920 OFFCURVE",
"605 920 QCURVE SMOOTH",
"505 920 OFFCURVE",
"365 810 OFFCURVE",
"334 740 QCURVE",
"334 312 LINE"
);
}
);
width = 1170;
}
);
rightKerningGroup = b_LC;
unicode = 00FE;
},
{
glyphname = kgreenlandic;
layers = (
{
layerId = "35AD4BD0-1826-4A50-BA60-0A633C86B791";
paths = (
{
closed = 1;
nodes = (
"340 0 LINE",
"155 0 LINE",
"155 1082 LINE",
"340 1082 LINE"
);
},
{
closed = 1;
nodes = (
"517 462 LINE",
"250 462 LINE",
"250 624 LINE",
"432 624 LINE",
"828 1082 LINE",
"1052 1082 LINE"
);
},
{
closed = 1;
nodes = (
"423 490 LINE",
"542 624 LINE",
"1088 0 LINE",
"854 0 LINE"
);
}
);
width = 1072;
}
);
leftKerningGroup = mnpr_LC;
rightKerningGroup = k_LC;
unicode = 0138;
},
{
glyphname = oe;
layers = (
{
layerId = "35AD4BD0-1826-4A50-BA60-0A633C86B791";
paths = (
{
closed = 1;
nodes = (
"275 510 LINE SMOOTH",
"275 347 OFFCURVE",
"429 122 OFFCURVE",
"581 122 QCURVE SMOOTH",
"733 122 OFFCURVE",
"887 346 OFFCURVE",
"887 510 QCURVE SMOOTH",
"887 542 LINE SMOOTH",
"887 706 OFFCURVE",
"733 930 OFFCURVE",
"581 930 QCURVE SMOOTH",
"429 930 OFFCURVE",
"275 705 OFFCURVE",
"275 542 QCURVE SMOOTH"
);
},
{
closed = 1;
nodes = (
"997 926 OFFCURVE",
"1212 1082 OFFCURVE",
"1390 1082 QCURVE SMOOTH",
"1577 1082 OFFCURVE",
"1809 800 OFFCURVE",
"1809 560 QCURVE SMOOTH",
"1809 484 LINE",
"1000 484 LINE",
"1000 632 LINE",
"1621 632 LINE",
"1622 656 LINE",
"1621 770 OFFCURVE",
"1492 930 OFFCURVE",
"1370 930 QCURVE SMOOTH",
"1222 930 OFFCURVE",
"1076 706 OFFCURVE",
"1076 542 QCURVE SMOOTH",
"1076 510 LINE SMOOTH",
"1076 346 OFFCURVE",
"1220 122 OFFCURVE",
"1382 122 QCURVE SMOOTH",
"1482 122 OFFCURVE",
"1636 210 OFFCURVE",
"1681 270 QCURVE",
"1801 175 LINE",
"1751 100 OFFCURVE",
"1542 -30 OFFCURVE",
"1413 -30 QCURVE SMOOTH",
"1216 -30 OFFCURVE",
"1009 110 OFFCURVE",
"979 185 QCURVE",
"949 111 OFFCURVE",
"746 -30 OFFCURVE",
"551 -30 QCURVE SMOOTH",
"355 -30 OFFCURVE",
"85 272 OFFCURVE",
"85 510 QCURVE SMOOTH",
"85 542 LINE SMOOTH",
"85 780 OFFCURVE",
"354 1081 OFFCURVE",
"569 1081 QCURVE SMOOTH",
"755 1081 OFFCURVE",
"957 921 OFFCURVE",
"977 866 QCURVE"
);
}
);
width = 1861;
}
);
leftKerningGroup = alpha;
rightKerningGroup = e_LC;
unicode = 0153;
},
{
glyphname = schwa;
layers = (
{
layerId = "35AD4BD0-1826-4A50-BA60-0A633C86B791";
paths = (
{
closed = 1;
nodes = (
"975 510 LINE SMOOTH",
"975 272 OFFCURVE",
"714 -30 OFFCURVE",
"499 -30 QCURVE SMOOTH",
"284 -30 OFFCURVE",
"52 252 OFFCURVE",
"52 492 QCURVE SMOOTH",
"52 568 LINE",
"861 568 LINE",
"861 420 LINE",
"240 420 LINE",
"239 396 LINE",
"240 282 OFFCURVE",
"369 122 OFFCURVE",
"491 122 QCURVE SMOOTH",
"639 122 OFFCURVE",
"785 347 OFFCURVE",
"785 510 QCURVE SMOOTH",
"785 542 LINE SMOOTH",
"785 705 OFFCURVE",
"631 930 OFFCURVE",
"469 930 QCURVE SMOOTH",
"369 930 OFFCURVE",
"225 842 OFFCURVE",
"180 782 QCURVE",
"60 877 LINE",
"110 952 OFFCURVE",
"319 1082 OFFCURVE",
"469 1082 QCURVE SMOOTH",
"714 1082 OFFCURVE",
"975 780 OFFCURVE",
"975 542 QCURVE SMOOTH"
);
}
);
width = 1060;
}
);
rightKerningGroup = o_LC;
unicode = 0259;
},
{
glyphname = primemod;
layers = (
{
layerId = "35AD4BD0-1826-4A50-BA60-0A633C86B791";
paths = (
{
closed = 1;
nodes = (
"413 1502 LINE",
"294 991 LINE",
"172 996 LINE",
"224 1502 LINE"
);
}
);
width = 600;
}
);
unicode = 02B9;
},
{
glyphname = doubleprimemod;
layers = (
{
layerId = "35AD4BD0-1826-4A50-BA60-0A633C86B791";
paths = (
{
closed = 1;
nodes = (
"413 1502 LINE",
"295 1004 LINE",
"173 1009 LINE",
"224 1502 LINE"
);
},
{
closed = 1;
nodes = (
"713 1502 LINE",
"595 1004 LINE",
"473 1009 LINE",
"524 1502 LINE"
);
}
);
width = 788;
}
);
unicode = 02BA;
},
{
glyphname = apostrophemod;
layers = (
{
layerId = "35AD4BD0-1826-4A50-BA60-0A633C86B791";
paths = (
{
closed = 1;
nodes = (
"195 1092 OFFCURVE",
"299 1210 OFFCURVE",
"314 1277 QCURVE",
"243 1277 OFFCURVE",
"163 1352 OFFCURVE",
"163 1411 QCURVE SMOOTH",
"163 1469 OFFCURVE",
"244 1546 OFFCURVE",
"307 1546 QCURVE SMOOTH",
"366 1546 OFFCURVE",
"462 1450 OFFCURVE",
"462 1373 QCURVE SMOOTH",
"462 1251 OFFCURVE",
"303 1063 OFFCURVE",
"198 1013 QCURVE",
"155 1062 LINE"
);
}
);
width = 600;
}
);
leftKerningGroup = minute;
rightKerningGroup = minute;
unicode = 02BC;
},
{
glyphname = ordfeminine;
layers = (
{
guideLines = (
{
position = "{0, 1681}";
},
{
position = "{0, 909}";
}
);
layerId = "35AD4BD0-1826-4A50-BA60-0A633C86B791";
paths = (
{
closed = 1;
nodes = (
"606 821 OFFCURVE",
"626 736 OFFCURVE",
"649 706 QCURVE",
"784 706 LINE",
"770 749 OFFCURVE",
"758 838 OFFCURVE",
"758 887 QCURVE SMOOTH",
"758 1201 LINE SMOOTH",
"758 1338 OFFCURVE",
"599 1477 OFFCURVE",
"464 1477 QCURVE SMOOTH",
"337 1477 OFFCURVE",
"165 1356 OFFCURVE",
"165 1261 QCURVE SMOOTH",
"165 1234 LINE",
"320 1234 LINE",
"320 1247 LINE SMOOTH",
"320 1292 OFFCURVE",
"395 1346 OFFCURVE",
"466 1346 QCURVE SMOOTH",
"533 1346 OFFCURVE",
"606 1276 OFFCURVE",
"606 1202 QCURVE SMOOTH",
"606 862 LINE"
);
},
{
closed = 1;
nodes = (
"477 1149 LINE SMOOTH",
"308 1149 OFFCURVE",
"141 1028 OFFCURVE",
"141 918 QCURVE SMOOTH",
"141 816 OFFCURVE",
"268 692 OFFCURVE",
"387 692 QCURVE SMOOTH",
"488 692 OFFCURVE",
"619 788 OFFCURVE",
"641 837 QCURVE",
"623 949 LINE",
"623 911 OFFCURVE",
"490 822 OFFCURVE",
"426 822 QCURVE SMOOTH",
"362 822 OFFCURVE",
"298 879 OFFCURVE",
"298 922 QCURVE SMOOTH",
"298 969 OFFCURVE",
"388 1042 OFFCURVE",
"478 1042 QCURVE SMOOTH",
"635 1042 LINE",
"635 1149 LINE"
);
}
);
width = 916;
}
);
unicode = 00AA;
userData = {
com.typemytype.robofont.guideline.magnetic.3CJlALCfkl = 5;
com.typemytype.robofont.guideline.magnetic.Zdl6NZVQAy = 5;
};
},
{
glyphname = ordmasculine;
layers = (
{
guideLines = (
{
position = "{0, 1975}";
}
);
layerId = "35AD4BD0-1826-4A50-BA60-0A633C86B791";
paths = (
{
closed = 1;
nodes = (
"123 1124 LINE",
"123 1278 OFFCURVE",
"308 1477 OFFCURVE",
"465 1477 QCURVE SMOOTH",
"623 1477 OFFCURVE",
"807 1278 OFFCURVE",
"807 1124 QCURVE",
"807 1043 LINE",
"807 889 OFFCURVE",
"624 691 OFFCURVE",
"467 691 QCURVE SMOOTH",
"309 691 OFFCURVE",
"123 889 OFFCURVE",
"123 1043 QCURVE"
);
},
{
closed = 1;
nodes = (
"286 1043 LINE",
"286 952 OFFCURVE",
"375 830 OFFCURVE",
"467 830 QCURVE SMOOTH",
"556 830 OFFCURVE",
"645 952 OFFCURVE",
"645 1043 QCURVE",
"645 1124 LINE",
"645 1213 OFFCURVE",
"555 1336 OFFCURVE",
"465 1336 QCURVE SMOOTH",
"375 1336 OFFCURVE",
"286 1213 OFFCURVE",
"286 1124 QCURVE"
);
}
);
width = 932;
}
);
unicode = 00BA;
userData = {
com.typemytype.robofont.guideline.magnetic.Jnt0R9CyOf = 5;
};
},
{
glyphname = hookabovecomb;
layers = (
{
layerId = "35AD4BD0-1826-4A50-BA60-0A633C86B791";
paths = (
{
closed = 1;
nodes = (
"427 1026 LINE SMOOTH",
"427 1036 OFFCURVE",
"437 1045 OFFCURVE",
"451 1046 QCURVE SMOOTH",
"600 1052 OFFCURVE",
"717 1127 OFFCURVE",
"717 1187 QCURVE SMOOTH",
"717 1253 OFFCURVE",
"618 1325 OFFCURVE",
"525 1325 QCURVE SMOOTH",
"449 1325 OFFCURVE",
"313 1296 OFFCURVE",
"280 1280 QCURVE",
"274 1289 LINE",
"311 1305 OFFCURVE",
"450 1335 OFFCURVE",
"526 1335 QCURVE SMOOTH",
"623 1335 OFFCURVE",
"728 1258 OFFCURVE",
"728 1186 QCURVE SMOOTH",
"728 1122 OFFCURVE",
"601 1041 OFFCURVE",
"438 1035 QCURVE",
"438 957 LINE",
"427 957 LINE"
);
}
);
width = 1024;
}
);
unicode = 0309;
},
{
glyphname = breveinvertedcomb;
layers = (
{
layerId = "35AD4BD0-1826-4A50-BA60-0A633C86B791";
paths = (
{
closed = 1;
nodes = (
"246 968 LINE",
"291 1095 OFFCURVE",
"417 1209 OFFCURVE",
"512 1209 QCURVE SMOOTH",
"607 1209 OFFCURVE",
"733 1095 OFFCURVE",
"778 968 QCURVE",
"771 964 LINE",
"725 1087 OFFCURVE",
"603 1198 OFFCURVE",
"512 1198 QCURVE SMOOTH",
"421 1198 OFFCURVE",
"299 1087 OFFCURVE",
"253 964 QCURVE"
);
}
);
width = 1024;
}
);
unicode = 030F;
},
{
glyphname = horncomb;
layers = (
{
layerId = "35AD4BD0-1826-4A50-BA60-0A633C86B791";
paths = (
{
closed = 1;
nodes = (
"125 885 LINE SMOOTH",
"231 885 OFFCURVE",
"327 932 OFFCURVE",
"327 985 QCURVE SMOOTH",
"327 1037 OFFCURVE",
"297 1129 OFFCURVE",
"278 1169 QCURVE",
"288 1169 LINE",
"307 1130 OFFCURVE",
"338 1036 OFFCURVE",
"338 983 QCURVE SMOOTH",
"338 926 OFFCURVE",
"239 875 OFFCURVE",
"130 875 QCURVE SMOOTH",
"107 875 OFFCURVE",
"31 876 OFFCURVE",
"0 877 QCURVE",
"0 885 LINE"
);
}
);
width = 1024;
}
);
unicode = 031B;
},
{
glyphname = dotbelowcomb;
layers = (
{
layerId = "35AD4BD0-1826-4A50-BA60-0A633C86B791";
paths = (
{
closed = 1;
nodes = (
"491 -175 OFFCURVE",
"502 -164 OFFCURVE",
"512 -164 QCURVE SMOOTH",
"522 -164 OFFCURVE",
"532 -175 OFFCURVE",
"532 -183 QCURVE SMOOTH",
"532 -192 OFFCURVE",
"521 -203 OFFCURVE",
"511 -203 QCURVE SMOOTH",
"501 -203 OFFCURVE",
"491 -192 OFFCURVE",
"491 -183 QCURVE SMOOTH"
);
}
);
width = 1024;
}
);
unicode = 0323;
},
{
glyphname = dieresisbelowcomb;
layers = (
{
layerId = "35AD4BD0-1826-4A50-BA60-0A633C86B791";
paths = (
{
closed = 1;
nodes = (
"166 -273 OFFCURVE",
"226 -214 OFFCURVE",
"282 -214 QCURVE SMOOTH",
"335 -214 OFFCURVE",
"398 -277 OFFCURVE",
"398 -328 QCURVE SMOOTH",
"398 -382 OFFCURVE",
"339 -441 OFFCURVE",
"282 -441 QCURVE SMOOTH",
"229 -441 OFFCURVE",
"166 -379 OFFCURVE",
"166 -328 QCURVE SMOOTH"
);
},
{
closed = 1;
nodes = (
"626 -273 OFFCURVE",
"686 -214 OFFCURVE",
"742 -214 QCURVE SMOOTH",
"795 -214 OFFCURVE",
"858 -277 OFFCURVE",
"858 -328 QCURVE SMOOTH",
"858 -382 OFFCURVE",
"799 -441 OFFCURVE",
"742 -441 QCURVE SMOOTH",
"689 -441 OFFCURVE",
"626 -379 OFFCURVE",
"626 -328 QCURVE SMOOTH"
);
}
);
width = 1024;
}
);
unicode = 0324;
},
{
glyphname = commaaccentcomb;
layers = (
{
layerId = "35AD4BD0-1826-4A50-BA60-0A633C86B791";
paths = (
{
closed = 1;
nodes = (
"466 -425 OFFCURVE",
"546 -284 OFFCURVE",
"618 -156 QCURVE",
"630 -154 LINE",
"416 -531 LINE",
"408 -529 LINE"
);
}
);
width = 1024;
}
);
unicode = 0326;
},
{
glyphname = brevebelowcomb;
layers = (
{
layerId = "35AD4BD0-1826-4A50-BA60-0A633C86B791";
paths = (
{
closed = 1;
nodes = (
"896 -197 LINE",
"857 -296 OFFCURVE",
"656 -463 OFFCURVE",
"512 -463 QCURVE SMOOTH",
"384 -463 OFFCURVE",
"177 -310 OFFCURVE",
"129 -196 QCURVE",
"229 -127 LINE",
"272 -190 OFFCURVE",
"417 -294 OFFCURVE",
"512 -294 QCURVE SMOOTH",
"614 -294 OFFCURVE",
"760 -195 OFFCURVE",
"803 -127 QCURVE"
);
}
);
width = 1024;
}
);
unicode = 032E;
},
{
glyphname = macronbelowcomb;
layers = (
{
layerId = "35AD4BD0-1826-4A50-BA60-0A633C86B791";
paths = (
{
closed = 1;
nodes = (
"216 -103 LINE",
"808 -103 LINE",
"808 -259 LINE",
"216 -259 LINE"
);
}
);
width = 1024;
}
);
unicode = 0331;
},
{
glyphname = zero;
layers = (
{
layerId = "35AD4BD0-1826-4A50-BA60-0A633C86B791";
paths = (
{
closed = 1;
nodes = (
"128 746 LINE",
"194 1125 OFFCURVE",
"597 1480 OFFCURVE",
"863 1480 QCURVE SMOOTH",
"1128 1480 OFFCURVE",
"1406 1125 OFFCURVE",
"1341 752 QCURVE",
"1335 720 LINE",
"1268 340 OFFCURVE",
"864 -24 OFFCURVE",
"598 -24 QCURVE SMOOTH",
"332 -24 OFFCURVE",
"57 338 OFFCURVE",
"127 739 QCURVE"
);
},
{
closed = 1;
nodes = (
"66 343 OFFCURVE",
"337 -15 OFFCURVE",
"599 -15 QCURVE SMOOTH",
"858 -15 OFFCURVE",
"1259 347 OFFCURVE",
"1324 711 QCURVE",
"1333 761 LINE",
"1398 1120 OFFCURVE",
"1122 1470 OFFCURVE",
"861 1470 QCURVE SMOOTH",
"603 1470 OFFCURVE",
"203 1120 OFFCURVE",
"138 750 QCURVE",
"135 731 LINE"
);
}
);
width = 1483;
}
);
unicode = 0030;
},
{
glyphname = one;
layers = (
{
layerId = "35AD4BD0-1826-4A50-BA60-0A633C86B791";
paths = (
{
closed = 1;
nodes = (
"900 1467 LINE",
"415 1282 LINE",
"413 1293 LINE",
"902 1476 LINE",
"911 1476 LINE",
"651 0 LINE",
"641 0 LINE"
);
}
);
width = 1463;
}
);
unicode = 0031;
},
{
glyphname = two;
layers = (
{
layerId = "35AD4BD0-1826-4A50-BA60-0A633C86B791";
paths = (
{
closed = 1;
nodes = (
"90 9 LINE",
"875 619 LINE SMOOTH",
"1067 766 OFFCURVE",
"1239 975 OFFCURVE",
"1263 1111 QCURVE SMOOTH",
"1291 1268 OFFCURVE",
"1083 1470 OFFCURVE",
"864 1470 QCURVE SMOOTH",
"635 1470 OFFCURVE",
"323 1254 OFFCURVE",
"292 1075 QCURVE SMOOTH",
"288 1055 LINE",
"277 1055 LINE",
"280 1074 LINE SMOOTH",
"314 1262 OFFCURVE",
"630 1480 OFFCURVE",
"866 1480 QCURVE SMOOTH",
"1092 1480 OFFCURVE",
"1302 1275 OFFCURVE",
"1273 1113 QCURVE SMOOTH",
"1248 970 OFFCURVE",
"1074 761 OFFCURVE",
"881 612 QCURVE SMOOTH",
"103 10 LINE",
"1138 10 LINE",
"1136 0 LINE",
"88 0 LINE"
);
}
);
width = 1463;
}
);
unicode = 0032;
},
{
glyphname = three;
layers = (
{
layerId = "35AD4BD0-1826-4A50-BA60-0A633C86B791";
paths = (
{
closed = 1;
nodes = (
"144 395 LINE",
"155 395 LINE",
"151 375 LINE SMOOTH",
"122 208 OFFCURVE",
"341 -14 OFFCURVE",
"598 -14 QCURVE SMOOTH",
"832 -14 OFFCURVE",
"1154 215 OFFCURVE",
"1187 403 QCURVE SMOOTH",
"1216 565 OFFCURVE",
"1003 751 OFFCURVE",
"749 751 QCURVE SMOOTH",
"511 751 LINE",
"513 761 LINE",
"747 761 LINE SMOOTH",
"945 761 OFFCURVE",
"1214 942 OFFCURVE",
"1244 1109 QCURVE SMOOTH",
"1274 1282 OFFCURVE",
"1062 1470 OFFCURVE",
"859 1470 QCURVE SMOOTH",
"632 1470 OFFCURVE",
"361 1269 OFFCURVE",
"332 1105 QCURVE SMOOTH",
"328 1085 LINE",
"317 1085 LINE",
"321 1105 LINE SMOOTH",
"351 1276 OFFCURVE",
"628 1480 OFFCURVE",
"861 1480 QCURVE SMOOTH",
"1070 1480 OFFCURVE",
"1285 1288 OFFCURVE",
"1254 1114 QCURVE SMOOTH",
"1225 946 OFFCURVE",
"993 774 OFFCURVE",
"848 759 QCURVE",
"847 757 LINE",
"1034 746 OFFCURVE",
"1226 563 OFFCURVE",
"1198 400 QCURVE SMOOTH",
"1164 210 OFFCURVE",
"837 -24 OFFCURVE",
"596 -24 QCURVE SMOOTH",
"333 -24 OFFCURVE",
"110 203 OFFCURVE",
"140 375 QCURVE SMOOTH"
);
}
);
width = 1463;
}
);
unicode = 0033;
},
{
glyphname = four;
layers = (
{
layerId = "35AD4BD0-1826-4A50-BA60-0A633C86B791";
paths = (
{
closed = 1;
nodes = (
"1006 391 LINE",
"1008 405 LINE",
"1190 1435 LINE",
"1188 1435 LINE",
"130 402 LINE",
"1011 402 LINE",
"1016 402 LINE",
"1212 402 LINE",
"1210 392 LINE",
"111 392 LINE",
"113 400 LINE",
"1198 1456 LINE",
"1204 1456 LINE",
"947 0 LINE",
"937 0 LINE"
);
}
);
width = 1463;
}
);
unicode = 0034;
},
{
glyphname = five;
layers = (
{
layerId = "35AD4BD0-1826-4A50-BA60-0A633C86B791";
paths = (
{
closed = 1;
nodes = (
"154 387 LINE",
"165 387 LINE",
"162 367 LINE SMOOTH",
"132 199 OFFCURVE",
"370 -14 OFFCURVE",
"615 -14 QCURVE SMOOTH",
"848 -14 OFFCURVE",
"1190 226 OFFCURVE",
"1231 462 QCURVE SMOOTH",
"1271 687 OFFCURVE",
"1026 904 OFFCURVE",
"831 904 QCURVE SMOOTH",
"654 904 OFFCURVE",
"381 783 OFFCURVE",
"294 710 QCURVE",
"284 714 LINE",
"515 1455 LINE",
"1332 1455 LINE",
"1330 1444 LINE",
"520 1444 LINE",
"299 727 LINE",
"381 792 OFFCURVE",
"652 913 OFFCURVE",
"832 913 QCURVE SMOOTH",
"1035 913 OFFCURVE",
"1283 691 OFFCURVE",
"1242 462 QCURVE SMOOTH",
"1200 221 OFFCURVE",
"852 -24 OFFCURVE",
"613 -24 QCURVE SMOOTH",
"363 -24 OFFCURVE",
"120 195 OFFCURVE",
"151 367 QCURVE SMOOTH"
);
}
);
width = 1463;
}
);
unicode = 0035;
},
{
glyphname = six;
layers = (
{
layerId = "35AD4BD0-1826-4A50-BA60-0A633C86B791";
paths = (
{
closed = 1;
nodes = (
"181 644 LINE SMOOTH",
"247 1018 OFFCURVE",
"810 1476 OFFCURVE",
"1202 1476 QCURVE SMOOTH",
"1239 1476 LINE",
"1237 1464 LINE",
"1200 1464 LINE SMOOTH",
"813 1464 OFFCURVE",
"256 1014 OFFCURVE",
"189 634 QCURVE SMOOTH",
"185 614 LINE SMOOTH",
"130 302 OFFCURVE",
"383 -15 OFFCURVE",
"616 -15 QCURVE SMOOTH",
"865 -15 OFFCURVE",
"1219 248 OFFCURVE",
"1255 455 QCURVE SMOOTH",
"1290 652 OFFCURVE",
"1056 893 OFFCURVE",
"825 893 QCURVE SMOOTH",
"593 893 OFFCURVE",
"207 615 OFFCURVE",
"169 398 QCURVE",
"159 398 LINE",
"198 618 OFFCURVE",
"586 904 OFFCURVE",
"826 904 QCURVE SMOOTH",
"1062 904 OFFCURVE",
"1301 657 OFFCURVE",
"1265 455 QCURVE SMOOTH",
"1228 245 OFFCURVE",
"869 -23 OFFCURVE",
"615 -23 QCURVE SMOOTH",
"374 -23 OFFCURVE",
"119 297 OFFCURVE",
"175 614 QCURVE SMOOTH"
);
}
);
width = 1463;
}
);
unicode = 0036;
},
{
glyphname = seven;
layers = (
{
layerId = "35AD4BD0-1826-4A50-BA60-0A633C86B791";
paths = (
{
closed = 1;
nodes = (
"1343 1446 LINE",
"305 1446 LINE",
"307 1456 LINE",
"1358 1456 LINE",
"1356 1449 LINE",
"320 0 LINE",
"305 0 LINE"
);
}
);
width = 1463;
}
);
unicode = 0037;
},
{
glyphname = eight;
layers = (
{
layerId = "35AD4BD0-1826-4A50-BA60-0A633C86B791";
paths = (
{
closed = 1;
nodes = (
"158 540 OFFCURVE",
"424 726 OFFCURVE",
"641 746 QCURVE",
"641 746 LINE",
"461 758 OFFCURVE",
"300 958 OFFCURVE",
"329 1122 QCURVE SMOOTH",
"357 1282 OFFCURVE",
"650 1479 OFFCURVE",
"865 1479 QCURVE SMOOTH",
"1079 1479 OFFCURVE",
"1291 1274 OFFCURVE",
"1269 1107 QCURVE SMOOTH",
"1249 958 OFFCURVE",
"1031 766 OFFCURVE",
"832 746 QCURVE",
"832 746 LINE",
"1038 732 OFFCURVE",
"1225 538 OFFCURVE",
"1200 376 QCURVE SMOOTH",
"1172 193 OFFCURVE",
"844 -23 OFFCURVE",
"600 -23 QCURVE SMOOTH",
"353 -23 OFFCURVE",
"113 192 OFFCURVE",
"137 376 QCURVE SMOOTH"
);
},
{
closed = 1;
nodes = (
"128 195 OFFCURVE",
"359 -11 OFFCURVE",
"601 -11 QCURVE SMOOTH",
"843 -11 OFFCURVE",
"1161 197 OFFCURVE",
"1188 378 QCURVE SMOOTH",
"1213 543 OFFCURVE",
"998 738 OFFCURVE",
"733 738 QCURVE SMOOTH",
"468 738 OFFCURVE",
"171 539 OFFCURVE",
"151 379 QCURVE SMOOTH"
);
},
{
closed = 1;
nodes = (
"312 962 OFFCURVE",
"481 752 OFFCURVE",
"736 752 QCURVE SMOOTH",
"983 752 OFFCURVE",
"1234 945 OFFCURVE",
"1256 1105 QCURVE SMOOTH",
"1278 1268 OFFCURVE",
"1069 1469 OFFCURVE",
"862 1469 QCURVE SMOOTH",
"654 1469 OFFCURVE",
"369 1275 OFFCURVE",
"341 1120 QCURVE SMOOTH"
);
}
);
width = 1463;
}
);
unicode = 0038;
},
{
glyphname = nine;
layers = (
{
layerId = "35AD4BD0-1826-4A50-BA60-0A633C86B791";
paths = (
{
closed = 1;
nodes = (
"260 1208 OFFCURVE",
"619 1476 OFFCURVE",
"873 1476 QCURVE SMOOTH",
"1114 1476 OFFCURVE",
"1369 1156 OFFCURVE",
"1313 839 QCURVE SMOOTH",
"1308 809 LINE SMOOTH",
"1242 435 OFFCURVE",
"678 -23 OFFCURVE",
"286 -23 QCURVE SMOOTH",
"249 -23 LINE",
"251 -11 LINE",
"288 -11 LINE SMOOTH",
"675 -11 OFFCURVE",
"1232 439 OFFCURVE",
"1299 819 QCURVE SMOOTH",
"1303 839 LINE SMOOTH",
"1358 1151 OFFCURVE",
"1105 1468 OFFCURVE",
"872 1468 QCURVE SMOOTH",
"623 1468 OFFCURVE",
"269 1205 OFFCURVE",
"233 998 QCURVE SMOOTH",
"198 801 OFFCURVE",
"432 560 OFFCURVE",
"663 560 QCURVE SMOOTH",
"895 560 OFFCURVE",
"1281 838 OFFCURVE",
"1319 1055 QCURVE",
"1329 1055 LINE",
"1290 835 OFFCURVE",
"902 549 OFFCURVE",
"662 549 QCURVE SMOOTH",
"426 549 OFFCURVE",
"187 796 OFFCURVE",
"223 998 QCURVE SMOOTH"
);
}
);
width = 1463;
}
);
unicode = 0039;
},
{
glyphname = onesuperior;
layers = (
{
layerId = "35AD4BD0-1826-4A50-BA60-0A633C86B791";
paths = (
{
closed = 1;
nodes = (
"123 1370 LINE",
"457 1486 LINE",
"501 1486 LINE",
"501 697 LINE",
"339 697 LINE",
"339 1288 LINE",
"123 1211 LINE"
);
}
);
width = 751;
}
);
unicode = 00B9;
},
{
glyphname = twosuperior;
layers = (
{
layerId = "35AD4BD0-1826-4A50-BA60-0A633C86B791";
paths = (
{
closed = 1;
nodes = (
"85 805 LINE",
"373 1066 LINE SMOOTH",
"441 1127 OFFCURVE",
"481 1216 OFFCURVE",
"481 1249 QCURVE SMOOTH",
"481 1297 OFFCURVE",
"429 1347 OFFCURVE",
"370 1347 QCURVE SMOOTH",
"305 1347 OFFCURVE",
"234 1273 OFFCURVE",
"235 1198 QCURVE",
"67 1198 LINE",
"66 1329 OFFCURVE",
"224 1487 OFFCURVE",
"366 1487 QCURVE SMOOTH",
"500 1487 OFFCURVE",
"652 1359 OFFCURVE",
"652 1251 QCURVE SMOOTH",
"652 1171 OFFCURVE",
"556 1048 OFFCURVE",
"468 971 QCURVE SMOOTH",
"323 845 LINE",
"683 845 LINE",
"683 697 LINE",
"85 697 LINE"
);
}
);
width = 751;
}
);
unicode = 00B2;
},
{
glyphname = threesuperior;
layers = (
{
layerId = "35AD4BD0-1826-4A50-BA60-0A633C86B791";
paths = (
{
closed = 1;
nodes = (
"220 920 LINE",
"220 875 OFFCURVE",
"300 824 OFFCURVE",
"366 824 QCURVE SMOOTH",
"435 824 OFFCURVE",
"499 876 OFFCURVE",
"499 925 QCURVE SMOOTH",
"499 978 OFFCURVE",
"423 1028 OFFCURVE",
"350 1029 QCURVE SMOOTH",
"266 1029 LINE",
"266 1151 LINE",
"350 1151 LINE SMOOTH",
"422 1151 OFFCURVE",
"486 1207 OFFCURVE",
"486 1255 QCURVE SMOOTH",
"486 1299 OFFCURVE",
"432 1349 OFFCURVE",
"363 1349 QCURVE SMOOTH",
"306 1349 OFFCURVE",
"231 1299 OFFCURVE",
"231 1256 QCURVE",
"74 1256 LINE",
"74 1357 OFFCURVE",
"241 1487 OFFCURVE",
"360 1487 QCURVE SMOOTH",
"490 1487 OFFCURVE",
"656 1372 OFFCURVE",
"656 1263 QCURVE SMOOTH",
"656 1212 OFFCURVE",
"593 1120 OFFCURVE",
"533 1098 QCURVE",
"601 1075 OFFCURVE",
"667 983 OFFCURVE",
"667 917 QCURVE SMOOTH",
"667 807 OFFCURVE",
"491 686 OFFCURVE",
"361 686 QCURVE SMOOTH",
"248 686 OFFCURVE",
"63 798 OFFCURVE",
"63 920 QCURVE"
);
}
);
width = 751;
}
);
unicode = 00B3;
},
{
glyphname = foursuperior;
layers = (
{
layerId = "35AD4BD0-1826-4A50-BA60-0A633C86B791";
paths = (
{
closed = 1;
nodes = (
"54 982 LINE",
"432 1496 LINE",
"556 1496 LINE",
"399 1270 LINE",
"212 1010 LINE",
"700 1010 LINE",
"700 880 LINE",
"61 880 LINE"
);
},
{
closed = 1;
nodes = (
"592 697 LINE",
"435 697 LINE",
"435 1496 LINE",
"592 1496 LINE"
);
}
);
width = 751;
}
);
unicode = 2074;
},
{
glyphname = underscore;
layers = (
{
layerId = "35AD4BD0-1826-4A50-BA60-0A633C86B791";
paths = (
{
closed = 1;
nodes = (
"-160 -176 LINE",
"840 -176 LINE",
"838 -186 LINE",
"-162 -186 LINE"
);
}
);
width = 1000;
}
);
unicode = 005F;
},
{
glyphname = hyphen;
layers = (
{
layerId = "35AD4BD0-1826-4A50-BA60-0A633C86B791";
paths = (
{
closed = 1;
nodes = (
"60 674 LINE",
"648 674 LINE",
"646 664 LINE",
"58 664 LINE"
);
}
);
width = 726;
}
);
leftKerningGroup = emdash;
rightKerningGroup = emdash;
unicode = 002D;
},
{
glyphname = endash;
layers = (
{
layerId = "35AD4BD0-1826-4A50-BA60-0A633C86B791";
paths = (
{
closed = 1;
nodes = (
"0 700 LINE",
"1024 700 LINE",
"1024 532 LINE",
"0 532 LINE"
);
}
);
width = 1024;
}
);
leftKerningGroup = emdash;
rightKerningGroup = emdash;
unicode = 2013;
},
{
glyphname = emdash;
layers = (
{
layerId = "35AD4BD0-1826-4A50-BA60-0A633C86B791";
paths = (
{
closed = 1;
nodes = (
"260 700 LINE",
"1788 700 LINE",
"1788 532 LINE",
"260 532 LINE"
);
}
);
width = 2048;
}
);
leftKerningGroup = emdash;
rightKerningGroup = emdash;
unicode = 2014;
},
{
glyphname = horizontalbar;
layers = (
{
layerId = "35AD4BD0-1826-4A50-BA60-0A633C86B791";
paths = (
{
closed = 1;
nodes = (
"20 720 LINE",
"625 720 LINE",
"625 710 LINE",
"20 710 LINE"
);
}
);
width = 656;
}
);
leftKerningGroup = emdash;
rightKerningGroup = emdash;
unicode = 2015;
},
{
glyphname = parenleft;
layers = (
{
layerId = "35AD4BD0-1826-4A50-BA60-0A633C86B791";
paths = (
{
closed = 1;
nodes = (
"324 -357 OFFCURVE",
"58 152 OFFCURVE",
"122 517 QCURVE SMOOTH",
"124 526 LINE SMOOTH",
"188 891 OFFCURVE",
"633 1397 OFFCURVE",
"884 1476 QCURVE",
"882 1464 LINE",
"643 1390 OFFCURVE",
"198 884 OFFCURVE",
"135 530 QCURVE SMOOTH",
"132 510 LINE SMOOTH",
"70 156 OFFCURVE",
"336 -350 OFFCURVE",
"549 -424 QCURVE",
"547 -436 LINE"
);
}
);
width = 827;
}
);
rightKerningGroup = parens;
unicode = 0028;
},
{
glyphname = parenright;
layers = (
{
layerId = "35AD4BD0-1826-4A50-BA60-0A633C86B791";
paths = (
{
closed = 1;
nodes = (
"-132 -424 LINE",
"107 -350 OFFCURVE",
"553 156 OFFCURVE",
"615 510 QCURVE SMOOTH",
"618 530 LINE SMOOTH",
"681 884 OFFCURVE",
"414 1390 OFFCURVE",
"201 1464 QCURVE",
"203 1476 LINE",
"426 1397 OFFCURVE",
"693 888 OFFCURVE",
"628 523 QCURVE SMOOTH",
"627 514 LINE SMOOTH",
"562 149 OFFCURVE",
"117 -357 OFFCURVE",
"-134 -436 QCURVE"
);
}
);
width = 827;
}
);
leftKerningGroup = parens;
unicode = 0029;
},
{
glyphname = bracketleft;
layers = (
{
layerId = "35AD4BD0-1826-4A50-BA60-0A633C86B791";
paths = (
{
closed = 1;
nodes = (
"358 1456 LINE",
"839 1456 LINE",
"837 1446 LINE",
"366 1446 LINE",
"58 -300 LINE",
"529 -300 LINE",
"527 -310 LINE",
"46 -310 LINE"
);
}
);
width = 751;
}
);
rightKerningGroup = parens;
unicode = 005B;
},
{
glyphname = bracketright;
layers = (
{
layerId = "35AD4BD0-1826-4A50-BA60-0A633C86B791";
paths = (
{
closed = 1;
nodes = (
"-144 -310 LINE",
"-142 -300 LINE",
"329 -300 LINE",
"637 1446 LINE",
"166 1446 LINE",
"168 1456 LINE",
"649 1456 LINE",
"337 -310 LINE"
);
}
);
width = 751;
}
);
leftKerningGroup = parens;
unicode = 005D;
},
{
glyphname = braceleft;
layers = (
{
layerId = "35AD4BD0-1826-4A50-BA60-0A633C86B791";
paths = (
{
closed = 1;
nodes = (
"242 -322 OFFCURVE",
"75 -84 OFFCURVE",
"156 117 QCURVE SMOOTH",
"240 329 LINE SMOOTH",
"290 454 OFFCURVE",
"188 567 OFFCURVE",
"83 567 QCURVE",
"85 581 LINE",
"190 581 OFFCURVE",
"332 694 OFFCURVE",
"326 819 QCURVE SMOOTH",
"317 1031 LINE SMOOTH",
"307 1232 OFFCURVE",
"559 1472 OFFCURVE",
"840 1460 QCURVE",
"839 1450 LINE",
"566 1459 OFFCURVE",
"319 1230 OFFCURVE",
"328 1026 QCURVE SMOOTH",
"338 814 LINE SMOOTH",
"342 714 OFFCURVE",
"237 593 OFFCURVE",
"133 574 QCURVE",
"232 553 OFFCURVE",
"292 433 OFFCURVE",
"253 334 QCURVE SMOOTH",
"169 122 LINE SMOOTH",
"87 -83 OFFCURVE",
"250 -310 OFFCURVE",
"530 -302 QCURVE",
"528 -312 LINE"
);
}
);
width = 748;
}
);
rightKerningGroup = parens;
unicode = 007B;
},
{
glyphname = braceright;
layers = (
{
layerId = "35AD4BD0-1826-4A50-BA60-0A633C86B791";
paths = (
{
closed = 1;
nodes = (
"-146 -300 LINE",
"127 -309 OFFCURVE",
"374 -80 OFFCURVE",
"365 124 QCURVE SMOOTH",
"355 336 LINE SMOOTH",
"351 436 OFFCURVE",
"456 557 OFFCURVE",
"560 576 QCURVE",
"461 597 OFFCURVE",
"400 717 OFFCURVE",
"440 816 QCURVE SMOOTH",
"524 1028 LINE SMOOTH",
"605 1233 OFFCURVE",
"442 1460 OFFCURVE",
"163 1452 QCURVE",
"165 1462 LINE",
"451 1472 OFFCURVE",
"618 1234 OFFCURVE",
"537 1033 QCURVE SMOOTH",
"453 821 LINE SMOOTH",
"403 696 OFFCURVE",
"505 583 OFFCURVE",
"610 583 QCURVE",
"607 569 LINE",
"502 569 OFFCURVE",
"360 456 OFFCURVE",
"366 331 QCURVE SMOOTH",
"376 119 LINE SMOOTH",
"386 -82 OFFCURVE",
"134 -322 OFFCURVE",
"-148 -310 QCURVE"
);
}
);
width = 748;
}
);
leftKerningGroup = parens;
unicode = 007D;
},
{
glyphname = leftanglebracket;
layers = (
{
layerId = "35AD4BD0-1826-4A50-BA60-0A633C86B791";
paths = (
{
closed = 1;
nodes = (
"-16 665 LINE",
"586 1499 LINE",
"699 1413 LINE",
"175 604 LINE",
"698 -219 LINE",
"586 -304 LINE",
"-16 536 LINE"
);
}
);
width = 700;
}
);
rightKerningGroup = parens;
unicode = 27E8;
},
{
glyphname = rightanglebracket;
layers = (
{
layerId = "35AD4BD0-1826-4A50-BA60-0A633C86B791";
paths = (
{
closed = 1;
nodes = (
"508 591 LINE",
"-15 1414 LINE",
"97 1499 LINE",
"699 659 LINE",
"699 530 LINE",
"97 -304 LINE",
"-16 -218 LINE"
);
}
);
width = 700;
}
);
leftKerningGroup = parens;
unicode = 27E9;
},
{
glyphname = numbersign;
layers = (
{
layerId = "35AD4BD0-1826-4A50-BA60-0A633C86B791";
paths = (
{
closed = 1;
nodes = (
"810 1476 LINE",
"821 1476 LINE",
"113 -20 LINE",
"102 -20 LINE"
);
},
{
closed = 1;
nodes = (
"1300 1476 LINE",
"1310 1476 LINE",
"603 -20 LINE",
"591 -20 LINE"
);
},
{
closed = 1;
nodes = (
"36 485 LINE",
"1220 485 LINE",
"1218 475 LINE",
"34 475 LINE"
);
},
{
closed = 1;
nodes = (
"195 975 LINE",
"1378 975 LINE",
"1376 965 LINE",
"193 965 LINE"
);
}
);
width = 1415;
}
);
unicode = 0023;
},
{
glyphname = quotesingle;
layers = (
{
layerId = "35AD4BD0-1826-4A50-BA60-0A633C86B791";
paths = (
{
closed = 1;
nodes = (
"262 1321 LINE",
"286 1456 LINE",
"296 1456 LINE",
"272 1321 LINE",
"226 1073 LINE",
"221 1073 LINE"
);
}
);
width = 325;
}
);
leftKerningGroup = minute;
rightKerningGroup = minute;
unicode = 0027;
},
{
glyphname = quotedbl;
layers = (
{
layerId = "35AD4BD0-1826-4A50-BA60-0A633C86B791";
paths = (
{
closed = 1;
nodes = (
"259 1321 LINE",
"283 1456 LINE",
"293 1456 LINE",
"269 1321 LINE",
"223 1073 LINE",
"218 1073 LINE"
);
},
{
closed = 1;
nodes = (
"544 1321 LINE",
"568 1456 LINE",
"578 1456 LINE",
"554 1321 LINE",
"508 1073 LINE",
"503 1073 LINE"
);
}
);
width = 605;
}
);
leftKerningGroup = minute;
rightKerningGroup = minute;
unicode = 0022;
},
{
glyphname = quoteleft;
layers = (
{
layerId = "35AD4BD0-1826-4A50-BA60-0A633C86B791";
paths = (
{
closed = 1;
nodes = (
"143 1204 LINE SMOOTH",
"143 1303 OFFCURVE",
"195 1446 OFFCURVE",
"241 1495 QCURVE",
"246 1491 LINE",
"202 1443 OFFCURVE",
"153 1304 OFFCURVE",
"153 1203 QCURVE SMOOTH",
"153 1078 LINE",
"143 1078 LINE"
);
}
);
width = 348;
}
);
leftKerningGroup = minute;
rightKerningGroup = minute;
unicode = 2018;
},
{
glyphname = quoteright;
layers = (
{
layerId = "35AD4BD0-1826-4A50-BA60-0A633C86B791";
paths = (
{
closed = 1;
nodes = (
"205 1325 LINE SMOOTH",
"205 1226 OFFCURVE",
"153 1083 OFFCURVE",
"107 1034 QCURVE",
"102 1038 LINE",
"146 1086 OFFCURVE",
"195 1225 OFFCURVE",
"195 1326 QCURVE SMOOTH",
"195 1456 LINE",
"205 1456 LINE"
);
}
);
width = 348;
}
);
leftKerningGroup = minute;
rightKerningGroup = minute;
unicode = 2019;
},
{
glyphname = quotedblleft;
layers = (
{
layerId = "35AD4BD0-1826-4A50-BA60-0A633C86B791";
paths = (
{
closed = 1;
nodes = (
"143 1204 LINE SMOOTH",
"143 1303 OFFCURVE",
"195 1446 OFFCURVE",
"241 1495 QCURVE",
"246 1491 LINE",
"202 1443 OFFCURVE",
"153 1304 OFFCURVE",
"153 1203 QCURVE SMOOTH",
"153 1078 LINE",
"143 1078 LINE"
);
},
{
closed = 1;
nodes = (
"363 1204 LINE SMOOTH",
"363 1303 OFFCURVE",
"415 1446 OFFCURVE",
"461 1495 QCURVE",
"466 1491 LINE",
"422 1443 OFFCURVE",
"373 1304 OFFCURVE",
"373 1203 QCURVE SMOOTH",
"373 1078 LINE",
"363 1078 LINE"
);
}
);
width = 568;
}
);
leftKerningGroup = minute;
rightKerningGroup = minute;
unicode = 201C;
},
{
glyphname = quotedblright;
layers = (
{
layerId = "35AD4BD0-1826-4A50-BA60-0A633C86B791";
paths = (
{
closed = 1;
nodes = (
"205 1332 LINE SMOOTH",
"205 1233 OFFCURVE",
"153 1090 OFFCURVE",
"107 1041 QCURVE",
"102 1045 LINE",
"146 1093 OFFCURVE",
"195 1232 OFFCURVE",
"195 1333 QCURVE SMOOTH",
"195 1458 LINE",
"205 1458 LINE"
);
},
{
closed = 1;
nodes = (
"425 1332 LINE SMOOTH",
"425 1233 OFFCURVE",
"373 1090 OFFCURVE",
"327 1041 QCURVE",
"322 1045 LINE",
"366 1093 OFFCURVE",
"415 1232 OFFCURVE",
"415 1333 QCURVE SMOOTH",
"415 1458 LINE",
"425 1458 LINE"
);
}
);
width = 568;
}
);
leftKerningGroup = minute;
rightKerningGroup = minute;
unicode = 201D;
},
{
glyphname = quotesinglbase;
layers = (
{
layerId = "35AD4BD0-1826-4A50-BA60-0A633C86B791";
paths = (
{
closed = 1;
nodes = (
"205 94 LINE SMOOTH",
"205 -5 OFFCURVE",
"153 -148 OFFCURVE",
"107 -197 QCURVE",
"102 -193 LINE",
"146 -145 OFFCURVE",
"195 -6 OFFCURVE",
"195 95 QCURVE SMOOTH",
"195 220 LINE",
"205 220 LINE"
);
}
);
width = 348;
}
);
leftKerningGroup = comma;
rightKerningGroup = comma;
unicode = 201A;
},
{
glyphname = quotedblbase;
layers = (
{
layerId = "35AD4BD0-1826-4A50-BA60-0A633C86B791";
paths = (
{
closed = 1;
nodes = (
"205 94 LINE SMOOTH",
"205 -5 OFFCURVE",
"153 -148 OFFCURVE",
"107 -197 QCURVE",
"102 -193 LINE",
"146 -145 OFFCURVE",
"195 -6 OFFCURVE",
"195 95 QCURVE SMOOTH",
"195 220 LINE",
"205 220 LINE"
);
},
{
closed = 1;
nodes = (
"425 94 LINE SMOOTH",
"425 -5 OFFCURVE",
"373 -148 OFFCURVE",
"327 -197 QCURVE",
"322 -193 LINE",
"366 -145 OFFCURVE",
"415 -6 OFFCURVE",
"415 95 QCURVE SMOOTH",
"415 220 LINE",
"425 220 LINE"
);
}
);
width = 568;
}
);
leftKerningGroup = comma;
rightKerningGroup = comma;
unicode = 201E;
},
{
glyphname = guilsinglleft;
layers = (
{
guideLines = (
{
position = "{0, 901}";
},
{
position = "{0, 555}";
}
);
layerId = "35AD4BD0-1826-4A50-BA60-0A633C86B791";
paths = (
{
closed = 1;
nodes = (
"108 581 LINE",
"403 949 LINE",
"565 949 LINE",
"307 551 LINE",
"565 153 LINE",
"403 153 LINE",
"108 522 LINE"
);
}
);
width = 652;
}
);
leftKerningGroup = guillemotleft;
rightKerningGroup = guillemotleft;
unicode = 2039;
userData = {
com.typemytype.robofont.guideline.magnetic.Amp5Ormvx4 = 5;
com.typemytype.robofont.guideline.magnetic.JDX5vz3jKp = 5;
};
},
{
glyphname = guilsinglright;
layers = (
{
guideLines = (
{
position = "{0, 901}";
},
{
position = "{0, 555}";
}
);
layerId = "35AD4BD0-1826-4A50-BA60-0A633C86B791";
paths = (
{
closed = 1;
nodes = (
"345 551 LINE",
"87 949 LINE",
"249 949 LINE",
"544 581 LINE",
"544 522 LINE",
"249 153 LINE",
"87 153 LINE"
);
}
);
width = 652;
}
);
leftKerningGroup = guillemotright;
rightKerningGroup = guillemotright;
unicode = 203A;
userData = {
com.typemytype.robofont.guideline.magnetic.Amp5Ormvx4 = 5;
com.typemytype.robofont.guideline.magnetic.JDX5vz3jKp = 5;
};
},
{
glyphname = guillemotleft;
layers = (
{
guideLines = (
{
position = "{0, 901}";
},
{
position = "{0, 555}";
}
);
layerId = "35AD4BD0-1826-4A50-BA60-0A633C86B791";
paths = (
{
closed = 1;
nodes = (
"108 581 LINE",
"403 949 LINE",
"565 949 LINE",
"307 551 LINE",
"565 153 LINE",
"403 153 LINE",
"108 522 LINE"
);
},
{
closed = 1;
nodes = (
"548 581 LINE",
"843 949 LINE",
"1005 949 LINE",
"747 551 LINE",
"1005 153 LINE",
"843 153 LINE",
"548 522 LINE"
);
}
);
width = 1092;
}
);
leftKerningGroup = guillemotleft;
rightKerningGroup = guillemotleft;
unicode = 00AB;
userData = {
com.typemytype.robofont.guideline.magnetic.MVJpdoVRVd = 5;
com.typemytype.robofont.guideline.magnetic.ZftBQarVKw = 5;
};
},
{
glyphname = guillemotright;
layers = (
{
guideLines = (
{
position = "{0, 98}";
},
{
position = "{0, 443}";
}
);
layerId = "35AD4BD0-1826-4A50-BA60-0A633C86B791";
paths = (
{
closed = 1;
nodes = (
"345 551 LINE",
"87 949 LINE",
"249 949 LINE",
"544 581 LINE",
"544 522 LINE",
"249 153 LINE",
"87 153 LINE"
);
},
{
closed = 1;
nodes = (
"785 551 LINE",
"527 949 LINE",
"689 949 LINE",
"984 581 LINE",
"984 522 LINE",
"689 153 LINE",
"527 153 LINE"
);
}
);
width = 1092;
}
);
leftKerningGroup = guillemotright;
rightKerningGroup = guillemotright;
unicode = 00BB;
userData = {
com.typemytype.robofont.guideline.magnetic.G9bQni2n1K = 5;
com.typemytype.robofont.guideline.magnetic.MTEldNnfdj = 5;
};
},
{
glyphname = asterisk;
layers = (
{
layerId = "35AD4BD0-1826-4A50-BA60-0A633C86B791";
paths = (
{
closed = 1;
nodes = (
"140 1166 LINE",
"543 1026 LINE",
"619 1476 LINE",
"635 1476 LINE",
"553 1026 LINE",
"1006 1167 LINE",
"1008 1151 LINE",
"555 1015 LINE",
"758 651 LINE",
"744 642 LINE",
"546 1008 LINE",
"218 641 LINE",
"207 651 LINE",
"538 1015 LINE",
"132 1151 LINE"
);
}
);
width = 1032;
}
);
unicode = 002A;
},
{
glyphname = dagger;
layers = (
{
layerId = "35AD4BD0-1826-4A50-BA60-0A633C86B791";
paths = (
{
closed = 1;
nodes = (
"402 8 LINE",
"423 748 LINE",
"423 852 LINE",
"72 852 LINE",
"72 1025 LINE",
"419 1025 LINE",
"406 1508 LINE",
"597 1508 LINE",
"584 1025 LINE",
"931 1025 LINE",
"931 852 LINE",
"580 852 LINE",
"580 748 LINE",
"601 8 LINE",
"597 -274 LINE",
"524 -415 OFFCURVE",
"480 -416 OFFCURVE",
"406 -274 QCURVE"
);
}
);
width = 1008;
}
);
unicode = 2020;
},
{
glyphname = daggerdbl;
layers = (
{
layerId = "35AD4BD0-1826-4A50-BA60-0A633C86B791";
paths = (
{
closed = 1;
nodes = (
"77 204 LINE",
"428 204 LINE",
"408 534 LINE",
"423 855 LINE",
"77 855 LINE",
"77 1022 LINE",
"409 1022 LINE",
"406 1508 LINE",
"597 1508 LINE",
"594 1022 LINE",
"926 1022 LINE",
"926 855 LINE",
"580 855 LINE",
"595 534 LINE",
"575 204 LINE",
"926 204 LINE",
"926 38 LINE",
"589 38 LINE",
"592 -452 LINE",
"411 -452 LINE",
"414 38 LINE",
"77 38 LINE"
);
}
);
width = 1008;
}
);
unicode = 2021;
},
{
glyphname = period;
layers = (
{
layerId = "35AD4BD0-1826-4A50-BA60-0A633C86B791";
paths = (
{
closed = 1;
nodes = (
"171 34 OFFCURVE",
"184 48 OFFCURVE",
"197 48 QCURVE SMOOTH",
"210 48 OFFCURVE",
"223 34 OFFCURVE",
"223 22 QCURVE SMOOTH",
"223 11 OFFCURVE",
"209 -3 OFFCURVE",
"196 -3 QCURVE SMOOTH",
"184 -3 OFFCURVE",
"171 11 OFFCURVE",
"171 23 QCURVE SMOOTH"
);
}
);
width = 652;
}
);
leftKerningGroup = comma;
rightKerningGroup = comma;
unicode = 002E;
},
{
glyphname = comma;
layers = (
{
layerId = "35AD4BD0-1826-4A50-BA60-0A633C86B791";
paths = (
{
closed = 1;
nodes = (
"111 -119 OFFCURVE",
"206 6 OFFCURVE",
"221 114 QCURVE SMOOTH",
"227 156 LINE",
"237 157 LINE",
"231 116 LINE SMOOTH",
"215 8 OFFCURVE",
"119 -126 OFFCURVE",
"49 -165 QCURVE",
"42 -158 LINE"
);
}
);
width = 624;
}
);
leftKerningGroup = comma;
rightKerningGroup = comma;
unicode = 002C;
},
{
glyphname = colon;
layers = (
{
layerId = "35AD4BD0-1826-4A50-BA60-0A633C86B791";
paths = (
{
closed = 1;
nodes = (
"93 34 OFFCURVE",
"106 48 OFFCURVE",
"119 48 QCURVE SMOOTH",
"132 48 OFFCURVE",
"145 34 OFFCURVE",
"145 22 QCURVE SMOOTH",
"145 11 OFFCURVE",
"131 -3 OFFCURVE",
"118 -3 QCURVE SMOOTH",
"106 -3 OFFCURVE",
"93 11 OFFCURVE",
"93 23 QCURVE SMOOTH"
);
},
{
closed = 1;
nodes = (
"247 900 OFFCURVE",
"260 914 OFFCURVE",
"273 914 QCURVE SMOOTH",
"286 914 OFFCURVE",
"299 900 OFFCURVE",
"299 888 QCURVE SMOOTH",
"299 877 OFFCURVE",
"285 863 OFFCURVE",
"272 863 QCURVE SMOOTH",
"260 863 OFFCURVE",
"247 877 OFFCURVE",
"247 889 QCURVE SMOOTH"
);
}
);
width = 526;
}
);
leftKerningGroup = colon;
rightKerningGroup = colon;
unicode = 003A;
},
{
glyphname = semicolon;
layers = (
{
layerId = "35AD4BD0-1826-4A50-BA60-0A633C86B791";
paths = (
{
closed = 1;
nodes = (
"44 -119 OFFCURVE",
"140 5 OFFCURVE",
"154 114 QCURVE SMOOTH",
"159 156 LINE",
"169 157 LINE",
"164 116 LINE SMOOTH",
"151 9 OFFCURVE",
"52 -126 OFFCURVE",
"-18 -165 QCURVE",
"-25 -158 LINE"
);
},
{
closed = 1;
nodes = (
"247 900 OFFCURVE",
"260 914 OFFCURVE",
"273 914 QCURVE SMOOTH",
"286 914 OFFCURVE",
"299 900 OFFCURVE",
"299 888 QCURVE SMOOTH",
"299 877 OFFCURVE",
"285 863 OFFCURVE",
"272 863 QCURVE SMOOTH",
"260 863 OFFCURVE",
"247 877 OFFCURVE",
"247 889 QCURVE SMOOTH"
);
}
);
width = 526;
}
);
leftKerningGroup = colon;
rightKerningGroup = colon;
unicode = 003B;
},
{
glyphname = exclam;
layers = (
{
layerId = "35AD4BD0-1826-4A50-BA60-0A633C86B791";
paths = (
{
closed = 1;
nodes = (
"125 34 OFFCURVE",
"140 48 OFFCURVE",
"153 48 QCURVE SMOOTH",
"166 48 OFFCURVE",
"177 34 OFFCURVE",
"175 22 QCURVE SMOOTH",
"173 11 OFFCURVE",
"156 -3 OFFCURVE",
"143 -3 QCURVE SMOOTH",
"131 -3 OFFCURVE",
"121 11 OFFCURVE",
"123 23 QCURVE SMOOTH"
);
},
{
closed = 1;
nodes = (
"396 1456 LINE",
"408 1456 LINE",
"219 394 LINE",
"209 394 LINE"
);
}
);
width = 548;
}
);
unicode = 0021;
},
{
glyphname = exclamdown;
layers = (
{
layerId = "35AD4BD0-1826-4A50-BA60-0A633C86B791";
paths = (
{
closed = 1;
nodes = (
"434 1004 OFFCURVE",
"370 934 OFFCURVE",
"310 934 QCURVE SMOOTH",
"250 934 OFFCURVE",
"186 1004 OFFCURVE",
"186 1053 QCURVE SMOOTH",
"186 1102 OFFCURVE",
"250 1172 OFFCURVE",
"310 1172 QCURVE SMOOTH",
"370 1172 OFFCURVE",
"434 1102 OFFCURVE",
"434 1053 QCURVE SMOOTH"
);
},
{
closed = 1;
nodes = (
"407 -306 LINE",
"213 -306 LINE",
"228 740 LINE",
"392 740 LINE"
);
}
);
width = 620;
}
);
unicode = 00A1;
},
{
glyphname = question;
layers = (
{
layerId = "35AD4BD0-1826-4A50-BA60-0A633C86B791";
paths = (
{
closed = 1;
nodes = (
"374 34 OFFCURVE",
"389 48 OFFCURVE",
"402 48 QCURVE SMOOTH",
"415 48 OFFCURVE",
"426 34 OFFCURVE",
"424 22 QCURVE SMOOTH",
"422 11 OFFCURVE",
"405 -3 OFFCURVE",
"392 -3 QCURVE SMOOTH",
"380 -3 OFFCURVE",
"370 11 OFFCURVE",
"372 23 QCURVE SMOOTH"
);
},
{
closed = 1;
nodes = (
"135 1130 LINE SMOOTH",
"162 1279 OFFCURVE",
"474 1480 OFFCURVE",
"687 1480 QCURVE SMOOTH",
"918 1480 OFFCURVE",
"1109 1318 OFFCURVE",
"1088 1160 QCURVE SMOOTH",
"1068 1006 OFFCURVE",
"881 860 OFFCURVE",
"748 797 QCURVE SMOOTH",
"614 734 OFFCURVE",
"483 513 OFFCURVE",
"464 405 QCURVE SMOOTH",
"456 355 LINE",
"446 355 LINE",
"454 405 LINE SMOOTH",
"475 519 OFFCURVE",
"608 742 OFFCURVE",
"744 806 QCURVE SMOOTH",
"880 870 OFFCURVE",
"1057 1009 OFFCURVE",
"1077 1159 QCURVE SMOOTH",
"1097 1311 OFFCURVE",
"908 1470 OFFCURVE",
"685 1470 QCURVE SMOOTH",
"479 1470 OFFCURVE",
"170 1273 OFFCURVE",
"143 1118 QCURVE SMOOTH",
"136 1076 LINE",
"126 1076 LINE"
);
}
);
width = 1076;
}
);
unicode = 003F;
},
{
glyphname = questiondown;
layers = (
{
guideLines = (
{
position = "{0, -181}";
},
{
position = "{0, 921}";
}
);
layerId = "35AD4BD0-1826-4A50-BA60-0A633C86B791";
paths = (
{
closed = 1;
nodes = (
"648 1002 OFFCURVE",
"584 932 OFFCURVE",
"524 932 QCURVE SMOOTH",
"464 932 OFFCURVE",
"400 1002 OFFCURVE",
"400 1051 QCURVE SMOOTH",
"400 1100 OFFCURVE",
"464 1170 OFFCURVE",
"524 1170 QCURVE SMOOTH",
"584 1170 OFFCURVE",
"648 1100 OFFCURVE",
"648 1051 QCURVE SMOOTH"
);
},
{
closed = 1;
nodes = (
"908 33 LINE SMOOTH",
"908 -132 OFFCURVE",
"688 -328 OFFCURVE",
"498 -328 QCURVE SMOOTH",
"308 -328 OFFCURVE",
"94 -122 OFFCURVE",
"94 48 QCURVE SMOOTH",
"94 182 OFFCURVE",
"242 390 OFFCURVE",
"314 454 QCURVE SMOOTH",
"399 531 OFFCURVE",
"440 658 OFFCURVE",
"440 728 QCURVE SMOOTH",
"440 738 LINE",
"626 738 LINE",
"626 728 LINE SMOOTH",
"626 603 OFFCURVE",
"562 459 OFFCURVE",
"466 365 QCURVE SMOOTH",
"384 284 OFFCURVE",
"280 148 OFFCURVE",
"280 48 QCURVE SMOOTH",
"280 -52 OFFCURVE",
"388 -166 OFFCURVE",
"498 -166 QCURVE SMOOTH",
"608 -166 OFFCURVE",
"723 -62 OFFCURVE",
"723 33 QCURVE SMOOTH",
"723 53 LINE",
"908 53 LINE"
);
}
);
width = 968;
}
);
unicode = 00BF;
userData = {
com.typemytype.robofont.guideline.magnetic.5ZPZZL8Rim = 5;
com.typemytype.robofont.guideline.magnetic.apukwP5ffL = 5;
};
},
{
glyphname = slash;
layers = (
{
layerId = "35AD4BD0-1826-4A50-BA60-0A633C86B791";
paths = (
{
closed = 1;
nodes = (
"842 1456 LINE",
"855 1456 LINE",
"-229 -125 LINE",
"-241 -125 LINE"
);
}
);
width = 739;
}
);
unicode = 002F;
},
{
glyphname = backslash;
layers = (
{
layerId = "35AD4BD0-1826-4A50-BA60-0A633C86B791";
paths = (
{
closed = 1;
nodes = (
"99 1456 LINE",
"774 -125 LINE",
"760 -125 LINE",
"84 1456 LINE"
);
}
);
width = 828;
}
);
unicode = 005C;
},
{
glyphname = fraction;
layers = (
{
guideLines = (
{
position = "{0, 901}";
},
{
position = "{0, 555}";
}
);
layerId = "35AD4BD0-1826-4A50-BA60-0A633C86B791";
paths = (
{
closed = 1;
nodes = (
"-375 -24 LINE",
"-383 -18 LINE",
"730 1480 LINE",
"738 1473 LINE"
);
}
);
width = 342;
}
);
unicode = 2044;
userData = {
com.typemytype.robofont.guideline.magnetic.0lx51aIE0d = 5;
com.typemytype.robofont.guideline.magnetic.tcCoNUQTdD = 5;
};
},
{
glyphname = bar;
layers = (
{
layerId = "35AD4BD0-1826-4A50-BA60-0A633C86B791";
paths = (
{
closed = 1;
nodes = (
"386 1456 LINE",
"395 1456 LINE",
"65 -416 LINE",
"56 -416 LINE"
);
}
);
width = 524;
}
);
unicode = 007C;
},
{
glyphname = brokenbar;
layers = (
{
guideLines = (
{
position = "{0, 901}";
},
{
position = "{0, 555}";
}
);
layerId = "35AD4BD0-1826-4A50-BA60-0A633C86B791";
paths = (
{
closed = 1;
nodes = (
"205 -416 LINE",
"205 359 LINE",
"387 359 LINE",
"387 -416 LINE"
);
},
{
closed = 1;
nodes = (
"387 761 LINE",
"205 761 LINE",
"205 1536 LINE",
"387 1536 LINE"
);
}
);
width = 592;
}
);
unicode = 00A6;
userData = {
com.typemytype.robofont.guideline.magnetic.Z0RZpP7MTi = 5;
com.typemytype.robofont.guideline.magnetic.jmguX8NWKI = 5;
};
},
{
glyphname = at;
layers = (
{
layerId = "35AD4BD0-1826-4A50-BA60-0A633C86B791";
paths = (
{
closed = 1;
nodes = (
"681 680 OFFCURVE",
"1004 1052 OFFCURVE",
"1194 1052 QCURVE SMOOTH",
"1281 1052 OFFCURVE",
"1399 977 OFFCURVE",
"1426 944 QCURVE",
"1439 946 LINE",
"1206 350 LINE SMOOTH",
"1139 185 OFFCURVE",
"1237 11 OFFCURVE",
"1368 11 QCURVE SMOOTH",
"1554 11 OFFCURVE",
"1864 366 OFFCURVE",
"1914 650 QCURVE SMOOTH",
"1975 996 OFFCURVE",
"1613 1476 OFFCURVE",
"1223 1476 QCURVE SMOOTH",
"804 1476 OFFCURVE",
"189 875 OFFCURVE",
"116 460 QCURVE SMOOTH",
"43 43 OFFCURVE",
"417 -436 OFFCURVE",
"801 -436 QCURVE SMOOTH",
"946 -436 OFFCURVE",
"1143 -382 OFFCURVE",
"1221 -346 QCURVE",
"1219 -356 LINE",
"1143 -390 OFFCURVE",
"947 -446 OFFCURVE",
"799 -446 QCURVE SMOOTH",
"410 -446 OFFCURVE",
"32 40 OFFCURVE",
"106 460 QCURVE SMOOTH",
"180 880 OFFCURVE",
"800 1486 OFFCURVE",
"1225 1486 QCURVE SMOOTH",
"1621 1486 OFFCURVE",
"1985 1000 OFFCURVE",
"1924 650 QCURVE SMOOTH",
"1872 360 OFFCURVE",
"1556 0 OFFCURVE",
"1363 0 QCURVE SMOOTH",
"1246 0 OFFCURVE",
"1133 153 OFFCURVE",
"1176 298 QCURVE",
"1112 171 OFFCURVE",
"910 0 OFFCURVE",
"819 0 QCURVE SMOOTH",
"696 0 OFFCURVE",
"598 209 OFFCURVE",
"632 400 QCURVE SMOOTH"
);
},
{
closed = 1;
nodes = (
"609 213 OFFCURVE",
"704 10 OFFCURVE",
"823 10 QCURVE SMOOTH",
"919 10 OFFCURVE",
"1140 213 OFFCURVE",
"1211 396 QCURVE SMOOTH",
"1421 934 LINE",
"1384 972 OFFCURVE",
"1275 1042 OFFCURVE",
"1194 1042 QCURVE SMOOTH",
"1009 1042 OFFCURVE",
"690 675 OFFCURVE",
"642 400 QCURVE SMOOTH"
);
}
);
width = 2078;
}
);
unicode = 0040;
},
{
glyphname = ampersand;
layers = (
{
layerId = "35AD4BD0-1826-4A50-BA60-0A633C86B791";
paths = (
{
closed = 1;
nodes = (
"61 453 OFFCURVE",
"223 627 OFFCURVE",
"366 702 QCURVE SMOOTH",
"679 866 LINE SMOOTH",
"816 938 OFFCURVE",
"1009 1099 OFFCURVE",
"1027 1204 QCURVE SMOOTH",
"1047 1315 OFFCURVE",
"887 1476 OFFCURVE",
"738 1476 QCURVE SMOOTH",
"582 1476 OFFCURVE",
"350 1287 OFFCURVE",
"326 1153 QCURVE SMOOTH",
"312 1072 OFFCURVE",
"377 902 OFFCURVE",
"484 789 QCURVE SMOOTH",
"1235 0 LINE",
"1219 0 LINE",
"506 748 LINE SMOOTH",
"380 880 OFFCURVE",
"300 1061 OFFCURVE",
"316 1153 QCURVE SMOOTH",
"341 1292 OFFCURVE",
"576 1486 OFFCURVE",
"740 1486 QCURVE SMOOTH",
"894 1486 OFFCURVE",
"1058 1321 OFFCURVE",
"1037 1205 QCURVE SMOOTH",
"1018 1093 OFFCURVE",
"824 932 OFFCURVE",
"683 858 QCURVE SMOOTH",
"375 696 LINE SMOOTH",
"229 620 OFFCURVE",
"70 448 OFFCURVE",
"50 336 QCURVE SMOOTH",
"25 195 OFFCURVE",
"230 -10 OFFCURVE",
"463 -10 QCURVE SMOOTH",
"791 -10 OFFCURVE",
"1209 362 OFFCURVE",
"1264 674 QCURVE",
"1275 674 LINE",
"1219 357 OFFCURVE",
"794 -20 OFFCURVE",
"461 -20 QCURVE SMOOTH",
"220 -20 OFFCURVE",
"15 190 OFFCURVE",
"40 334 QCURVE SMOOTH"
);
}
);
width = 1334;
}
);
unicode = 0026;
},
{
glyphname = section;
layers = (
{
guideLines = (
{
position = "{0, 1658}";
},
{
position = "{0, 578}";
}
);
layerId = "35AD4BD0-1826-4A50-BA60-0A633C86B791";
paths = (
{
closed = 1;
nodes = (
"691 252 LINE",
"801 252 OFFCURVE",
"954 376 OFFCURVE",
"954 463 QCURVE",
"954 556 OFFCURVE",
"787 672 OFFCURVE",
"606 734 QCURVE SMOOTH",
"413 794 OFFCURVE",
"196 949 OFFCURVE",
"196 1129 QCURVE SMOOTH",
"196 1305 OFFCURVE",
"421 1490 OFFCURVE",
"623 1491 QCURVE SMOOTH",
"816 1492 OFFCURVE",
"1040 1294 OFFCURVE",
"1039 1100 QCURVE",
"874 1100 LINE",
"875 1200 OFFCURVE",
"744 1337 OFFCURVE",
"623 1337 QCURVE SMOOTH",
"483 1337 OFFCURVE",
"361 1239 OFFCURVE",
"361 1140 QCURVE SMOOTH",
"361 1049 OFFCURVE",
"484 961 OFFCURVE",
"684 897 QCURVE SMOOTH",
"868 839 OFFCURVE",
"1135 652 OFFCURVE",
"1135 478 QCURVE SMOOTH",
"1135 315 OFFCURVE",
"870 133 OFFCURVE",
"691 133 QCURVE"
);
},
{
closed = 1;
nodes = (
"536 756 LINE",
"425 756 OFFCURVE",
"301 649 OFFCURVE",
"301 567 QCURVE SMOOTH",
"301 487 OFFCURVE",
"447 387 OFFCURVE",
"636 317 QCURVE SMOOTH",
"812 252 OFFCURVE",
"1048 66 OFFCURVE",
"1048 -113 QCURVE SMOOTH",
"1048 -298 OFFCURVE",
"794 -509 OFFCURVE",
"599 -509 QCURVE SMOOTH",
"404 -509 OFFCURVE",
"131 -303 OFFCURVE",
"131 -72 QCURVE",
"295 -70 LINE",
"295 -230 OFFCURVE",
"493 -355 OFFCURVE",
"599 -355 QCURVE SMOOTH",
"716 -355 OFFCURVE",
"884 -244 OFFCURVE",
"884 -136 QCURVE SMOOTH",
"884 -35 OFFCURVE",
"742 94 OFFCURVE",
"540 161 QCURVE SMOOTH",
"355 222 OFFCURVE",
"119 420 OFFCURVE",
"119 577 QCURVE SMOOTH",
"119 727 OFFCURVE",
"375 894 OFFCURVE",
"537 894 QCURVE"
);
}
);
width = 1256;
}
);
unicode = 00A7;
userData = {
com.typemytype.robofont.guideline.magnetic.9Hxjf2sdFw = 5;
com.typemytype.robofont.guideline.magnetic.QzZ5gIiCyn = 5;
};
},
{
glyphname = paragraph;
layers = (
{
guideLines = (
{
position = "{0, 901}";
},
{
position = "{0, 555}";
}
);
layerId = "35AD4BD0-1826-4A50-BA60-0A633C86B791";
paths = (
{
closed = 1;
nodes = (
"547 -146 LINE",
"547 696 LINE",
"460 696 LINE SMOOTH",
"265 696 OFFCURVE",
"56 912 OFFCURVE",
"56 1076 QCURVE SMOOTH",
"56 1238 OFFCURVE",
"265 1456 OFFCURVE",
"460 1456 QCURVE SMOOTH",
"733 1456 LINE",
"733 -146 LINE"
);
},
{
closed = 1;
nodes = (
"1061 1459 LINE",
"1061 -146 LINE",
"875 -146 LINE",
"875 1459 LINE"
);
}
);
width = 1261;
}
);
unicode = 00B6;
userData = {
com.typemytype.robofont.guideline.magnetic.27539Lsr1A = 5;
com.typemytype.robofont.guideline.magnetic.e34wUdCmXR = 5;
};
},
{
glyphname = numero;
layers = (
{
layerId = "35AD4BD0-1826-4A50-BA60-0A633C86B791";
paths = (
{
closed = 1;
nodes = (
"170 1456 LINE",
"365 1456 LINE",
"967 416 LINE SMOOTH",
"985 386 OFFCURVE",
"1021 326 OFFCURVE",
"1033 301 QCURVE",
"1043 301 LINE",
"1039 331 OFFCURVE",
"1037 406 OFFCURVE",
"1037 436 QCURVE SMOOTH",
"1037 1456 LINE",
"1214 1456 LINE",
"1214 0 LINE",
"1017 0 LINE",
"407 1028 LINE SMOOTH",
"388 1059 OFFCURVE",
"362 1118 OFFCURVE",
"355 1145 QCURVE",
"345 1145 LINE",
"349 1115 OFFCURVE",
"350 1040 OFFCURVE",
"350 1010 QCURVE SMOOTH",
"350 0 LINE",
"170 0 LINE"
);
},
{
closed = 1;
nodes = (
"1353 1019 LINE SMOOTH",
"1353 1219 OFFCURVE",
"1593 1473 OFFCURVE",
"1789 1473 QCURVE SMOOTH",
"1985 1473 OFFCURVE",
"2226 1219 OFFCURVE",
"2226 1019 QCURVE SMOOTH",
"2226 992 LINE SMOOTH",
"2226 792 OFFCURVE",
"1997 539 OFFCURVE",
"1789 539 QCURVE SMOOTH",
"1581 539 OFFCURVE",
"1353 792 OFFCURVE",
"1353 992 QCURVE SMOOTH"
);
},
{
closed = 1;
nodes = (
"1551 991 LINE SMOOTH",
"1551 864 OFFCURVE",
"1668 699 OFFCURVE",
"1789 699 QCURVE SMOOTH",
"1910 699 OFFCURVE",
"2028 864 OFFCURVE",
"2028 991 QCURVE SMOOTH",
"2028 1016 LINE SMOOTH",
"2028 1143 OFFCURVE",
"1909 1308 OFFCURVE",
"1789 1308 QCURVE SMOOTH",
"1669 1308 OFFCURVE",
"1551 1143 OFFCURVE",
"1551 1016 QCURVE SMOOTH"
);
},
{
closed = 1;
nodes = (
"1393 414 LINE",
"2186 414 LINE",
"2186 232 LINE",
"1393 232 LINE"
);
}
);
width = 2331;
}
);
unicode = 2116;
},
{
glyphname = periodcentered;
layers = (
{
layerId = "35AD4BD0-1826-4A50-BA60-0A633C86B791";
paths = (
{
closed = 1;
nodes = (
"176 798 OFFCURVE",
"240 868 OFFCURVE",
"300 868 QCURVE SMOOTH",
"360 868 OFFCURVE",
"424 798 OFFCURVE",
"424 749 QCURVE SMOOTH",
"424 700 OFFCURVE",
"360 630 OFFCURVE",
"300 630 QCURVE SMOOTH",
"240 630 OFFCURVE",
"176 700 OFFCURVE",
"176 749 QCURVE SMOOTH"
);
}
);
width = 600;
}
);
unicode = 00B7;
},
{
glyphname = bullet;
layers = (
{
layerId = "35AD4BD0-1826-4A50-BA60-0A633C86B791";
paths = (
{
closed = 1;
nodes = (
"104 889 OFFCURVE",
"266 1061 OFFCURVE",
"392 1061 QCURVE SMOOTH",
"518 1061 OFFCURVE",
"680 889 OFFCURVE",
"680 773 QCURVE SMOOTH",
"680 659 OFFCURVE",
"518 487 OFFCURVE",
"392 487 QCURVE SMOOTH",
"266 487 OFFCURVE",
"104 659 OFFCURVE",
"104 773 QCURVE SMOOTH"
);
}
);
width = 784;
}
);
unicode = 2022;
},
{
glyphname = minute;
layers = (
{
layerId = "35AD4BD0-1826-4A50-BA60-0A633C86B791";
paths = (
{
closed = 1;
nodes = (
"395 1559 LINE",
"588 1452 LINE SMOOTH",
"231 884 LINE",
"100 964 LINE"
);
}
);
width = 654;
}
);
leftKerningGroup = minute;
rightKerningGroup = minute;
unicode = 2032;
},
{
glyphname = second;
layers = (
{
layerId = "35AD4BD0-1826-4A50-BA60-0A633C86B791";
paths = (
{
closed = 1;
nodes = (
"395 1559 LINE",
"588 1452 LINE SMOOTH",
"231 884 LINE",
"100 964 LINE"
);
},
{
closed = 1;
nodes = (
"795 1559 LINE",
"988 1452 LINE SMOOTH",
"631 884 LINE",
"500 964 LINE"
);
}
);
width = 1054;
}
);
leftKerningGroup = minute;
rightKerningGroup = minute;
unicode = 2033;
},
{
glyphname = plus;
layers = (
{
layerId = "35AD4BD0-1826-4A50-BA60-0A633C86B791";
paths = (
{
closed = 1;
nodes = (
"150 709 LINE",
"1012 709 LINE",
"1010 699 LINE",
"148 699 LINE"
);
},
{
closed = 1;
nodes = (
"657 1170 LINE",
"667 1170 LINE",
"503 238 LINE",
"493 238 LINE"
);
}
);
width = 1170;
}
);
unicode = 002B;
},
{
glyphname = minus;
layers = (
{
layerId = "35AD4BD0-1826-4A50-BA60-0A633C86B791";
paths = (
{
closed = 1;
nodes = (
"57 768 LINE",
"967 768 LINE",
"967 588 LINE",
"57 588 LINE"
);
}
);
width = 1024;
}
);
unicode = 2212;
},
{
glyphname = plusminus;
layers = (
{
layerId = "35AD4BD0-1826-4A50-BA60-0A633C86B791";
paths = (
{
closed = 1;
nodes = (
"57 775 LINE",
"967 775 LINE",
"967 611 LINE",
"57 611 LINE"
);
},
{
closed = 1;
nodes = (
"422 1160 LINE",
"602 1160 LINE",
"602 248 LINE",
"422 248 LINE"
);
},
{
closed = 1;
nodes = (
"57 165 LINE",
"967 165 LINE",
"967 1 LINE",
"57 1 LINE"
);
}
);
width = 1024;
}
);
unicode = 00B1;
},
{
glyphname = divide;
layers = (
{
layerId = "35AD4BD0-1826-4A50-BA60-0A633C86B791";
paths = (
{
closed = 1;
nodes = (
"386 1118 OFFCURVE",
"449 1188 OFFCURVE",
"511 1188 QCURVE SMOOTH",
"572 1188 OFFCURVE",
"637 1118 OFFCURVE",
"637 1065 QCURVE SMOOTH",
"637 1014 OFFCURVE",
"572 945 OFFCURVE",
"511 945 QCURVE SMOOTH",
"449 945 OFFCURVE",
"386 1014 OFFCURVE",
"386 1065 QCURVE SMOOTH"
);
},
{
closed = 1;
nodes = (
"386 340 OFFCURVE",
"449 411 OFFCURVE",
"511 411 QCURVE SMOOTH",
"572 411 OFFCURVE",
"637 340 OFFCURVE",
"637 288 QCURVE SMOOTH",
"637 237 OFFCURVE",
"572 167 OFFCURVE",
"511 167 QCURVE SMOOTH",
"449 167 OFFCURVE",
"386 237 OFFCURVE",
"386 288 QCURVE SMOOTH"
);
},
{
closed = 1;
nodes = (
"57 768 LINE",
"967 768 LINE",
"967 588 LINE",
"57 588 LINE"
);
}
);
width = 1024;
}
);
unicode = 00F7;
},
{
glyphname = multiply;
layers = (
{
layerId = "35AD4BD0-1826-4A50-BA60-0A633C86B791";
paths = (
{
closed = 1;
nodes = (
"82 349 LINE",
"820 1104 LINE",
"928 991 LINE",
"190 237 LINE"
);
},
{
closed = 1;
nodes = (
"85 980 LINE",
"204 1104 LINE",
"931 360 LINE",
"812 237 LINE"
);
}
);
width = 1024;
}
);
unicode = 00D7;
},
{
glyphname = equal;
layers = (
{
layerId = "35AD4BD0-1826-4A50-BA60-0A633C86B791";
paths = (
{
closed = 1;
nodes = (
"157 501 LINE",
"899 501 LINE",
"898 491 LINE",
"156 491 LINE"
);
},
{
closed = 1;
nodes = (
"227 896 LINE",
"969 896 LINE",
"967 886 LINE",
"225 886 LINE"
);
}
);
width = 1136;
}
);
unicode = 003D;
},
{
glyphname = less;
layers = (
{
layerId = "35AD4BD0-1826-4A50-BA60-0A633C86B791";
paths = (
{
closed = 1;
nodes = (
"173 669 LINE",
"175 679 LINE",
"1050 1102 LINE",
"1048 1089 LINE",
"189 674 LINE",
"902 259 LINE",
"899 246 LINE"
);
}
);
width = 1170;
}
);
unicode = 003C;
},
{
glyphname = greater;
layers = (
{
layerId = "35AD4BD0-1826-4A50-BA60-0A633C86B791";
paths = (
{
closed = 1;
nodes = (
"101 259 LINE",
"960 674 LINE",
"247 1089 LINE",
"249 1102 LINE",
"976 679 LINE",
"974 669 LINE",
"98 246 LINE"
);
}
);
width = 1170;
}
);
unicode = 003E;
},
{
glyphname = lessequal;
layers = (
{
layerId = "35AD4BD0-1826-4A50-BA60-0A633C86B791";
paths = (
{
closed = 1;
nodes = (
"95 602 LINE",
"95 746 LINE",
"913 1095 LINE",
"913 902 LINE",
"326 679 LINE",
"913 456 LINE",
"913 253 LINE"
);
},
{
closed = 1;
nodes = (
"52 170 LINE",
"962 170 LINE",
"962 1 LINE",
"52 1 LINE"
);
}
);
width = 1024;
}
);
unicode = 2264;
},
{
glyphname = greaterequal;
layers = (
{
layerId = "35AD4BD0-1826-4A50-BA60-0A633C86B791";
paths = (
{
closed = 1;
nodes = (
"111 456 LINE",
"698 679 LINE",
"111 902 LINE",
"111 1095 LINE",
"929 746 LINE",
"929 602 LINE",
"111 253 LINE"
);
},
{
closed = 1;
nodes = (
"62 1 LINE",
"62 170 LINE",
"972 170 LINE",
"972 1 LINE"
);
}
);
width = 1024;
}
);
unicode = 2265;
},
{
glyphname = approxequal;
layers = (
{
layerId = "35AD4BD0-1826-4A50-BA60-0A633C86B791";
paths = (
{
closed = 1;
nodes = (
"46 901 LINE",
"93 952 OFFCURVE",
"225 1010 OFFCURVE",
"290 1011 QCURVE SMOOTH",
"369 1012 OFFCURVE",
"461 969 OFFCURVE",
"524 938 QCURVE SMOOTH",
"583 908 OFFCURVE",
"668 868 OFFCURVE",
"742 868 QCURVE SMOOTH",
"807 868 OFFCURVE",
"932 936 OFFCURVE",
"979 996 QCURVE",
"979 799 LINE",
"932 748 OFFCURVE",
"808 690 OFFCURVE",
"743 690 QCURVE SMOOTH",
"669 690 OFFCURVE",
"584 729 OFFCURVE",
"525 759 QCURVE SMOOTH",
"462 790 OFFCURVE",
"369 832 OFFCURVE",
"290 832 QCURVE SMOOTH",
"225 832 OFFCURVE",
"93 764 OFFCURVE",
"46 704 QCURVE"
);
},
{
closed = 1;
nodes = (
"45 484 LINE",
"92 535 OFFCURVE",
"224 592 OFFCURVE",
"289 593 QCURVE SMOOTH",
"368 594 OFFCURVE",
"460 551 OFFCURVE",
"523 520 QCURVE SMOOTH",
"582 490 OFFCURVE",
"667 451 OFFCURVE",
"741 451 QCURVE SMOOTH",
"806 451 OFFCURVE",
"931 519 OFFCURVE",
"978 579 QCURVE",
"978 381 LINE",
"931 330 OFFCURVE",
"807 272 OFFCURVE",
"742 272 QCURVE SMOOTH",
"668 272 OFFCURVE",
"583 311 OFFCURVE",
"524 341 QCURVE SMOOTH",
"461 372 OFFCURVE",
"368 414 OFFCURVE",
"289 414 QCURVE SMOOTH",
"224 414 OFFCURVE",
"92 347 OFFCURVE",
"45 287 QCURVE"
);
}
);
width = 1024;
}
);
unicode = 2248;
},
{
glyphname = notequal;
layers = (
{
layerId = "35AD4BD0-1826-4A50-BA60-0A633C86B791";
paths = (
{
closed = 1;
nodes = (
"703 861 LINE",
"676 832 LINE",
"462 461 LINE",
"458 437 LINE",
"257 89 LINE",
"119 169 LINE",
"279 447 LINE",
"302 469 LINE",
"509 828 LINE",
"520 864 LINE",
"745 1261 LINE",
"883 1181 LINE"
);
},
{
closed = 1;
nodes = (
"57 550 LINE",
"967 550 LINE",
"967 381 LINE",
"57 381 LINE"
);
},
{
closed = 1;
nodes = (
"57 945 LINE",
"967 945 LINE",
"967 776 LINE",
"57 776 LINE"
);
}
);
width = 1024;
}
);
unicode = 2260;
},
{
glyphname = logicalnot;
layers = (
{
layerId = "35AD4BD0-1826-4A50-BA60-0A633C86B791";
paths = (
{
closed = 1;
nodes = (
"928 376 LINE",
"743 376 LINE",
"743 637 LINE",
"58 637 LINE",
"58 801 LINE",
"928 801 LINE"
);
}
);
width = 1024;
}
);
unicode = 00AC;
},
{
glyphname = commercialMinusSign;
layers = (
{
layerId = "35AD4BD0-1826-4A50-BA60-0A633C86B791";
paths = (
{
closed = 1;
nodes = (
"646 1501 LINE",
"814 1458 LINE",
"229 -45 LINE",
"61 -2 LINE"
);
},
{
closed = 1;
nodes = (
"505 213 OFFCURVE",
"596 310 OFFCURVE",
"667 310 QCURVE SMOOTH",
"738 310 OFFCURVE",
"829 213 OFFCURVE",
"829 148 QCURVE SMOOTH",
"829 84 OFFCURVE",
"738 -13 OFFCURVE",
"667 -13 QCURVE SMOOTH",
"596 -13 OFFCURVE",
"505 84 OFFCURVE",
"505 148 QCURVE SMOOTH"
);
},
{
closed = 1;
nodes = (
"60 1369 OFFCURVE",
"151 1466 OFFCURVE",
"222 1466 QCURVE SMOOTH",
"293 1466 OFFCURVE",
"384 1369 OFFCURVE",
"384 1304 QCURVE SMOOTH",
"384 1240 OFFCURVE",
"293 1143 OFFCURVE",
"222 1143 QCURVE SMOOTH",
"151 1143 OFFCURVE",
"60 1240 OFFCURVE",
"60 1304 QCURVE SMOOTH"
);
}
);
width = 889;
}
);
unicode = 2052;
},
{
glyphname = divisionslash;
layers = (
{
layerId = "35AD4BD0-1826-4A50-BA60-0A633C86B791";
paths = (
{
closed = 1;
nodes = (
"554 1555 LINE",
"695 1512 LINE",
"79 -161 LINE",
"-62 -118 LINE"
);
}
);
width = 656;
}
);
unicode = 2215;
},
{
glyphname = bulletoperator;
layers = (
{
layerId = "35AD4BD0-1826-4A50-BA60-0A633C86B791";
paths = (
{
closed = 1;
nodes = (
"368 732 OFFCURVE",
"449 818 OFFCURVE",
"512 818 QCURVE SMOOTH",
"575 818 OFFCURVE",
"656 732 OFFCURVE",
"656 674 QCURVE SMOOTH",
"656 617 OFFCURVE",
"575 531 OFFCURVE",
"512 531 QCURVE SMOOTH",
"449 531 OFFCURVE",
"368 617 OFFCURVE",
"368 674 QCURVE SMOOTH"
);
}
);
width = 1024;
}
);
unicode = 2219;
},
{
glyphname = dollar;
layers = (
{
layerId = "35AD4BD0-1826-4A50-BA60-0A633C86B791";
paths = (
{
closed = 1;
nodes = (
"46 406 LINE",
"56 406 LINE",
"55 390 LINE",
"43 163 OFFCURVE",
"286 -15 OFFCURVE",
"547 -14 QCURVE SMOOTH",
"801 -13 OFFCURVE",
"1090 177 OFFCURVE",
"1120 348 QCURVE SMOOTH",
"1152 526 OFFCURVE",
"982 696 OFFCURVE",
"682 756 QCURVE SMOOTH",
"378 817 OFFCURVE",
"180 987 OFFCURVE",
"206 1135 QCURVE SMOOTH",
"236 1303 OFFCURVE",
"518 1480 OFFCURVE",
"765 1480 QCURVE SMOOTH",
"1022 1480 OFFCURVE",
"1223 1266 OFFCURVE",
"1208 1112 QCURVE SMOOTH",
"1205 1086 LINE",
"1194 1086 LINE",
"1196 1107 LINE",
"1211 1260 OFFCURVE",
"1014 1470 OFFCURVE",
"762 1470 QCURVE SMOOTH",
"521 1470 OFFCURVE",
"244 1295 OFFCURVE",
"216 1135 QCURVE SMOOTH",
"191 990 OFFCURVE",
"392 825 OFFCURVE",
"687 766 QCURVE SMOOTH",
"997 704 OFFCURVE",
"1162 528 OFFCURVE",
"1130 348 QCURVE SMOOTH",
"1099 170 OFFCURVE",
"805 -24 OFFCURVE",
"545 -24 QCURVE SMOOTH",
"271 -24 OFFCURVE",
"32 166 OFFCURVE",
"44 381 QCURVE SMOOTH"
);
},
{
closed = 1;
nodes = (
"641 728 LINE",
"650 728 LINE",
"519 -17 LINE",
"518 -21 LINE",
"496 -150 LINE",
"487 -150 LINE"
);
},
{
closed = 1;
nodes = (
"773 1473 LINE",
"773 1477 LINE",
"796 1606 LINE",
"805 1606 LINE",
"650 728 LINE",
"641 728 LINE"
);
}
);
width = 1298;
}
);
unicode = 0024;
},
{
glyphname = cent;
layers = (
{
layerId = "35AD4BD0-1826-4A50-BA60-0A633C86B791";
paths = (
{
closed = 1;
nodes = (
"646 282 OFFCURVE",
"795 401 OFFCURVE",
"802 492 QCURVE",
"978 492 LINE",
"970 348 OFFCURVE",
"718 130 OFFCURVE",
"547 130 QCURVE SMOOTH",
"304 130 OFFCURVE",
"65 454 OFFCURVE",
"65 670 QCURVE SMOOTH",
"65 712 LINE SMOOTH",
"65 928 OFFCURVE",
"304 1252 OFFCURVE",
"547 1252 QCURVE SMOOTH",
"736 1252 OFFCURVE",
"971 1026 OFFCURVE",
"978 860 QCURVE",
"802 860 LINE",
"795 959 OFFCURVE",
"657 1100 OFFCURVE",
"547 1100 QCURVE SMOOTH",
"377 1100 OFFCURVE",
"251 852 OFFCURVE",
"251 712 QCURVE SMOOTH",
"251 670 LINE SMOOTH",
"251 528 OFFCURVE",
"375 282 OFFCURVE",
"547 282 QCURVE SMOOTH"
);
},
{
closed = 1;
nodes = (
"469 237 LINE",
"474 251 LINE",
"474 708 LINE",
"614 708 LINE",
"614 250 LINE",
"619 240 LINE",
"619 0 LINE",
"469 0 LINE"
);
},
{
closed = 1;
nodes = (
"474 1182 LINE",
"469 1192 LINE",
"469 1402 LINE",
"619 1402 LINE",
"619 1192 LINE",
"614 1179 LINE",
"614 708 LINE",
"474 708 LINE"
);
}
);
width = 1024;
}
);
unicode = 00A2;
},
{
glyphname = sterling;
layers = (
{
layerId = "35AD4BD0-1826-4A50-BA60-0A633C86B791";
paths = (
{
closed = 1;
nodes = (
"36 0 LINE",
"36 160 LINE",
"92 160 LINE SMOOTH",
"184 160 OFFCURVE",
"264 324 OFFCURVE",
"250 467 QCURVE SMOOTH",
"195 1039 LINE SMOOTH",
"177 1228 OFFCURVE",
"380 1476 OFFCURVE",
"581 1476 QCURVE SMOOTH",
"771 1476 OFFCURVE",
"984 1270 OFFCURVE",
"984 1103 QCURVE SMOOTH",
"984 1087 LINE",
"792 1087 LINE",
"792 1103 LINE SMOOTH",
"785 1218 OFFCURVE",
"675 1309 OFFCURVE",
"583 1309 QCURVE SMOOTH",
"486 1309 OFFCURVE",
"369 1185 OFFCURVE",
"383 1039 QCURVE SMOOTH",
"434 508 LINE SMOOTH",
"447 372 OFFCURVE",
"392 207 OFFCURVE",
"322 166 QCURVE",
"1028 166 LINE",
"1028 0 LINE"
);
},
{
closed = 1;
nodes = (
"52 625 LINE",
"52 780 LINE",
"824 780 LINE",
"824 625 LINE"
);
}
);
width = 1024;
}
);
unicode = 00A3;
},
{
glyphname = currency;
layers = (
{
guideLines = (
{
position = "{0, 901}";
},
{
position = "{0, 555}";
}
);
layerId = "35AD4BD0-1826-4A50-BA60-0A633C86B791";
paths = (
{
closed = 1;
nodes = (
"261 567 OFFCURVE",
"445 373 OFFCURVE",
"576 373 QCURVE SMOOTH",
"706 373 OFFCURVE",
"889 567 OFFCURVE",
"889 712 QCURVE SMOOTH",
"889 855 OFFCURVE",
"706 1049 OFFCURVE",
"576 1049 QCURVE SMOOTH",
"445 1049 OFFCURVE",
"261 855 OFFCURVE",
"261 712 QCURVE"
);
},
{
closed = 1;
nodes = (
"78 933 OFFCURVE",
"374 1225 OFFCURVE",
"575 1225 QCURVE SMOOTH",
"776 1225 OFFCURVE",
"1072 933 OFFCURVE",
"1072 718 QCURVE SMOOTH",
"1072 504 OFFCURVE",
"776 209 OFFCURVE",
"575 209 QCURVE SMOOTH",
"374 209 OFFCURVE",
"78 504 OFFCURVE",
"78 718 QCURVE"
);
},
{
closed = 1;
nodes = (
"917 970 LINE",
"795 1097 LINE",
"997 1303 LINE",
"1119 1176 LINE"
);
},
{
closed = 1;
nodes = (
"133 148 LINE",
"12 274 LINE",
"214 479 LINE",
"335 354 LINE"
);
},
{
closed = 1;
nodes = (
"821 361 LINE",
"944 487 LINE",
"1146 282 LINE",
"1023 155 LINE"
);
},
{
closed = 1;
nodes = (
"29 1190 LINE",
"150 1316 LINE",
"352 1110 LINE",
"231 984 LINE"
);
}
);
width = 1158;
}
);
unicode = 00A4;
userData = {
com.typemytype.robofont.guideline.magnetic.917FhrihjR = 5;
com.typemytype.robofont.guideline.magnetic.bRYxxRaQQf = 5;
};
},
{
glyphname = yen;
layers = (
{
layerId = "35AD4BD0-1826-4A50-BA60-0A633C86B791";
paths = (
{
closed = 1;
nodes = (
"59 470 LINE",
"1005 470 LINE",
"1005 311 LINE",
"59 311 LINE"
);
},
{
closed = 1;
nodes = (
"59 775 LINE",
"425 775 LINE",
"478 669 LINE",
"587 669 LINE",
"635 775 LINE",
"1005 775 LINE",
"1005 621 LINE",
"59 621 LINE"
);
},
{
closed = 1;
nodes = (
"436 548 LINE",
"-19 1456 LINE",
"190 1456 LINE",
"466 849 LINE SMOOTH",
"480 819 OFFCURVE",
"513 716 OFFCURVE",
"520 679 QCURVE",
"540 679 LINE",
"549 735 OFFCURVE",
"580 819 OFFCURVE",
"594 849 QCURVE SMOOTH",
"874 1456 LINE",
"1075 1456 LINE",
"620 548 LINE",
"620 0 LINE",
"436 0 LINE"
);
}
);
width = 1056;
}
);
unicode = 00A5;
},
{
glyphname = coloncurrency;
layers = (
{
guideLines = (
{
position = "{0, 1570}";
}
);
layerId = "35AD4BD0-1826-4A50-BA60-0A633C86B791";
paths = (
{
closed = 1;
nodes = (
"923 1324 LINE",
"910 1301 LINE",
"738 68 LINE",
"744 43 LINE",
"720 -125 LINE",
"561 -125 LINE",
"584 40 LINE",
"598 66 LINE",
"783 1361 LINE",
"776 1381 LINE",
"804 1570 LINE",
"962 1570 LINE"
);
},
{
closed = 1;
nodes = (
"665 1395 LINE",
"652 1374 LINE",
"465 66 LINE",
"471 39 LINE",
"448 -125 LINE",
"289 -125 LINE",
"324 122 LINE",
"338 148 LINE",
"514 1376 LINE",
"507 1399 LINE",
"532 1570 LINE",
"690 1570 LINE"
);
},
{
closed = 1;
nodes = (
"85 844 LINE SMOOTH",
"85 1154 OFFCURVE",
"387 1486 OFFCURVE",
"621 1486 QCURVE SMOOTH",
"856 1486 OFFCURVE",
"1123 1233 OFFCURVE",
"1123 1040 QCURVE SMOOTH",
"1123 990 LINE",
"941 990 LINE",
"941 1041 LINE SMOOTH",
"941 1161 OFFCURVE",
"784 1332 OFFCURVE",
"621 1332 QCURVE SMOOTH",
"459 1332 OFFCURVE",
"271 1085 OFFCURVE",
"271 844 QCURVE SMOOTH",
"271 592 LINE SMOOTH",
"271 369 OFFCURVE",
"469 114 OFFCURVE",
"631 114 QCURVE SMOOTH",
"794 114 OFFCURVE",
"946 291 OFFCURVE",
"946 412 QCURVE SMOOTH",
"946 466 LINE",
"1133 466 LINE",
"1133 426 LINE SMOOTH",
"1133 241 OFFCURVE",
"866 -30 OFFCURVE",
"631 -30 QCURVE SMOOTH",
"392 -30 OFFCURVE",
"85 308 OFFCURVE",
"85 612 QCURVE SMOOTH"
);
}
);
width = 1154;
}
);
unicode = 20A1;
userData = {
com.typemytype.robofont.guideline.magnetic.0DwZ2nfhdf = 5;
};
},
{
glyphname = franc;
layers = (
{
layerId = "35AD4BD0-1826-4A50-BA60-0A633C86B791";
paths = (
{
closed = 1;
nodes = (
"180 1456 LINE",
"1002 1456 LINE",
"1002 1298 LINE",
"372 1298 LINE",
"372 861 LINE",
"913 861 LINE",
"913 703 LINE",
"372 703 LINE",
"372 0 LINE",
"180 0 LINE"
);
},
{
closed = 1;
nodes = (
"20 454 LINE",
"725 454 LINE",
"725 296 LINE",
"20 296 LINE"
);
}
);
width = 1024;
}
);
unicode = 20A3;
},
{
glyphname = lira;
layers = (
{
layerId = "35AD4BD0-1826-4A50-BA60-0A633C86B791";
paths = (
{
closed = 1;
nodes = (
"36 0 LINE",
"36 160 LINE",
"92 160 LINE SMOOTH",
"184 160 OFFCURVE",
"267 324 OFFCURVE",
"253 467 QCURVE SMOOTH",
"198 1039 LINE SMOOTH",
"180 1228 OFFCURVE",
"380 1476 OFFCURVE",
"581 1476 QCURVE SMOOTH",
"771 1476 OFFCURVE",
"984 1270 OFFCURVE",
"984 1103 QCURVE SMOOTH",
"984 1087 LINE",
"792 1087 LINE",
"792 1103 LINE SMOOTH",
"785 1218 OFFCURVE",
"675 1319 OFFCURVE",
"583 1319 QCURVE SMOOTH",
"481 1319 OFFCURVE",
"368 1162 OFFCURVE",
"380 1039 QCURVE SMOOTH",
"431 508 LINE SMOOTH",
"444 372 OFFCURVE",
"392 207 OFFCURVE",
"322 166 QCURVE",
"1028 166 LINE",
"1028 0 LINE"
);
},
{
closed = 1;
nodes = (
"42 435 LINE",
"42 580 LINE",
"804 580 LINE",
"804 435 LINE"
);
},
{
closed = 1;
nodes = (
"42 765 LINE",
"42 910 LINE",
"804 910 LINE",
"804 765 LINE"
);
}
);
width = 1024;
}
);
unicode = 20A4;
},
{
glyphname = naira;
layers = (
{
layerId = "35AD4BD0-1826-4A50-BA60-0A633C86B791";
paths = (
{
closed = 1;
nodes = (
"-21 987 LINE",
"161 987 LINE",
"161 977 LINE",
"827 977 LINE",
"827 987 LINE",
"1019 989 LINE",
"1019 852 LINE",
"827 850 LINE",
"827 855 LINE",
"161 855 LINE",
"161 850 LINE",
"-21 850 LINE"
);
},
{
closed = 1;
nodes = (
"-21 677 LINE",
"161 677 LINE",
"161 672 LINE",
"827 672 LINE",
"827 677 LINE",
"1019 679 LINE",
"1019 542 LINE",
"827 540 LINE",
"827 550 LINE",
"161 550 LINE",
"161 540 LINE",
"-21 540 LINE"
);
},
{
closed = 1;
nodes = (
"906 0 LINE",
"725 0 LINE",
"254 1142 LINE",
"232 1253 LINE",
"220 1253 LINE",
"233 1125 LINE",
"233 0 LINE",
"83 0 LINE",
"83 1456 LINE",
"269 1456 LINE",
"723 347 LINE",
"752 227 LINE",
"766 230 LINE",
"756 351 LINE",
"756 1456 LINE",
"906 1456 LINE"
);
}
);
width = 1024;
}
);
unicode = 20A6;
},
{
glyphname = peseta;
layers = (
{
layerId = "35AD4BD0-1826-4A50-BA60-0A633C86B791";
paths = (
{
closed = 1;
nodes = (
"311 565 LINE",
"311 717 LINE",
"545 717 LINE",
"718.134 717 OFFCURVE",
"822 898.552 OFFCURVE",
"822 1009 QCURVE",
"822 1120.94 OFFCURVE",
"718.134 1304 OFFCURVE",
"545 1304 QCURVE",
"352 1304 LINE",
"352 0 LINE",
"167 0 LINE",
"167 1456 LINE",
"545 1456 LINE",
"791.269 1456 OFFCURVE",
"1008 1202.045 OFFCURVE",
"1008 1011 QCURVE",
"1008 819.209 OFFCURVE",
"791.269 565 OFFCURVE",
"545 565 QCURVE"
);
},
{
closed = 1;
nodes = (
"1554 884 LINE",
"950 884 LINE",
"950 1026 LINE",
"1554 1026 LINE"
);
},
{
closed = 1;
nodes = (
"1332 1345 LINE",
"1332 268 LINE",
"1332 185.164 OFFCURVE",
"1404.731 139 OFFCURVE",
"1451 139 QCURVE SMOOTH",
"1474.134 139 OFFCURVE",
"1544 141 OFFCURVE",
"1603 163 QCURVE",
"1603 12 LINE",
"1554 -6 OFFCURVE",
"1445.507 -20 OFFCURVE",
"1397 -20 QCURVE SMOOTH",
"1294.761 -20 OFFCURVE",
"1147 107.06 OFFCURVE",
"1147 269 QCURVE",
"1147 1345 LINE"
);
}
);
width = 1681;
}
);
unicode = 20A7;
},
{
glyphname = won;
layers = (
{
layerId = "35AD4BD0-1826-4A50-BA60-0A633C86B791";
paths = (
{
closed = 1;
nodes = (
"48 1017 LINE",
"336 1017 LINE",
"336 1007 LINE",
"1472 1007 LINE",
"1472 1017 LINE",
"1748 1019 LINE",
"1748 882 LINE",
"1472 880 LINE",
"1472 885 LINE",
"336 885 LINE",
"336 880 LINE",
"48 880 LINE"
);
},
{
closed = 1;
nodes = (
"79 657 LINE",
"427 657 LINE",
"427 652 LINE",
"1393 652 LINE",
"1393 657 LINE",
"1709 659 LINE",
"1709 522 LINE",
"1393 520 LINE",
"1393 530 LINE",
"427 530 LINE",
"427 520 LINE",
"79 520 LINE"
);
},
{
closed = 1;
nodes = (
"115 1456 LINE",
"289 1456 LINE",
"538 378 LINE",
"556 250 LINE",
"562 250 LINE",
"580 378 LINE SMOOTH",
"798 1456 LINE",
"996 1456 LINE",
"1244 378 LINE",
"1262 250 LINE",
"1268 250 LINE",
"1286 378 LINE SMOOTH",
"1505 1456 LINE",
"1667 1456 LINE",
"1349 -10 LINE",
"1171 -10 LINE",
"925 1100 LINE",
"904 1228 LINE",
"898 1228 LINE",
"877 1100 LINE SMOOTH",
"651 -10 LINE",
"473 -10 LINE"
);
}
);
width = 1796;
}
);
unicode = 20A9;
},
{
glyphname = dong;
layers = (
{
layerId = "35AD4BD0-1826-4A50-BA60-0A633C86B791";
paths = (
{
closed = 1;
nodes = (
"15 492 LINE SMOOTH",
"15 714 OFFCURVE",
"235 992 OFFCURVE",
"415 992 QCURVE SMOOTH",
"525 992 OFFCURVE",
"669 925 OFFCURVE",
"716 868 QCURVE",
"716 1456 LINE",
"892 1456 LINE",
"892 0 LINE",
"734 0 LINE",
"726 137 LINE",
"720 137 LINE",
"680 72 OFFCURVE",
"525 -20 OFFCURVE",
"434 -20 QCURVE SMOOTH",
"235 -20 OFFCURVE",
"15 251 OFFCURVE",
"15 480 QCURVE SMOOTH"
);
},
{
closed = 1;
nodes = (
"205 310 OFFCURVE",
"325 132 OFFCURVE",
"445 132 QCURVE SMOOTH",
"555 132 OFFCURVE",
"685 242 OFFCURVE",
"716 312 QCURVE",
"716 680 LINE",
"685 750 OFFCURVE",
"555 840 OFFCURVE",
"455 840 QCURVE SMOOTH",
"325 840 OFFCURVE",
"205 672 OFFCURVE",
"205 492 QCURVE SMOOTH",
"205 480 LINE SMOOTH"
);
},
{
closed = 1;
nodes = (
"305 1156 LINE",
"305 1302 LINE",
"1021 1302 LINE",
"1021 1156 LINE"
);
},
{
closed = 1;
nodes = (
"47 -266 LINE",
"47 -128 LINE",
"971 -128 LINE",
"971 -266 LINE"
);
}
);
width = 1024;
}
);
unicode = 20AB;
},
{
glyphname = Euro;
layers = (
{
layerId = "35AD4BD0-1826-4A50-BA60-0A633C86B791";
paths = (
{
closed = 1;
nodes = (
"807 827 LINE",
"22 827 LINE",
"22 987 LINE",
"804 987 LINE"
);
},
{
closed = 1;
nodes = (
"807 502 LINE",
"22 502 LINE",
"22 661 LINE",
"807 661 LINE"
);
},
{
closed = 1;
nodes = (
"203 903 LINE SMOOTH",
"203 1242 OFFCURVE",
"470 1484 OFFCURVE",
"654 1484 QCURVE SMOOTH",
"799 1484 OFFCURVE",
"963 1398 OFFCURVE",
"1018 1337 QCURVE",
"901 1206 LINE",
"868 1242 OFFCURVE",
"755 1306 OFFCURVE",
"668 1306 QCURVE SMOOTH",
"554 1306 OFFCURVE",
"382 1142 OFFCURVE",
"382 906 QCURVE SMOOTH",
"382 541 LINE SMOOTH",
"382 312 OFFCURVE",
"567 145 OFFCURVE",
"689 145 QCURVE SMOOTH",
"775 145 OFFCURVE",
"891 208 OFFCURVE",
"928 242 QCURVE",
"1031 126 LINE",
"981 64 OFFCURVE",
"807 -30 OFFCURVE",
"656 -30 QCURVE SMOOTH",
"482 -30 OFFCURVE",
"203 242 OFFCURVE",
"203 544 QCURVE SMOOTH"
);
}
);
width = 1024;
}
);
unicode = 20AC;
},
{
glyphname = florin;
layers = (
{
layerId = "35AD4BD0-1826-4A50-BA60-0A633C86B791";
paths = (
{
closed = 1;
nodes = (
"868 740 LINE",
"555 740 LINE",
"555 111 LINE SMOOTH",
"555 -173 OFFCURVE",
"349 -437 OFFCURVE",
"103 -437 QCURVE SMOOTH",
"72 -437 OFFCURVE",
"19 -430 OFFCURVE",
"-9 -420 QCURVE",
"5 -271 LINE",
"20 -277 OFFCURVE",
"89 -284 OFFCURVE",
"103 -284 QCURVE SMOOTH",
"224 -284 OFFCURVE",
"370 -122 OFFCURVE",
"370 111 QCURVE SMOOTH",
"370 740 LINE",
"129 740 LINE",
"129 882 LINE",
"370 882 LINE",
"370 1126 LINE SMOOTH",
"370 1301 OFFCURVE",
"551 1487 OFFCURVE",
"708 1487 QCURVE SMOOTH",
"794 1487 OFFCURVE",
"923 1434 OFFCURVE",
"963 1404 QCURVE",
"882 1259 LINE",
"843 1290 OFFCURVE",
"759 1320 OFFCURVE",
"712 1320 QCURVE SMOOTH",
"642 1320 OFFCURVE",
"555 1224 OFFCURVE",
"555 1126 QCURVE SMOOTH",
"555 882 LINE",
"868 882 LINE"
);
}
);
width = 1024;
}
);
unicode = 0192;
},
{
glyphname = uni20AD;
layers = (
{
layerId = "35AD4BD0-1826-4A50-BA60-0A633C86B791";
paths = (
{
closed = 1;
nodes = (
"130 1456 LINE",
"317 1456 LINE",
"317 769 LINE",
"835 1456 LINE",
"1037 1456 LINE",
"317 500 LINE",
"317 0 LINE",
"130 0 LINE"
);
},
{
closed = 1;
nodes = (
"441 756 LINE",
"557 901 LINE",
"1061 0 LINE",
"845 0 LINE"
);
},
{
closed = 1;
nodes = (
"-9 661 LINE",
"-9 809 LINE",
"267 809 LINE",
"267 661 LINE"
);
},
{
closed = 1;
nodes = (
"1021 661 LINE",
"590 661 LINE",
"590 809 LINE",
"1021 809 LINE"
);
}
);
width = 1024;
}
);
unicode = 20AD;
},
{
glyphname = uni20B1;
layers = (
{
layerId = "35AD4BD0-1826-4A50-BA60-0A633C86B791";
paths = (
{
closed = 1;
nodes = (
"187 421 LINE",
"187 577 LINE",
"442 577 LINE SMOOTH",
"596 577 OFFCURVE",
"708 759 OFFCURVE",
"708 945 QCURVE SMOOTH",
"708 1131 OFFCURVE",
"596 1300 OFFCURVE",
"442 1300 QCURVE SMOOTH",
"277 1300 LINE",
"277 0 LINE",
"89 0 LINE",
"89 1456 LINE",
"445 1456 LINE SMOOTH",
"680 1456 OFFCURVE",
"894 1203 OFFCURVE",
"894 955 QCURVE SMOOTH",
"894 725 OFFCURVE",
"679 421 OFFCURVE",
"444 421 QCURVE SMOOTH"
);
},
{
closed = 1;
nodes = (
"-1 1137 LINE",
"201 1137 LINE",
"201 1112 LINE",
"787 1112 LINE",
"787 1137 LINE",
"1019 1139 LINE",
"1019 982 LINE",
"807 980 LINE",
"807 995 LINE",
"201 995 LINE",
"201 980 LINE",
"-1 980 LINE"
);
},
{
closed = 1;
nodes = (
"-1 867 LINE",
"201 867 LINE",
"201 852 LINE",
"807 852 LINE",
"807 867 LINE",
"1019 869 LINE",
"1019 712 LINE",
"767 710 LINE",
"767 734 LINE",
"201 734 LINE",
"201 710 LINE",
"-1 710 LINE"
);
}
);
width = 1024;
}
);
unicode = 20B1;
},
{
glyphname = uni20B2;
layers = (
{
layerId = "35AD4BD0-1826-4A50-BA60-0A633C86B791";
paths = (
{
closed = 1;
nodes = (
"479 57 LINE",
"497 71 LINE",
"497 708 LINE",
"627 708 LINE",
"627 70 LINE",
"649 60 LINE",
"649 -190 LINE",
"479 -190 LINE"
);
},
{
closed = 1;
nodes = (
"497 1342 LINE",
"482 1352 LINE",
"482 1582 LINE",
"642 1582 LINE",
"642 1352 LINE",
"627 1339 LINE",
"627 708 LINE",
"497 708 LINE"
);
},
{
closed = 1;
nodes = (
"995 452 LINE SMOOTH",
"995 259 OFFCURVE",
"754 -5 OFFCURVE",
"571 -5 QCURVE SMOOTH",
"350 -5 OFFCURVE",
"94 288 OFFCURVE",
"94 542 QCURVE SMOOTH",
"94 897 LINE SMOOTH",
"94 1196 OFFCURVE",
"350 1485 OFFCURVE",
"549 1485 QCURVE SMOOTH",
"727 1485 OFFCURVE",
"941 1340 OFFCURVE",
"989 1265 QCURVE",
"873 1131 LINE",
"818 1204 OFFCURVE",
"673 1309 OFFCURVE",
"557 1309 QCURVE SMOOTH",
"425 1309 OFFCURVE",
"288 1112 OFFCURVE",
"288 899 QCURVE SMOOTH",
"288 544 LINE SMOOTH",
"288 359 OFFCURVE",
"435 142 OFFCURVE",
"585 142 QCURVE SMOOTH",
"672 142 OFFCURVE",
"823 299 OFFCURVE",
"823 433 QCURVE SMOOTH",
"823 569 LINE",
"696 569 LINE",
"696 725 LINE",
"995 725 LINE"
);
}
);
width = 1024;
}
);
unicode = 20B2;
},
{
glyphname = uni20B5;
layers = (
{
guideLines = (
{
position = "{0, -125}";
}
);
layerId = "35AD4BD0-1826-4A50-BA60-0A633C86B791";
paths = (
{
closed = 1;
nodes = (
"473 37 LINE",
"486 51 LINE",
"486 708 LINE",
"631 708 LINE",
"631 50 LINE",
"643 40 LINE",
"643 -190 LINE",
"473 -190 LINE"
);
},
{
closed = 1;
nodes = (
"486 1362 LINE",
"476 1372 LINE",
"476 1582 LINE",
"636 1582 LINE",
"636 1372 LINE",
"631 1359 LINE",
"631 708 LINE",
"486 708 LINE"
);
},
{
closed = 1;
nodes = (
"821 460 LINE",
"1010 458 LINE",
"1009 436 LINE SMOOTH",
"992 244 OFFCURVE",
"779 -25 OFFCURVE",
"565 -25 QCURVE SMOOTH",
"344 -25 OFFCURVE",
"102 237 OFFCURVE",
"102 462 QCURVE SMOOTH",
"102 1002 LINE SMOOTH",
"102 1216 OFFCURVE",
"344 1485 OFFCURVE",
"563 1485 QCURVE SMOOTH",
"780 1485 OFFCURVE",
"1000 1236 OFFCURVE",
"1009 1030 QCURVE SMOOTH",
"1010 1008 LINE",
"816 1006 LINE",
"816 1030 LINE SMOOTH",
"812 1135 OFFCURVE",
"712 1329 OFFCURVE",
"566 1329 QCURVE SMOOTH",
"419 1329 OFFCURVE",
"296 1150 OFFCURVE",
"296 1004 QCURVE SMOOTH",
"296 464 LINE SMOOTH",
"296 311 OFFCURVE",
"429 122 OFFCURVE",
"579 122 QCURVE SMOOTH",
"697 122 OFFCURVE",
"821 302 OFFCURVE",
"821 436 QCURVE SMOOTH"
);
}
);
width = 1024;
}
);
unicode = 20B5;
userData = {
com.typemytype.robofont.guideline.magnetic.1Am3eQoiKr = 5;
};
},
{
glyphname = rupeeIndian;
layers = (
{
layerId = "35AD4BD0-1826-4A50-BA60-0A633C86B791";
paths = (
{
closed = 1;
nodes = (
"19 1089 LINE",
"990 1089 LINE",
"990 934 LINE",
"19 934 LINE"
);
},
{
closed = 1;
nodes = (
"660 267 LINE SMOOTH",
"566 439 OFFCURVE",
"322 566 OFFCURVE",
"132 574 QCURVE SMOOTH",
"19 579 LINE",
"19 732 LINE",
"307 732 LINE SMOOTH",
"498 732 OFFCURVE",
"653 885 OFFCURVE",
"653 1019 QCURVE SMOOTH",
"653 1145 OFFCURVE",
"492 1299 OFFCURVE",
"321 1299 QCURVE SMOOTH",
"19 1299 LINE",
"19 1456 LINE",
"999 1456 LINE",
"999 1300 LINE",
"764 1300 LINE",
"687 1308 LINE",
"689 1300 LINE",
"746 1272 OFFCURVE",
"838 1112 OFFCURVE",
"838 1019 QCURVE SMOOTH",
"838 831 OFFCURVE",
"661 663 OFFCURVE",
"475 642 QCURVE",
"569 619 OFFCURVE",
"762 461 OFFCURVE",
"839 317 QCURVE SMOOTH",
"1009 0 LINE",
"806 0 LINE"
);
}
);
width = 1024;
}
);
unicode = 20B9;
},
{
glyphname = liraTurkish;
layers = (
{
layerId = "35AD4BD0-1826-4A50-BA60-0A633C86B791";
paths = (
{
closed = 1;
nodes = (
"6 502 LINE",
"856 876 LINE",
"850 709 LINE",
"6 334 LINE"
);
},
{
closed = 1;
nodes = (
"180 1456 LINE",
"362 1456 LINE",
"362 153 LINE",
"439 153 LINE SMOOTH",
"647 153 OFFCURVE",
"839 363 OFFCURVE",
"835 521 QCURVE SMOOTH",
"835 558 LINE",
"1015 558 LINE",
"1015 523 LINE SMOOTH",
"1015 298 OFFCURVE",
"727 -5 OFFCURVE",
"402 -2 QCURVE SMOOTH",
"180 0 LINE"
);
},
{
closed = 1;
nodes = (
"6 862 LINE",
"856 1236 LINE",
"850 1069 LINE",
"6 694 LINE"
);
}
);
width = 1024;
}
);
unicode = 20BA;
},
{
glyphname = manat;
layers = (
{
layerId = "35AD4BD0-1826-4A50-BA60-0A633C86B791";
paths = (
{
closed = 1;
nodes = (
"1062 0 LINE",
"880 0 LINE",
"880 916 LINE SMOOTH",
"878 1086 OFFCURVE",
"704 1252 OFFCURVE",
"565 1252 QCURVE SMOOTH",
"426 1252 OFFCURVE",
"250 1086 OFFCURVE",
"250 916 QCURVE SMOOTH",
"250 0 LINE",
"68 0 LINE",
"68 916 LINE SMOOTH",
"71 1166 OFFCURVE",
"356 1416 OFFCURVE",
"565 1416 QCURVE SMOOTH",
"775 1416 OFFCURVE",
"1062 1166 OFFCURVE",
"1062 916 QCURVE SMOOTH"
);
},
{
closed = 1;
nodes = (
"485 0 LINE",
"485 1582 LINE",
"645 1582 LINE",
"645 0 LINE"
);
}
);
width = 1130;
}
);
unicode = 20BC;
},
{
glyphname = ruble;
layers = (
{
layerId = "35AD4BD0-1826-4A50-BA60-0A633C86B791";
paths = (
{
closed = 1;
nodes = (
"30 611 LINE",
"30 768 LINE",
"526 768 LINE SMOOTH",
"689 768 OFFCURVE",
"842 913 OFFCURVE",
"842 1033 QCURVE SMOOTH",
"842 1138 OFFCURVE",
"695 1298 OFFCURVE",
"526 1298 QCURVE SMOOTH",
"367 1298 LINE",
"367 0 LINE",
"188 0 LINE",
"188 1456 LINE",
"526 1456 LINE SMOOTH",
"772 1456 OFFCURVE",
"1034 1217 OFFCURVE",
"1034 1035 QCURVE SMOOTH",
"1034 835 OFFCURVE",
"772 611 OFFCURVE",
"526 611 QCURVE SMOOTH"
);
},
{
closed = 1;
nodes = (
"754 266 LINE",
"30 266 LINE",
"30 424 LINE",
"754 424 LINE"
);
}
);
width = 1024;
}
);
unicode = 20BD;
},
{
glyphname = asciicircum;
layers = (
{
layerId = "35AD4BD0-1826-4A50-BA60-0A633C86B791";
paths = (
{
closed = 1;
nodes = (
"651 1456 LINE",
"664 1456 LINE",
"1001 720 LINE",
"988 720 LINE",
"654 1440 LINE",
"66 720 LINE",
"53 720 LINE"
);
}
);
width = 1058;
}
);
unicode = 005E;
},
{
glyphname = asciitilde;
layers = (
{
guideLines = (
{
angle = 90;
position = "{198, 766}";
},
{
angle = 90;
position = "{1071, 666}";
}
);
layerId = "35AD4BD0-1826-4A50-BA60-0A633C86B791";
paths = (
{
closed = 1;
nodes = (
"185 659 LINE",
"240 712 OFFCURVE",
"342 762 OFFCURVE",
"398 762 QCURVE SMOOTH",
"446 762 OFFCURVE",
"558 726 OFFCURVE",
"626 694 QCURVE SMOOTH",
"700 659 OFFCURVE",
"810 626 OFFCURVE",
"859 626 QCURVE SMOOTH",
"919 626 OFFCURVE",
"1025 677 OFFCURVE",
"1071 731 QCURVE",
"1068 715 LINE",
"1023 665 OFFCURVE",
"918 617 OFFCURVE",
"858 617 QCURVE SMOOTH",
"809 617 OFFCURVE",
"691 651 OFFCURVE",
"626 682 QCURVE SMOOTH",
"567 711 OFFCURVE",
"445 753 OFFCURVE",
"397 753 QCURVE SMOOTH",
"341 753 OFFCURVE",
"243 704 OFFCURVE",
"183 644 QCURVE"
);
}
);
width = 1270;
}
);
unicode = 007E;
},
{
glyphname = acute;
layers = (
{
layerId = "35AD4BD0-1826-4A50-BA60-0A633C86B791";
paths = (
{
closed = 1;
nodes = (
"610 1265 LINE",
"618 1258 LINE",
"311 978 LINE",
"305 984 LINE"
);
}
);
width = 1024;
}
);
unicode = 00B4;
},
{
glyphname = grave;
layers = (
{
layerId = "35AD4BD0-1826-4A50-BA60-0A633C86B791";
paths = (
{
closed = 1;
nodes = (
"399 1258 LINE",
"408 1264 LINE",
"663 983 LINE",
"656 978 LINE"
);
}
);
width = 1035;
}
);
unicode = 0060;
},
{
glyphname = hungarumlaut;
layers = (
{
guideLines = (
{
position = "{0, 901}";
},
{
position = "{0, 555}";
}
);
layerId = "35AD4BD0-1826-4A50-BA60-0A633C86B791";
paths = (
{
closed = 1;
nodes = (
"581 1260 LINE",
"589 1253 LINE",
"308 978 LINE",
"302 984 LINE"
);
},
{
closed = 1;
nodes = (
"851 1260 LINE",
"859 1253 LINE",
"578 978 LINE",
"572 984 LINE"
);
}
);
width = 1024;
}
);
unicode = 02DD;
userData = {
com.typemytype.robofont.guideline.magnetic.1emCWSQy5G = 5;
com.typemytype.robofont.guideline.magnetic.s1MFYmxmed = 5;
};
},
{
glyphname = circumflex;
layers = (
{
layerId = "35AD4BD0-1826-4A50-BA60-0A633C86B791";
paths = (
{
closed = 1;
nodes = (
"779 979 LINE",
"767 979 LINE",
"508 1243 LINE",
"252 979 LINE",
"240 979 LINE",
"502 1252 LINE",
"514 1252 LINE"
);
}
);
width = 1024;
}
);
unicode = 02C6;
},
{
glyphname = caron;
layers = (
{
layerId = "35AD4BD0-1826-4A50-BA60-0A633C86B791";
paths = (
{
closed = 1;
nodes = (
"240 1242 LINE",
"252 1242 LINE",
"511 978 LINE",
"767 1242 LINE",
"779 1242 LINE",
"517 969 LINE",
"505 969 LINE"
);
}
);
width = 1024;
}
);
unicode = 02C7;
},
{
glyphname = breve;
layers = (
{
layerId = "35AD4BD0-1826-4A50-BA60-0A633C86B791";
paths = (
{
closed = 1;
nodes = (
"778 1205 LINE",
"733 1078 OFFCURVE",
"607 964 OFFCURVE",
"512 964 QCURVE SMOOTH",
"417 964 OFFCURVE",
"291 1078 OFFCURVE",
"246 1205 QCURVE",
"253 1209 LINE",
"299 1086 OFFCURVE",
"421 975 OFFCURVE",
"512 975 QCURVE SMOOTH",
"603 975 OFFCURVE",
"725 1086 OFFCURVE",
"771 1209 QCURVE"
);
}
);
width = 1022;
}
);
unicode = 02D8;
},
{
glyphname = tilde;
layers = (
{
layerId = "35AD4BD0-1826-4A50-BA60-0A633C86B791";
paths = (
{
closed = 1;
nodes = (
"207 1093 OFFCURVE",
"308 1139 OFFCURVE",
"373 1139 QCURVE SMOOTH",
"404 1139 OFFCURVE",
"485 1115 OFFCURVE",
"543 1089 QCURVE SMOOTH",
"596 1066 OFFCURVE",
"669 1045 OFFCURVE",
"699 1045 QCURVE SMOOTH",
"761 1045 OFFCURVE",
"851 1085 OFFCURVE",
"888 1129 QCURVE",
"894 1123 LINE",
"855 1077 OFFCURVE",
"763 1036 OFFCURVE",
"698 1036 QCURVE SMOOTH",
"666 1036 OFFCURVE",
"591 1057 OFFCURVE",
"538 1081 QCURVE SMOOTH",
"482 1107 OFFCURVE",
"403 1130 OFFCURVE",
"371 1130 QCURVE SMOOTH",
"308 1130 OFFCURVE",
"211 1086 OFFCURVE",
"165 1036 QCURVE",
"159 1042 LINE"
);
}
);
width = 1024;
}
);
unicode = 02DC;
},
{
glyphname = macron;
layers = (
{
layerId = "35AD4BD0-1826-4A50-BA60-0A633C86B791";
paths = (
{
closed = 1;
nodes = (
"826 1014 LINE",
"198 1014 LINE",
"198 1024 LINE",
"826 1024 LINE"
);
}
);
width = 1024;
}
);
unicode = 00AF;
},
{
glyphname = dieresis;
layers = (
{
layerId = "35AD4BD0-1826-4A50-BA60-0A633C86B791";
paths = (
{
closed = 1;
nodes = (
"258 1055 OFFCURVE",
"269 1066 OFFCURVE",
"279 1066 QCURVE SMOOTH",
"289 1066 OFFCURVE",
"299 1055 OFFCURVE",
"299 1047 QCURVE SMOOTH",
"299 1038 OFFCURVE",
"288 1027 OFFCURVE",
"278 1027 QCURVE SMOOTH",
"268 1027 OFFCURVE",
"258 1038 OFFCURVE",
"258 1047 QCURVE SMOOTH"
);
},
{
closed = 1;
nodes = (
"724 1055 OFFCURVE",
"735 1066 OFFCURVE",
"745 1066 QCURVE SMOOTH",
"755 1066 OFFCURVE",
"765 1055 OFFCURVE",
"765 1047 QCURVE SMOOTH",
"765 1038 OFFCURVE",
"754 1027 OFFCURVE",
"744 1027 QCURVE SMOOTH",
"734 1027 OFFCURVE",
"724 1038 OFFCURVE",
"724 1047 QCURVE SMOOTH"
);
}
);
width = 1024;
}
);
unicode = 00A8;
},
{
glyphname = dotaccent;
layers = (
{
layerId = "35AD4BD0-1826-4A50-BA60-0A633C86B791";
paths = (
{
closed = 1;
nodes = (
"492 1084 OFFCURVE",
"503 1095 OFFCURVE",
"513 1095 QCURVE SMOOTH",
"523 1095 OFFCURVE",
"533 1084 OFFCURVE",
"533 1076 QCURVE SMOOTH",
"533 1067 OFFCURVE",
"522 1056 OFFCURVE",
"512 1056 QCURVE SMOOTH",
"502 1056 OFFCURVE",
"492 1067 OFFCURVE",
"492 1076 QCURVE SMOOTH"
);
}
);
width = 1024;
}
);
unicode = 02D9;
},
{
glyphname = ring;
layers = (
{
layerId = "35AD4BD0-1826-4A50-BA60-0A633C86B791";
paths = (
{
closed = 1;
nodes = (
"344 1209 OFFCURVE",
"439 1304 OFFCURVE",
"512 1304 QCURVE SMOOTH",
"585 1304 OFFCURVE",
"680 1209 OFFCURVE",
"680 1135 QCURVE SMOOTH",
"680 1063 OFFCURVE",
"585 970 OFFCURVE",
"512 970 QCURVE SMOOTH",
"439 970 OFFCURVE",
"344 1063 OFFCURVE",
"344 1135 QCURVE"
);
},
{
closed = 1;
nodes = (
"352 1066 OFFCURVE",
"442 978 OFFCURVE",
"512 978 QCURVE SMOOTH",
"582 978 OFFCURVE",
"672 1066 OFFCURVE",
"672 1135 QCURVE SMOOTH",
"672 1205 OFFCURVE",
"582 1295 OFFCURVE",
"512 1295 QCURVE SMOOTH",
"442 1295 OFFCURVE",
"352 1205 OFFCURVE",
"352 1135 QCURVE"
);
}
);
width = 1024;
}
);
unicode = 02DA;
},
{
glyphname = cedilla;
layers = (
{
layerId = "35AD4BD0-1826-4A50-BA60-0A633C86B791";
paths = (
{
closed = 1;
nodes = (
"491 42 LINE",
"448 -98 LINE",
"583 -106 OFFCURVE",
"693 -179 OFFCURVE",
"693 -226 QCURVE SMOOTH",
"693 -307 OFFCURVE",
"489 -410 OFFCURVE",
"303 -410 QCURVE",
"301 -402 LINE",
"480 -402 OFFCURVE",
"682 -304 OFFCURVE",
"682 -228 QCURVE SMOOTH",
"682 -182 OFFCURVE",
"579 -114 OFFCURVE",
"436 -105 QCURVE",
"480 42 LINE"
);
}
);
width = 1024;
}
);
unicode = 00B8;
},
{
glyphname = ogonek;
layers = (
{
layerId = "35AD4BD0-1826-4A50-BA60-0A633C86B791";
paths = (
{
closed = 1;
nodes = (
"560 35 LINE",
"442 -29 OFFCURVE",
"316 -161 OFFCURVE",
"316 -221 QCURVE SMOOTH",
"316 -275 OFFCURVE",
"398 -345 OFFCURVE",
"461 -345 QCURVE SMOOTH",
"521 -345 OFFCURVE",
"641 -307 OFFCURVE",
"659 -299 QCURVE",
"662 -309 LINE",
"641 -318 OFFCURVE",
"523 -354 OFFCURVE",
"460 -354 QCURVE SMOOTH",
"392 -354 OFFCURVE",
"305 -280 OFFCURVE",
"305 -223 QCURVE SMOOTH",
"305 -160 OFFCURVE",
"431 -23 OFFCURVE",
"549 40 QCURVE"
);
}
);
width = 1024;
}
);
unicode = 02DB;
},
{
glyphname = copyright;
layers = (
{
guideLines = (
{
position = "{0, 901}";
},
{
position = "{0, 555}";
}
);
layerId = "35AD4BD0-1826-4A50-BA60-0A633C86B791";
paths = (
{
closed = 1;
nodes = (
"1212 546 LINE",
"1212 375 OFFCURVE",
"977 205 OFFCURVE",
"813 205 QCURVE SMOOTH",
"642 205 OFFCURVE",
"419 437 OFFCURVE",
"419 664 QCURVE SMOOTH",
"419 703 LINE SMOOTH",
"419 931 OFFCURVE",
"643 1170 OFFCURVE",
"830 1170 QCURVE SMOOTH",
"1017 1170 OFFCURVE",
"1213 983 OFFCURVE",
"1213 829 QCURVE",
"1031 829 LINE",
"1031 917 OFFCURVE",
"928 1006 OFFCURVE",
"829 1006 QCURVE SMOOTH",
"722 1006 OFFCURVE",
"612 868 OFFCURVE",
"612 747 QCURVE SMOOTH",
"612 621 LINE SMOOTH",
"612 499 OFFCURVE",
"731 362 OFFCURVE",
"838 362 QCURVE SMOOTH",
"937 362 OFFCURVE",
"1030 457 OFFCURVE",
"1030 546 QCURVE"
);
},
{
closed = 1;
nodes = (
"186 400 OFFCURVE",
"563 4 OFFCURVE",
"828 4 QCURVE SMOOTH",
"1092 4 OFFCURVE",
"1469 400 OFFCURVE",
"1469 687 QCURVE SMOOTH",
"1469 975 OFFCURVE",
"1092 1367 OFFCURVE",
"828 1367 QCURVE SMOOTH",
"563 1367 OFFCURVE",
"186 975 OFFCURVE",
"186 687 QCURVE SMOOTH"
);
},
{
closed = 1;
nodes = (
"38 1039 OFFCURVE",
"501 1519 OFFCURVE",
"827 1519 QCURVE SMOOTH",
"1152 1519 OFFCURVE",
"1616 1039 OFFCURVE",
"1616 687 QCURVE SMOOTH",
"1616 337 OFFCURVE",
"1152 -147 OFFCURVE",
"827 -147 QCURVE SMOOTH",
"501 -147 OFFCURVE",
"38 337 OFFCURVE",
"38 687 QCURVE SMOOTH"
);
}
);
width = 1654;
}
);
leftKerningGroup = copyright;
rightKerningGroup = copyright;
unicode = 00A9;
userData = {
com.typemytype.robofont.guideline.magnetic.0Pjz0qKr8z = 5;
com.typemytype.robofont.guideline.magnetic.sJo8BlDiJ7 = 5;
};
},
{
glyphname = registered;
layers = (
{
layerId = "35AD4BD0-1826-4A50-BA60-0A633C86B791";
paths = (
{
closed = 1;
nodes = (
"38 1039 OFFCURVE",
"501 1519 OFFCURVE",
"827 1519 QCURVE SMOOTH",
"1152 1519 OFFCURVE",
"1616 1039 OFFCURVE",
"1616 687 QCURVE SMOOTH",
"1616 337 OFFCURVE",
"1152 -147 OFFCURVE",
"827 -147 QCURVE SMOOTH",
"501 -147 OFFCURVE",
"38 337 OFFCURVE",
"38 687 QCURVE SMOOTH"
);
},
{
closed = 1;
nodes = (
"186 400 OFFCURVE",
"563 4 OFFCURVE",
"828 4 QCURVE SMOOTH",
"1092 4 OFFCURVE",
"1469 400 OFFCURVE",
"1469 687 QCURVE SMOOTH",
"1469 975 OFFCURVE",
"1092 1367 OFFCURVE",
"828 1367 QCURVE SMOOTH",
"563 1367 OFFCURVE",
"186 975 OFFCURVE",
"186 687 QCURVE SMOOTH"
);
},
{
closed = 1;
nodes = (
"664 597 LINE",
"664 225 LINE",
"499 225 LINE",
"499 1158 LINE",
"821 1158 LINE SMOOTH",
"993 1158 OFFCURVE",
"1197 1018 OFFCURVE",
"1197 877 QCURVE SMOOTH",
"1197 764 OFFCURVE",
"1088 640 OFFCURVE",
"979 618 QCURVE",
"1010 595 OFFCURVE",
"1035 559 OFFCURVE",
"1052 530 QCURVE SMOOTH",
"1221 243 LINE",
"1221 225 LINE",
"1042 225 LINE",
"855 597 LINE"
);
},
{
closed = 1;
nodes = (
"664 1007 LINE",
"664 738 LINE",
"847 738 LINE SMOOTH",
"920 738 OFFCURVE",
"1016 795 OFFCURVE",
"1016 859 QCURVE SMOOTH",
"1016 940 OFFCURVE",
"940 1006 OFFCURVE",
"822 1007 QCURVE SMOOTH"
);
}
);
width = 1654;
}
);
leftKerningGroup = copyright;
rightKerningGroup = copyright;
unicode = 00AE;
},
{
glyphname = trademark;
layers = (
{
layerId = "35AD4BD0-1826-4A50-BA60-0A633C86B791";
paths = (
{
closed = 1;
nodes = (
"24 1446 LINE",
"732 1446 LINE",
"732 1288 LINE",
"464 1288 LINE",
"464 690 LINE",
"292 690 LINE",
"292 1288 LINE",
"24 1288 LINE"
);
},
{
closed = 1;
nodes = (
"850 1446 LINE",
"1021 1446 LINE",
"1277 866 LINE",
"1285 866 LINE",
"1545 1446 LINE",
"1716 1446 LINE",
"1716 690 LINE",
"1567 690 LINE",
"1567 1165 LINE",
"1555 1165 LINE",
"1349 690 LINE",
"1213 690 LINE",
"1017 1165 LINE",
"1005 1165 LINE",
"1005 690 LINE",
"850 690 LINE"
);
}
);
width = 1881;
}
);
unicode = 2122;
},
{
glyphname = degree;
layers = (
{
layerId = "35AD4BD0-1826-4A50-BA60-0A633C86B791";
paths = (
{
closed = 1;
nodes = (
"131 1323 OFFCURVE",
"282 1477 OFFCURVE",
"386 1477 QCURVE SMOOTH",
"489 1477 OFFCURVE",
"637 1322.97 OFFCURVE",
"637 1217 QCURVE SMOOTH",
"637 1110.284 OFFCURVE",
"488.985 960 OFFCURVE",
"386 960 QCURVE SMOOTH",
"282.269 960 OFFCURVE",
"131 1110 OFFCURVE",
"131 1217 QCURVE"
);
},
{
closed = 1;
nodes = (
"255 1161.776 OFFCURVE",
"332.269 1088 OFFCURVE",
"386 1088 QCURVE SMOOTH",
"439.731 1088 OFFCURVE",
"513 1161.776 OFFCURVE",
"513 1217 QCURVE SMOOTH",
"513 1272.97 OFFCURVE",
"439.731 1349 OFFCURVE",
"386 1349 QCURVE SMOOTH",
"332.269 1349 OFFCURVE",
"255 1272.97 OFFCURVE",
"255 1217 QCURVE"
);
}
);
width = 765;
}
);
unicode = 00B0;
},
{
glyphname = diagonalbarL;
layers = (
{
layerId = "35AD4BD0-1826-4A50-BA60-0A633C86B791";
paths = (
{
closed = 1;
nodes = (
"0 584 LINE",
"664 995 LINE",
"745 860 LINE",
"80 446 LINE"
);
}
);
width = 741;
}
);
},
{
glyphname = diagonalbarO;
layers = (
{
layerId = "35AD4BD0-1826-4A50-BA60-0A633C86B791";
paths = (
{
closed = 1;
nodes = (
"15 76 LINE",
"15 76 LINE",
"316 834 LINE",
"313 803 LINE",
"18 54 LINE",
"18 54 LINE",
"-46 -109 LINE",
"-58 -109 LINE"
);
},
{
closed = 1;
nodes = (
"650 1618 LINE",
"569 1428 LINE",
"569 1428 LINE",
"313 803 LINE",
"316 834 LINE",
"569 1455 LINE",
"569 1455 LINE",
"639 1618 LINE"
);
}
);
width = 623;
}
);
},
{
glyphname = diagonalbarl;
layers = (
{
layerId = "35AD4BD0-1826-4A50-BA60-0A633C86B791";
paths = (
{
closed = 1;
nodes = (
"39 547 LINE",
"309 757 LINE",
"572 969 LINE",
"577 961 LINE",
"315 750 LINE",
"46 538 LINE"
);
}
);
width = 629;
}
);
},
{
glyphname = diagonalbaro;
layers = (
{
layerId = "35AD4BD0-1826-4A50-BA60-0A633C86B791";
paths = (
{
closed = 1;
nodes = (
"44 84 LINE",
"44 84 LINE",
"301 584 LINE",
"277 514 LINE",
"42 56 LINE",
"42 56 LINE",
"-53 -123 LINE",
"-64 -122 LINE"
);
},
{
closed = 1;
nodes = (
"597 1141 LINE",
"501 953 LINE",
"501 953 LINE",
"277 514 LINE",
"301 584 LINE",
"504 981 LINE",
"504 981 LINE",
"586 1142 LINE"
);
}
);
width = 512;
}
);
},
{
glyphname = engtail;
layers = (
{
layerId = "35AD4BD0-1826-4A50-BA60-0A633C86B791";
paths = (
{
closed = 1;
nodes = (
"522 190 LINE",
"522 -195 LINE SMOOTH",
"522 -295 OFFCURVE",
"401 -443 OFFCURVE",
"269 -443 QCURVE SMOOTH",
"197 -443 OFFCURVE",
"67 -381 OFFCURVE",
"27 -329 QCURVE",
"90 -254 LINE",
"132 -295 OFFCURVE",
"207 -325 OFFCURVE",
"248 -325 QCURVE SMOOTH",
"292 -325 OFFCURVE",
"356 -265 OFFCURVE",
"356 -165 QCURVE SMOOTH",
"356 -86 OFFCURVE",
"356 150 OFFCURVE",
"356 150 QCURVE",
"419 190 LINE"
);
}
);
width = 629;
}
);
},
{
glyphname = horizontalbarH;
layers = (
{
layerId = "35AD4BD0-1826-4A50-BA60-0A633C86B791";
paths = (
{
closed = 1;
nodes = (
"1420 1089 LINE",
"1420 1100 LINE",
"1652 1102 LINE",
"1642 1091 LINE"
);
},
{
closed = 1;
nodes = (
"-194 1100 LINE",
"45 1100 LINE",
"45 1089 LINE",
"-185 1089 LINE"
);
},
{
closed = 1;
nodes = (
"45 1100 LINE",
"1420 1100 LINE",
"1420 1089 LINE",
"45 1089 LINE"
);
}
);
width = 1458;
}
);
},
{
glyphname = horizontalbarlc;
layers = (
{
layerId = "35AD4BD0-1826-4A50-BA60-0A633C86B791";
paths = (
{
closed = 1;
nodes = (
"29 724 LINE",
"31 734 LINE",
"351 734 LINE",
"636 734 LINE",
"636 724 LINE",
"311 724 LINE"
);
}
);
width = 636;
}
);
},
{
glyphname = idotless;
layers = (
{
layerId = "35AD4BD0-1826-4A50-BA60-0A633C86B791";
paths = (
{
closed = 1;
nodes = (
"225 914 LINE",
"234 914 LINE",
"73 0 LINE",
"64 0 LINE"
);
}
);
width = 395;
}
);
leftKerningGroup = mnpr_LC;
rightKerningGroup = u_LC;
},
{
glyphname = jdotless;
layers = (
{
layerId = "35AD4BD0-1826-4A50-BA60-0A633C86B791";
paths = (
{
closed = 1;
nodes = (
"-347 -390 LINE",
"-319 -407 OFFCURVE",
"-246 -426 OFFCURVE",
"-191 -426 QCURVE SMOOTH",
"-104 -426 OFFCURVE",
"31 -302 OFFCURVE",
"58 -146 QCURVE SMOOTH",
"245 914 LINE",
"254 914 LINE",
"65 -156 LINE SMOOTH",
"39 -309 OFFCURVE",
"-101 -436 OFFCURVE",
"-192 -436 QCURVE SMOOTH",
"-250 -436 OFFCURVE",
"-325 -416 OFFCURVE",
"-349 -403 QCURVE"
);
}
);
width = 411;
}
);
rightKerningGroup = j_LC;
},
{
glyphname = zerosuperior;
layers = (
{
layerId = "35AD4BD0-1826-4A50-BA60-0A633C86B791";
paths = (
{
closed = 1;
nodes = (
"156 1141 LINE SMOOTH",
"186 1311 OFFCURVE",
"381 1496 OFFCURVE",
"512 1496 QCURVE SMOOTH",
"646 1496 OFFCURVE",
"774 1311 OFFCURVE",
"744 1141 QCURVE SMOOTH",
"726 1035 LINE SMOOTH",
"696 865 OFFCURVE",
"502 680 OFFCURVE",
"368 680 QCURVE SMOOTH",
"237 680 OFFCURVE",
"108 865 OFFCURVE",
"138 1035 QCURVE SMOOTH"
);
},
{
closed = 1;
nodes = (
"119 872 OFFCURVE",
"245 690 OFFCURVE",
"370 690 QCURVE SMOOTH",
"500 690 OFFCURVE",
"687 872 OFFCURVE",
"715 1031 QCURVE SMOOTH",
"735 1145 LINE SMOOTH",
"763 1304 OFFCURVE",
"640 1486 OFFCURVE",
"510 1486 QCURVE SMOOTH",
"385 1486 OFFCURVE",
"195 1304 OFFCURVE",
"167 1145 QCURVE SMOOTH",
"147 1031 LINE SMOOTH"
);
}
);
width = 722;
}
);
},
{
glyphname = gravecomb.case;
layers = (
{
layerId = "35AD4BD0-1826-4A50-BA60-0A633C86B791";
paths = (
{
closed = 1;
nodes = (
"260 1880 LINE",
"267 1888 LINE",
"650 1576 LINE",
"645 1569 LINE"
);
}
);
width = 1024;
}
);
},
{
glyphname = acutecomb.case;
layers = (
{
layerId = "35AD4BD0-1826-4A50-BA60-0A633C86B791";
paths = (
{
closed = 1;
nodes = (
"742 1888 LINE",
"749 1880 LINE",
"364 1569 LINE",
"359 1576 LINE"
);
}
);
width = 1024;
}
);
},
{
glyphname = circumflexcomb.case;
layers = (
{
layerId = "35AD4BD0-1826-4A50-BA60-0A633C86B791";
paths = (
{
closed = 1;
nodes = (
"789 1579 LINE",
"777 1579 LINE",
"508 1843 LINE",
"242 1579 LINE",
"230 1579 LINE",
"502 1852 LINE",
"514 1852 LINE"
);
}
);
width = 1024;
}
);
},
{
glyphname = tildecomb.case;
layers = (
{
layerId = "35AD4BD0-1826-4A50-BA60-0A633C86B791";
paths = (
{
closed = 1;
nodes = (
"214 1689 OFFCURVE",
"316 1740 OFFCURVE",
"378 1740 QCURVE SMOOTH",
"421 1740 OFFCURVE",
"505 1708 OFFCURVE",
"542 1690 QCURVE SMOOTH",
"581 1672 OFFCURVE",
"653 1646 OFFCURVE",
"692 1646 QCURVE SMOOTH",
"750 1646 OFFCURVE",
"837 1683 OFFCURVE",
"874 1730 QCURVE",
"880 1723 LINE",
"841 1675 OFFCURVE",
"752 1636 OFFCURVE",
"691 1636 QCURVE SMOOTH",
"650 1636 OFFCURVE",
"570 1666 OFFCURVE",
"538 1681 QCURVE SMOOTH",
"502 1698 OFFCURVE",
"417 1730 OFFCURVE",
"377 1730 QCURVE SMOOTH",
"313 1730 OFFCURVE",
"216 1679 OFFCURVE",
"179 1636 QCURVE",
"173 1643 LINE"
);
}
);
width = 1024;
}
);
},
{
glyphname = macroncomb.case;
layers = (
{
layerId = "35AD4BD0-1826-4A50-BA60-0A633C86B791";
paths = (
{
closed = 1;
nodes = (
"216 1629 LINE",
"808 1629 LINE",
"808 1619 LINE",
"216 1619 LINE"
);
}
);
width = 1024;
}
);
},
{
glyphname = brevecomb.case;
layers = (
{
layerId = "35AD4BD0-1826-4A50-BA60-0A633C86B791";
paths = (
{
closed = 1;
nodes = (
"823 1805 LINE",
"770 1678 OFFCURVE",
"623 1564 OFFCURVE",
"512 1564 QCURVE SMOOTH",
"401 1564 OFFCURVE",
"254 1678 OFFCURVE",
"201 1805 QCURVE",
"209 1809 LINE",
"263 1686 OFFCURVE",
"406 1574 OFFCURVE",
"512 1574 QCURVE SMOOTH",
"618 1574 OFFCURVE",
"761 1686 OFFCURVE",
"815 1809 QCURVE"
);
}
);
width = 1024;
}
);
},
{
glyphname = dotaccentcomb.case;
layers = (
{
layerId = "35AD4BD0-1826-4A50-BA60-0A633C86B791";
paths = (
{
closed = 1;
nodes = (
"492 1642 OFFCURVE",
"503 1653 OFFCURVE",
"513 1653 QCURVE SMOOTH",
"523 1653 OFFCURVE",
"533 1642 OFFCURVE",
"533 1634 QCURVE SMOOTH",
"533 1625 OFFCURVE",
"522 1614 OFFCURVE",
"512 1614 QCURVE SMOOTH",
"502 1614 OFFCURVE",
"492 1625 OFFCURVE",
"492 1634 QCURVE SMOOTH"
);
}
);
width = 1024;
}
);
},
{
glyphname = dieresiscomb.case;
layers = (
{
layerId = "35AD4BD0-1826-4A50-BA60-0A633C86B791";
paths = (
{
closed = 1;
nodes = (
"258 1705 OFFCURVE",
"269 1716 OFFCURVE",
"279 1716 QCURVE SMOOTH",
"289 1716 OFFCURVE",
"299 1705 OFFCURVE",
"299 1697 QCURVE SMOOTH",
"299 1688 OFFCURVE",
"288 1677 OFFCURVE",
"278 1677 QCURVE SMOOTH",
"268 1677 OFFCURVE",
"258 1688 OFFCURVE",
"258 1697 QCURVE SMOOTH"
);
},
{
closed = 1;
nodes = (
"724 1705 OFFCURVE",
"735 1716 OFFCURVE",
"745 1716 QCURVE SMOOTH",
"755 1716 OFFCURVE",
"765 1705 OFFCURVE",
"765 1697 QCURVE SMOOTH",
"765 1688 OFFCURVE",
"754 1677 OFFCURVE",
"744 1677 QCURVE SMOOTH",
"734 1677 OFFCURVE",
"724 1688 OFFCURVE",
"724 1697 QCURVE SMOOTH"
);
}
);
width = 1024;
}
);
},
{
glyphname = hookabovecomb.case;
layers = (
{
layerId = "35AD4BD0-1826-4A50-BA60-0A633C86B791";
paths = (
{
closed = 1;
nodes = (
"428 1606 LINE SMOOTH",
"428 1616 OFFCURVE",
"437 1625 OFFCURVE",
"451 1626 QCURVE SMOOTH",
"599 1632 OFFCURVE",
"716 1707 OFFCURVE",
"716 1767 QCURVE SMOOTH",
"716 1833 OFFCURVE",
"617 1905 OFFCURVE",
"525 1905 QCURVE SMOOTH",
"449 1905 OFFCURVE",
"314 1876 OFFCURVE",
"281 1860 QCURVE",
"275 1869 LINE",
"312 1885 OFFCURVE",
"450 1915 OFFCURVE",
"526 1915 QCURVE SMOOTH",
"623 1915 OFFCURVE",
"727 1838 OFFCURVE",
"727 1766 QCURVE SMOOTH",
"727 1702 OFFCURVE",
"601 1621 OFFCURVE",
"439 1615 QCURVE",
"439 1537 LINE",
"428 1537 LINE"
);
}
);
width = 1024;
}
);
},
{
glyphname = ringcomb.case;
layers = (
{
layerId = "35AD4BD0-1826-4A50-BA60-0A633C86B791";
paths = (
{
closed = 1;
nodes = (
"344 1828 OFFCURVE",
"439 1923 OFFCURVE",
"512 1923 QCURVE SMOOTH",
"585 1923 OFFCURVE",
"680 1828 OFFCURVE",
"680 1754 QCURVE SMOOTH",
"680 1682 OFFCURVE",
"585 1589 OFFCURVE",
"512 1589 QCURVE SMOOTH",
"439 1589 OFFCURVE",
"344 1682 OFFCURVE",
"344 1754 QCURVE"
);
},
{
closed = 1;
nodes = (
"352 1685 OFFCURVE",
"442 1597 OFFCURVE",
"512 1597 QCURVE SMOOTH",
"582 1597 OFFCURVE",
"672 1685 OFFCURVE",
"672 1754 QCURVE SMOOTH",
"672 1824 OFFCURVE",
"582 1914 OFFCURVE",
"512 1914 QCURVE SMOOTH",
"442 1914 OFFCURVE",
"352 1824 OFFCURVE",
"352 1754 QCURVE"
);
}
);
width = 1024;
}
);
},
{
glyphname = caroncomb.case;
layers = (
{
layerId = "35AD4BD0-1826-4A50-BA60-0A633C86B791";
paths = (
{
closed = 1;
nodes = (
"230 1852 LINE",
"242 1852 LINE",
"511 1588 LINE",
"777 1852 LINE",
"789 1852 LINE",
"517 1579 LINE",
"505 1579 LINE"
);
}
);
width = 1024;
}
);
},
{
glyphname = breveinvertedcomb.case;
layers = (
{
layerId = "35AD4BD0-1826-4A50-BA60-0A633C86B791";
paths = (
{
closed = 1;
nodes = (
"201 1594 LINE",
"254 1721 OFFCURVE",
"401 1835 OFFCURVE",
"512 1835 QCURVE SMOOTH",
"623 1835 OFFCURVE",
"770 1721 OFFCURVE",
"823 1594 QCURVE",
"815 1590 LINE",
"761 1713 OFFCURVE",
"618 1825 OFFCURVE",
"512 1825 QCURVE SMOOTH",
"406 1825 OFFCURVE",
"263 1713 OFFCURVE",
"209 1590 QCURVE"
);
}
);
width = 1024;
}
);
},
{
glyphname = horncomb.case;
layers = (
{
layerId = "35AD4BD0-1826-4A50-BA60-0A633C86B791";
paths = (
{
closed = 1;
nodes = (
"132 1427 LINE SMOOTH",
"244 1427 OFFCURVE",
"345 1472 OFFCURVE",
"345 1527 QCURVE SMOOTH",
"345 1579 OFFCURVE",
"314 1671 OFFCURVE",
"294 1711 QCURVE",
"304 1711 LINE",
"324 1672 OFFCURVE",
"355 1578 OFFCURVE",
"355 1525 QCURVE SMOOTH",
"355 1468 OFFCURVE",
"253 1417 OFFCURVE",
"137 1417 QCURVE SMOOTH",
"113 1417 OFFCURVE",
"32 1418 OFFCURVE",
"0 1419 QCURVE",
"0 1427 LINE"
);
}
);
width = 1024;
}
);
},
{
glyphname = commaaccentcomb.case;
layers = (
{
layerId = "35AD4BD0-1826-4A50-BA60-0A633C86B791";
paths = (
{
closed = 1;
nodes = (
"444 -545 OFFCURVE",
"546 -365 OFFCURVE",
"618 -237 QCURVE",
"630 -235 LINE",
"394 -651 LINE",
"386 -649 LINE"
);
}
);
width = 1024;
}
);
},
{
glyphname = cedillacomb.case;
layers = (
{
layerId = "35AD4BD0-1826-4A50-BA60-0A633C86B791";
paths = (
{
closed = 1;
nodes = (
"488 36 LINE",
"447 -100 LINE",
"577 -108 OFFCURVE",
"707 -178 OFFCURVE",
"707 -225 QCURVE SMOOTH",
"707 -305 OFFCURVE",
"487 -404 OFFCURVE",
"308 -404 QCURVE",
"307 -396 LINE",
"478 -396 OFFCURVE",
"697 -301 OFFCURVE",
"697 -227 QCURVE SMOOTH",
"697 -182 OFFCURVE",
"573 -116 OFFCURVE",
"436 -107 QCURVE",
"478 36 LINE"
);
}
);
width = 1024;
}
);
},
{
glyphname = ogonekcomb.case;
layers = (
{
layerId = "35AD4BD0-1826-4A50-BA60-0A633C86B791";
paths = (
{
closed = 1;
nodes = (
"288 -160 OFFCURVE",
"423 -21 OFFCURVE",
"549 43 QCURVE",
"560 37 LINE",
"435 -27 OFFCURVE",
"299 -161 OFFCURVE",
"299 -222 QCURVE SMOOTH",
"299 -277 OFFCURVE",
"390 -347 OFFCURVE",
"466 -347 QCURVE SMOOTH",
"538 -347 OFFCURVE",
"683 -309 OFFCURVE",
"705 -301 QCURVE",
"707 -311 LINE",
"683 -320 OFFCURVE",
"541 -357 OFFCURVE",
"465 -357 QCURVE SMOOTH",
"382 -357 OFFCURVE",
"288 -282 OFFCURVE",
"288 -224 QCURVE SMOOTH"
);
}
);
width = 1024;
}
);
},
{
glyphname = acutecombstack.case;
layers = (
{
layerId = "35AD4BD0-1826-4A50-BA60-0A633C86B791";
paths = (
{
closed = 1;
nodes = (
"744 1816 LINE",
"749 1808 LINE",
"324 1615 LINE",
"321 1621 LINE"
);
}
);
width = 1024;
}
);
},
{
glyphname = brevecombstack.case;
layers = (
{
layerId = "35AD4BD0-1826-4A50-BA60-0A633C86B791";
paths = (
{
closed = 1;
nodes = (
"818 1805 LINE",
"766 1678 OFFCURVE",
"621 1564 OFFCURVE",
"512 1564 QCURVE SMOOTH",
"403 1564 OFFCURVE",
"258 1678 OFFCURVE",
"206 1805 QCURVE",
"214 1809 LINE",
"267 1683 OFFCURVE",
"407 1574 OFFCURVE",
"512 1574 QCURVE SMOOTH",
"617 1574 OFFCURVE",
"757 1683 OFFCURVE",
"810 1809 QCURVE"
);
}
);
width = 1024;
}
);
},
{
glyphname = circumflexcombstack.case;
layers = (
{
layerId = "35AD4BD0-1826-4A50-BA60-0A633C86B791";
paths = (
{
closed = 1;
nodes = (
"789 1579 LINE",
"777 1579 LINE",
"508 1844 LINE",
"242 1579 LINE",
"230 1579 LINE",
"502 1852 LINE",
"514 1852 LINE"
);
}
);
width = 1024;
}
);
},
{
glyphname = dieresiscombstack.case;
layers = (
{
layerId = "35AD4BD0-1826-4A50-BA60-0A633C86B791";
paths = (
{
closed = 1;
nodes = (
"258 1705 OFFCURVE",
"269 1716 OFFCURVE",
"279 1716 QCURVE SMOOTH",
"289 1716 OFFCURVE",
"299 1705 OFFCURVE",
"299 1697 QCURVE SMOOTH",
"299 1688 OFFCURVE",
"288 1677 OFFCURVE",
"278 1677 QCURVE SMOOTH",
"268 1677 OFFCURVE",
"258 1688 OFFCURVE",
"258 1697 QCURVE SMOOTH"
);
},
{
closed = 1;
nodes = (
"724 1705 OFFCURVE",
"735 1716 OFFCURVE",
"745 1716 QCURVE SMOOTH",
"755 1716 OFFCURVE",
"765 1705 OFFCURVE",
"765 1697 QCURVE SMOOTH",
"765 1688 OFFCURVE",
"754 1677 OFFCURVE",
"744 1677 QCURVE SMOOTH",
"734 1677 OFFCURVE",
"724 1688 OFFCURVE",
"724 1697 QCURVE SMOOTH"
);
}
);
width = 1024;
}
);
},
{
glyphname = dotaccentcombstack.case;
layers = (
{
layerId = "35AD4BD0-1826-4A50-BA60-0A633C86B791";
paths = (
{
closed = 1;
nodes = (
"492 1642 OFFCURVE",
"503 1653 OFFCURVE",
"513 1653 QCURVE SMOOTH",
"523 1653 OFFCURVE",
"533 1642 OFFCURVE",
"533 1634 QCURVE SMOOTH",
"533 1625 OFFCURVE",
"522 1614 OFFCURVE",
"512 1614 QCURVE SMOOTH",
"502 1614 OFFCURVE",
"492 1625 OFFCURVE",
"492 1634 QCURVE SMOOTH"
);
}
);
width = 1024;
}
);
},
{
glyphname = gravecombstack.case;
layers = (
{
layerId = "35AD4BD0-1826-4A50-BA60-0A633C86B791";
paths = (
{
closed = 1;
nodes = (
"285 1808 LINE",
"291 1817 LINE",
"714 1622 LINE",
"710 1615 LINE"
);
}
);
width = 1024;
}
);
},
{
glyphname = hookabovecombstack.case;
layers = (
{
layerId = "35AD4BD0-1826-4A50-BA60-0A633C86B791";
paths = (
{
closed = 1;
nodes = (
"428 1623 LINE SMOOTH",
"428 1633 OFFCURVE",
"437 1642 OFFCURVE",
"452 1643 QCURVE SMOOTH",
"598 1649 OFFCURVE",
"715 1724 OFFCURVE",
"715 1784 QCURVE SMOOTH",
"715 1850 OFFCURVE",
"616 1922 OFFCURVE",
"524 1922 QCURVE SMOOTH",
"449 1922 OFFCURVE",
"315 1893 OFFCURVE",
"282 1877 QCURVE",
"277 1886 LINE",
"313 1902 OFFCURVE",
"450 1932 OFFCURVE",
"526 1932 QCURVE SMOOTH",
"622 1932 OFFCURVE",
"726 1855 OFFCURVE",
"726 1783 QCURVE SMOOTH",
"726 1719 OFFCURVE",
"600 1638 OFFCURVE",
"439 1632 QCURVE",
"439 1555 LINE",
"428 1555 LINE"
);
}
);
width = 1024;
}
);
},
{
glyphname = macroncombstack.case;
layers = (
{
layerId = "35AD4BD0-1826-4A50-BA60-0A633C86B791";
paths = (
{
closed = 1;
nodes = (
"216 1629 LINE",
"808 1629 LINE",
"808 1619 LINE",
"216 1619 LINE"
);
}
);
width = 1024;
}
);
},
{
glyphname = tildecombstack.case;
layers = (
{
layerId = "35AD4BD0-1826-4A50-BA60-0A633C86B791";
paths = (
{
closed = 1;
nodes = (
"233 1689 OFFCURVE",
"328 1740 OFFCURVE",
"387 1740 QCURVE SMOOTH",
"427 1740 OFFCURVE",
"506 1708 OFFCURVE",
"541 1690 QCURVE SMOOTH",
"578 1672 OFFCURVE",
"646 1646 OFFCURVE",
"683 1646 QCURVE SMOOTH",
"737 1646 OFFCURVE",
"818 1683 OFFCURVE",
"854 1730 QCURVE",
"859 1723 LINE",
"823 1675 OFFCURVE",
"738 1636 OFFCURVE",
"681 1636 QCURVE SMOOTH",
"643 1636 OFFCURVE",
"567 1666 OFFCURVE",
"537 1681 QCURVE SMOOTH",
"504 1698 OFFCURVE",
"424 1730 OFFCURVE",
"386 1730 QCURVE SMOOTH",
"326 1730 OFFCURVE",
"235 1679 OFFCURVE",
"199 1636 QCURVE",
"194 1643 LINE"
);
}
);
width = 1024;
}
);
},
{
glyphname = caroncomb.alt;
layers = (
{
layerId = "35AD4BD0-1826-4A50-BA60-0A633C86B791";
paths = (
{
closed = 1;
nodes = (
"616 1463 LINE SMOOTH",
"625 1460 LINE",
"437 1081 LINE",
"429 1083 LINE"
);
}
);
width = 1024;
}
);
},
{
glyphname = dollar.rvrn;
layers = (
{
layerId = "35AD4BD0-1826-4A50-BA60-0A633C86B791";
paths = (
{
closed = 1;
nodes = (
"46 406 LINE",
"56 406 LINE",
"55 390 LINE",
"43 163 OFFCURVE",
"286 -15 OFFCURVE",
"547 -14 QCURVE SMOOTH",
"801 -13 OFFCURVE",
"1090 177 OFFCURVE",
"1120 348 QCURVE SMOOTH",
"1152 526 OFFCURVE",
"982 696 OFFCURVE",
"682 756 QCURVE SMOOTH",
"378 817 OFFCURVE",
"180 987 OFFCURVE",
"206 1135 QCURVE SMOOTH",
"236 1303 OFFCURVE",
"518 1480 OFFCURVE",
"765 1480 QCURVE SMOOTH",
"1022 1480 OFFCURVE",
"1223 1266 OFFCURVE",
"1208 1112 QCURVE SMOOTH",
"1205 1086 LINE",
"1194 1086 LINE",
"1196 1107 LINE",
"1211 1260 OFFCURVE",
"1014 1470 OFFCURVE",
"762 1470 QCURVE SMOOTH",
"521 1470 OFFCURVE",
"244 1295 OFFCURVE",
"216 1135 QCURVE SMOOTH",
"191 990 OFFCURVE",
"392 825 OFFCURVE",
"687 766 QCURVE SMOOTH",
"997 704 OFFCURVE",
"1162 528 OFFCURVE",
"1130 348 QCURVE SMOOTH",
"1099 170 OFFCURVE",
"805 -24 OFFCURVE",
"545 -24 QCURVE SMOOTH",
"271 -24 OFFCURVE",
"32 166 OFFCURVE",
"44 381 QCURVE SMOOTH"
);
},
{
closed = 1;
nodes = (
"511 -15 LINE",
"519 -15 LINE",
"519 -17 LINE",
"518 -21 LINE",
"496 -150 LINE",
"487 -150 LINE"
);
},
{
closed = 1;
nodes = (
"773 1473 LINE",
"773 1477 LINE",
"796 1606 LINE",
"805 1606 LINE",
"781 1471 LINE",
"773 1471 LINE"
);
}
);
width = 1298;
}
);
},
{
glyphname = zero.prop;
layers = (
{
layerId = "35AD4BD0-1826-4A50-BA60-0A633C86B791";
paths = (
{
closed = 1;
nodes = (
"110 996 LINE SMOOTH",
"110 1216 OFFCURVE",
"358 1486 OFFCURVE",
"578 1486 QCURVE SMOOTH",
"796 1486 OFFCURVE",
"1046 1216 OFFCURVE",
"1046 996 QCURVE SMOOTH",
"1046 460 LINE SMOOTH",
"1046 240 OFFCURVE",
"796 -30 OFFCURVE",
"578 -30 QCURVE SMOOTH",
"358 -30 OFFCURVE",
"110 240 OFFCURVE",
"110 460 QCURVE SMOOTH"
);
},
{
closed = 1;
nodes = (
"304 310 OFFCURVE",
"438 128 OFFCURVE",
"578 128 QCURVE SMOOTH",
"718 128 OFFCURVE",
"852 310 OFFCURVE",
"852 450 QCURVE SMOOTH",
"852 1006 LINE SMOOTH",
"852 1146 OFFCURVE",
"718 1328 OFFCURVE",
"578 1328 QCURVE SMOOTH",
"438 1328 OFFCURVE",
"304 1146 OFFCURVE",
"304 1006 QCURVE SMOOTH",
"304 450 LINE SMOOTH"
);
}
);
width = 1156;
}
);
},
{
glyphname = one.prop;
layers = (
{
layerId = "35AD4BD0-1826-4A50-BA60-0A633C86B791";
paths = (
{
closed = 1;
nodes = (
"393 1245 LINE",
"25 1090 LINE",
"25 1276 LINE",
"555 1476 LINE",
"585 1476 LINE",
"585 0 LINE",
"393 0 LINE"
);
}
);
width = 736;
}
);
},
{
glyphname = two.prop;
layers = (
{
layerId = "35AD4BD0-1826-4A50-BA60-0A633C86B791";
paths = (
{
closed = 1;
nodes = (
"26 140 LINE",
"546 700 LINE SMOOTH",
"650 810 OFFCURVE",
"756 980 OFFCURVE",
"756 1080 QCURVE SMOOTH",
"756 1180 OFFCURVE",
"621 1328 OFFCURVE",
"501 1328 QCURVE SMOOTH",
"381 1328 OFFCURVE",
"216 1170 OFFCURVE",
"216 1030 QCURVE SMOOTH",
"216 1020 LINE",
"26 1020 LINE",
"26 1030 LINE SMOOTH",
"26 1230 OFFCURVE",
"301 1486 OFFCURVE",
"501 1486 QCURVE SMOOTH",
"701 1486 OFFCURVE",
"946 1250 OFFCURVE",
"946 1090 QCURVE SMOOTH",
"946 948 OFFCURVE",
"786 716 OFFCURVE",
"671 595 QCURVE SMOOTH",
"256 156 LINE",
"986 156 LINE",
"986 0 LINE",
"26 0 LINE"
);
}
);
width = 988;
}
);
},
{
glyphname = three.prop;
layers = (
{
layerId = "35AD4BD0-1826-4A50-BA60-0A633C86B791";
paths = (
{
closed = 1;
nodes = (
"17 390 LINE",
"203 390 LINE",
"203 380 LINE SMOOTH",
"203 260 OFFCURVE",
"363 128 OFFCURVE",
"495 128 QCURVE SMOOTH",
"627 128 OFFCURVE",
"785 260 OFFCURVE",
"785 400 QCURVE SMOOTH",
"785 540 OFFCURVE",
"607 682 OFFCURVE",
"457 682 QCURVE SMOOTH",
"342 682 LINE",
"342 836 LINE",
"447 836 LINE SMOOTH",
"585 836 OFFCURVE",
"735 970 OFFCURVE",
"735 1090 QCURVE SMOOTH",
"735 1210 OFFCURVE",
"605 1328 OFFCURVE",
"495 1328 QCURVE SMOOTH",
"385 1328 OFFCURVE",
"243 1210 OFFCURVE",
"243 1100 QCURVE SMOOTH",
"243 1090 LINE",
"57 1090 LINE",
"57 1100 LINE SMOOTH",
"57 1260 OFFCURVE",
"305 1486 OFFCURVE",
"495 1486 QCURVE SMOOTH",
"685 1486 OFFCURVE",
"927 1270 OFFCURVE",
"927 1100 QCURVE SMOOTH",
"927 1000 OFFCURVE",
"817 816 OFFCURVE",
"701 766 QCURVE",
"701 762 LINE",
"827 730 OFFCURVE",
"979 540 OFFCURVE",
"979 401 QCURVE SMOOTH",
"979 200 OFFCURVE",
"705 -30 OFFCURVE",
"495 -30 QCURVE SMOOTH",
"285 -30 OFFCURVE",
"17 200 OFFCURVE",
"17 380 QCURVE SMOOTH"
);
}
);
width = 1051;
}
);
},
{
glyphname = four.prop;
layers = (
{
layerId = "35AD4BD0-1826-4A50-BA60-0A633C86B791";
paths = (
{
closed = 1;
nodes = (
"623 398 LINE",
"623 450 LINE",
"623 1149 LINE",
"611 1149 LINE",
"206 500 LINE",
"674 500 LINE",
"751 500 LINE",
"1007 500 LINE",
"1007 342 LINE",
"-13 342 LINE",
"-13 468 LINE",
"631 1456 LINE",
"803 1456 LINE",
"803 0 LINE",
"623 0 LINE"
);
}
);
width = 1011;
}
);
},
{
glyphname = five.prop;
layers = (
{
layerId = "35AD4BD0-1826-4A50-BA60-0A633C86B791";
paths = (
{
closed = 1;
nodes = (
"58 375 LINE",
"242 375 LINE",
"242 365 LINE SMOOTH",
"242 255 OFFCURVE",
"398 128 OFFCURVE",
"528 128 QCURVE SMOOTH",
"658 128 OFFCURVE",
"824 305 OFFCURVE",
"824 465 QCURVE SMOOTH",
"824 625 OFFCURVE",
"658 793 OFFCURVE",
"528 793 QCURVE SMOOTH",
"438 793 OFFCURVE",
"300 728 OFFCURVE",
"240 668 QCURVE",
"108 730 LINE",
"182 1456 LINE",
"938 1456 LINE",
"938 1286 LINE",
"338 1286 LINE",
"294 876 LINE",
"344 906 OFFCURVE",
"478 952 OFFCURVE",
"558 952 QCURVE SMOOTH",
"748 952 OFFCURVE",
"1014 695 OFFCURVE",
"1014 465 QCURVE SMOOTH",
"1014 235 OFFCURVE",
"738 -30 OFFCURVE",
"528 -30 QCURVE SMOOTH",
"318 -30 OFFCURVE",
"58 195 OFFCURVE",
"58 365 QCURVE SMOOTH"
);
}
);
width = 1072;
}
);
},
{
glyphname = six.prop;
layers = (
{
layerId = "35AD4BD0-1826-4A50-BA60-0A633C86B791";
paths = (
{
closed = 1;
nodes = (
"80 644 LINE SMOOTH",
"80 1024 OFFCURVE",
"492 1486 OFFCURVE",
"872 1486 QCURVE SMOOTH",
"892 1486 LINE",
"892 1328 LINE",
"872 1328 LINE SMOOTH",
"592 1328 OFFCURVE",
"268 1004 OFFCURVE",
"268 654 QCURVE SMOOTH",
"268 604 LINE SMOOTH",
"268 344 OFFCURVE",
"452 128 OFFCURVE",
"592 128 QCURVE SMOOTH",
"732 128 OFFCURVE",
"886 304 OFFCURVE",
"886 464 QCURVE SMOOTH",
"886 624 OFFCURVE",
"732 798 OFFCURVE",
"592 798 QCURVE SMOOTH",
"462 798 OFFCURVE",
"262 624 OFFCURVE",
"262 464 QCURVE",
"192 464 LINE",
"192 684 OFFCURVE",
"432 956 OFFCURVE",
"632 956 QCURVE SMOOTH",
"832 956 OFFCURVE",
"1076 684 OFFCURVE",
"1076 464 QCURVE SMOOTH",
"1076 244 OFFCURVE",
"802 -30 OFFCURVE",
"592 -30 QCURVE SMOOTH",
"382 -30 OFFCURVE",
"80 274 OFFCURVE",
"80 614 QCURVE SMOOTH"
);
}
);
width = 1136;
}
);
},
{
glyphname = seven.prop;
layers = (
{
layerId = "35AD4BD0-1826-4A50-BA60-0A633C86B791";
paths = (
{
closed = 1;
nodes = (
"673 1300 LINE",
"-3 1300 LINE",
"-3 1456 LINE",
"871 1456 LINE",
"871 1352 LINE",
"409 0 LINE",
"213 0 LINE"
);
}
);
width = 882;
}
);
},
{
glyphname = eight.prop;
layers = (
{
layerId = "35AD4BD0-1826-4A50-BA60-0A633C86B791";
paths = (
{
closed = 1;
nodes = (
"104 516 OFFCURVE",
"246 698 OFFCURVE",
"358 743 QCURVE",
"358 747 LINE",
"272 790 OFFCURVE",
"150 967 OFFCURVE",
"150 1087 QCURVE SMOOTH",
"150 1267 OFFCURVE",
"398 1486 OFFCURVE",
"578 1486 QCURVE SMOOTH",
"758 1486 OFFCURVE",
"1006 1267 OFFCURVE",
"1006 1087 QCURVE SMOOTH",
"1006 967 OFFCURVE",
"884 790 OFFCURVE",
"798 747 QCURVE",
"798 743 LINE",
"910 698 OFFCURVE",
"1052 516 OFFCURVE",
"1052 386 QCURVE SMOOTH",
"1052 188 OFFCURVE",
"778 -30 OFFCURVE",
"578 -30 QCURVE SMOOTH",
"378 -30 OFFCURVE",
"104 188 OFFCURVE",
"104 386 QCURVE SMOOTH"
);
},
{
closed = 1;
nodes = (
"292 276 OFFCURVE",
"448 128 OFFCURVE",
"578 128 QCURVE SMOOTH",
"708 128 OFFCURVE",
"864 276 OFFCURVE",
"864 396 QCURVE SMOOTH",
"864 516 OFFCURVE",
"708 666 OFFCURVE",
"578 666 QCURVE SMOOTH",
"448 666 OFFCURVE",
"292 516 OFFCURVE",
"292 396 QCURVE SMOOTH"
);
},
{
closed = 1;
nodes = (
"334 967 OFFCURVE",
"468 824 OFFCURVE",
"578 824 QCURVE SMOOTH",
"688 824 OFFCURVE",
"822 967 OFFCURVE",
"822 1077 QCURVE SMOOTH",
"822 1187 OFFCURVE",
"688 1328 OFFCURVE",
"578 1328 QCURVE SMOOTH",
"468 1328 OFFCURVE",
"334 1187 OFFCURVE",
"334 1077 QCURVE SMOOTH"
);
}
);
width = 1156;
}
);
},
{
glyphname = nine.prop;
layers = (
{
layerId = "35AD4BD0-1826-4A50-BA60-0A633C86B791";
paths = (
{
closed = 1;
nodes = (
"60 1218 OFFCURVE",
"334 1486 OFFCURVE",
"544 1486 QCURVE SMOOTH",
"754 1486 OFFCURVE",
"1056 1182 OFFCURVE",
"1056 842 QCURVE SMOOTH",
"1056 812 LINE SMOOTH",
"1056 432 OFFCURVE",
"644 -30 OFFCURVE",
"264 -30 QCURVE SMOOTH",
"244 -30 LINE",
"244 128 LINE",
"264 128 LINE SMOOTH",
"544 128 OFFCURVE",
"868 452 OFFCURVE",
"868 802 QCURVE SMOOTH",
"868 852 LINE SMOOTH",
"868 1112 OFFCURVE",
"684 1328 OFFCURVE",
"544 1328 QCURVE SMOOTH",
"404 1328 OFFCURVE",
"250 1157 OFFCURVE",
"250 1002 QCURVE SMOOTH",
"250 847 OFFCURVE",
"404 678 OFFCURVE",
"544 678 QCURVE SMOOTH",
"674 678 OFFCURVE",
"874 847 OFFCURVE",
"874 1002 QCURVE",
"944 1002 LINE",
"944 786 OFFCURVE",
"704 520 OFFCURVE",
"504 520 QCURVE SMOOTH",
"305 520 OFFCURVE",
"60 786 OFFCURVE",
"60 1002 QCURVE SMOOTH"
);
}
);
width = 1136;
}
);
},
{
glyphname = .notdef;
layers = (
{
layerId = "35AD4BD0-1826-4A50-BA60-0A633C86B791";
paths = (
{
closed = 1;
nodes = (
"127 1456 LINE",
"127 1402 LINE",
"777 1402 LINE",
"777 1456 LINE"
);
},
{
closed = 1;
nodes = (
"100 1456 LINE",
"100 0 LINE",
"154 0 LINE",
"154 1456 LINE"
);
},
{
closed = 1;
nodes = (
"808 0 LINE",
"754 0 LINE",
"754 1456 LINE",
"808 1456 LINE"
);
},
{
closed = 1;
nodes = (
"127 54 LINE",
"127 0 LINE",
"777 0 LINE",
"777 54 LINE"
);
},
{
closed = 1;
nodes = (
"184 30 LINE",
"126 30 LINE",
"719 1426 LINE",
"777 1426 LINE"
);
},
{
closed = 1;
nodes = (
"777 30 LINE",
"184 1426 LINE",
"126 1426 LINE",
"719 30 LINE"
);
}
